<mxfile host="www.draw.io" modified="2020-03-05T05:54:46.180Z" agent="Mozilla/5.0 (Windows NT 6.0; rv:52.0) Gecko/20100101 Firefox/52.0" etag="Bbq1PYMqj8q2v0dca6az" version="12.7.9" type="github">
  <diagram id="R3tRRm19zzIBP-SIop0N" name="Page-1">
    <mxGraphModel dx="786" dy="1723" grid="0" gridSize="10" guides="1" tooltips="1" connect="1" arrows="1" fold="1" page="1" pageScale="1" pageWidth="827" pageHeight="1169" math="0" shadow="0">
      <root>
        <mxCell id="0" />
        <mxCell id="1" parent="0" />
        <mxCell id="WbQl_Zmo-i32oERXdzoT-2" value="" style="shape=image;verticalLabelPosition=bottom;labelBackgroundColor=#ffffff;verticalAlign=top;aspect=fixed;imageAspect=0;image=data:image/png,iVBORw0KGgoAAAANSUhEUgAABQAAAAMgCAIAAADz+lisAAAgAElEQVR4nOydd1gUydaHW3f3Rr+7d3f1bjZgwIAbQHcV0yquWRdFyaCiElQQBcwBUcCEJJGcQXJGyaAikoMCApIZYMg5Tqrvj57QM9MTkIFBrfO8j09NTdXpqtOnavpn9wzICmjQoEGDBg0aNGjQxG0yDJOWlpGWkflVWlpaWvrXj9KkpaV/lZaWlpGRlmZGRUbc5wcatA/EEKfYIggEAoFAIBAIRFw4xhQ6ROXZR+RYBT4390i44hh93j70rE2IsXWgiXXQR4ixdeBZm5Dz9qFXHKPNPRKsAp/bR+Q4ROU5xhSK/WRBIO87UABDIBAIBAKBQMQDKn3twrIsvZMvPgi76hgZnJCTVVJb3tDW0jXQ2T/SN0z5COnsH2npGihvaMsqqX30JPOqY+TFB2GW3sl2YVlQBkPeAdvgFydNnTVO3RIJJ02dbYNfTLRnr0fJGut2y82UEAka63Z7PUpGPSPOsa8gEAgEAoFAIJBJximmyCEi/47/08sPI+/7xOeXE7oHSV2DlI4Bcns/ua2P3PoR09ZHbu8ndwyQuwYp3YOk/ArCfZ/4yw8j7/g/dYjId4opEvvpg7xHHDtrk5BeVNvSJxIS0ouOnbWZaM9/LVqZ6OI6UJwnEhJdXP9atBL1jDg/fgWBQCAQCAQCgUwmjjGFDpH5Nzziz9oEPy+q7hmitPeLX3ZOWdr7yT1DlOdF1Wdtgs3c4h0i8x1jCsV+EiHvCwcNb9e29KWXEEVCbUvfQcPbQnq2tPVRUNTmwNLWR6BnuZkS/a9yWoPcREL/qxy5mRKoZ8TlyWvIJHPRNkDsY/gwgJEUFZdsA8U+hg8DGEkYzCkI3CphJKcgzo9fPYwquOEef90poqqpq2NA/ArzvaBjgFzV3HXdKeKGe/zDqALnx6/Efio/DD741X3o9J0aYt+zYqJIqCH2HTp9R0jPCoraJC5TUNQW6FlupkRfQRbRz4kDp0tXmELa6dIV3Bpu+gqy5GZKoJ4R17hiyCRzyTZQ7GP4MICRFBWX7WAkYSSnHDCYogJulTCSUxCn2MLbfmnnbUPeNHR85I86j5W2PvKbho7ztiG3/dKcYgvFfio/DD741X2YLlObRUINse/w6TtCelZQ1G7lMgVFbYGe5WZK9OS+aPS040BBURswTEFR++H5ixw13F0aPe16cl/IzZRAPSPu8SWQSeaKXaDYx/BhACMpskjaB4l9DB8GMJIwmFMQuFXCSE41XJ+8dozKu+QQ9qywBqrfd9PAz1/VXHIIc4zKc33yWuwn9APgg1/dh8/crSb2pRUTRUI1se/wmbt8PJvb4Dz2zAQVwAI9y82U6M56Vu98jwMHk3MKitpUhnGUHUzOcXepd77XnfVMbqYE6hnxSCiZUChtbcP5ecOvCsltrRN9rPeFK/aBYh/Dh8G7RRLmJDdXHwQJ2fKite9OxcOLpX757vsfvvv+h8VSv+xUPHzR2lfsU5giCIyk25NXd/wzVC9nKpzNUTqXpXIx/eCV1BO3Ui45pNz2TnKKznN78srtySuxT2QqIDgt44vRQuRd3wI55Zr/LSZ8Novw2f9qvl2WvE3V1y5Y7FOYIvDfKpvv/dB165+dt/7FwvIfnZZ/77T8e6flP7D1Xbf+2Wg1V+zTgZH8AHB5XGTumWDlk9DSS+JWd8gYTexyVCy09JLsAlLMPeJcHhcJE/PIjMo39R3d/cNkCoVMoXT3D7+p74h8WSX2ZJgifPAX51pG96qI/anFLSKhitivZXSPj2dejz2jbzU0NKBl/p7lZkp0vkipsbvJzYMzxtyHUFDUfnDGGLd9jd3NzhcpcjMlUM+IZ+KbiYDc3NQT/KjlgnHjIdX6XVuqV//6duGP9bu39jzynaAjvkdcfRAs9jF8GIwpkjAn+XDtQYjANu5xxVv2KH89axYuW/You8cVi30iYkdgJF2fvNIyfbrdsJSDHYalOwxfK5xN176ZZOaa5BSdB+MpTFp6xxTk7jjUOn1m17SvWqbPJEz/snHaV83Il1nIjNTPvog6oOv50YfRU9BW2W35jx7Lz1jc/mefw/w+56V9zkv7HOb33GZ7t/P2DLFPB0byfcc9vsQpOs/Y6lF+RQuutIMCWEjyK1uMrR45RuW6x5fwCbhPcll5QyfgYW/qO72TxJ8VYueDvzg/YmyVVdroFJXHgdF1Bz63ao2uO3B3cYrKyyptPGJsxcczr8eeUaqqqhQUtQV6lpspUeFyP15OChez3TuxR1FQ1DbbvZNX43g5qQqX+3IzJVDPiHdSmWihDg0OPEvtcnNqt7xBND6FFRsoTTqHeXcPOMBre/vDypbR7MoRAQ0YPNf7A/n94nNmje3FM3pBZbxeetudOWDHY2B2ZxAE4fnuGDF1CBG+MecgMVw5cuaKgGbP9Y6gYQk4cCTAO+m53kXmv+xhPxKA63ZsBFn9jmzXs7P6nePUHAl4F2+ii+T4cvKjwNQhlH8Dz/gS6VXrealfFOlV6z3jS8Qx/oADyLsm7aRH0iEsc8ep3D9PFtPRx+Pkq/3GT638nwt1UPaNC38rYLVh32Nxts0pBP9geiWU+sYUvPlp4wjyFWH6Vw3T/9Mw7e8N0/7ZPO3/3kz/Iv6zL5Km/18eMiN2zU7vhFKvhFKxT0eskeS3VbLJNvPpA/6bqd3VtAEibYBI7aru8fyz23w6VrYJcUTRLckgq9//YHyKTYFlPumR/DDxiC++65t6zzu+sXsECuDxQOgeuecdf9c31SO+mFe0/VLKiZ0DAADa6OhQqH+Xnkb7jrVtW2W7tFUHg3xoo6MAgObOft9k8SeGEEzgPjCmi/P3kaMmVrnlzR5xrzjAfnuW2xQUtbm7eMS9yi1vPmpixccz8zlnjseeyxgmjGe5mRJv3W0Tt0tzc0N+N3onGWsKito35Hfjtk/cLv3W3VZupgTqGfFJLhchtKGhwcyMvoiwLjenjnu3Oh3tu709utydW84bVS5fyNQb7fcseXgIVDwSiFeffvyIlR3j5dUjZ67ya5B+/A90S9xxPBhtjyBHAn2Sy+0unUFrUDhe+tidUbTjPbtgq+N83h0L1x1Cx9A+2ErxUjruW6w4BGM1JzY49LBcPbLjeHCg4h9nFC8F+thZHQ9miyd7HHBOgd2lHTw/dtDG9AGwnRfO8E4AwkRynDl59Qh9mle5/9uFbe4I8gcrpPiVyeU+dmcQjnrMucOkX6AieyX9FOCvDlFE8qGASG7ZrfT1rFkrZDdefxgqr3Fi3sIlS6R+WSL1yzfffKusfdb0QfAK2Y1fz5q1ZbcSDw/px//YMZZ8wG3Py0mgIsK9J4gH/pH0Sii98vDpRr0iYThh+QTXCTMnGXPHrn3syx3Hgzk2B+R3ts2Evg/gZRfGDyvPx3QGJzyYPsnl2TsOjSJfNXz2deO0/xBn/9S26s+Wpatbv12SPe3fsQiSNO3/Ej/7Ig+ZEaF+Cq87Vzq9+xyZHzrca3lKwH+rZJdt0wajDwJAo1/70GgdPlotFz7FyjYhjii6JRls9Tt9t5wSy3zSIykkY91gBcV8ghe7W9zrqw4Rkc9KeOk6npccPIzLA8FJga3BpZR3F5lPTLmOZ/pC7NKXScyLN5cdwtziXvOKdgWhCwBAbWvpOqLcJreSg56zJ9EMLWvonEJJyJMJ3AfGdnHOQOKnNRI/rZngWYuGY2fvF1S1+aWWc4Dej+VlCora3F38UssLqtqOnb3PxzPzOWeOl0wuWLoK9Cw3U6La1ylt/wYOzA8oYIfNUTY/oMDdJW3/hmpfJ7mZEqhnxC+1QoSMvq0YTH/W9zh6KD+XNjQ0UlLc+dCu29eTVFtD6eluOqKJio3aTWt4eAhS4rW9bbz/gNHM9KiABn6pFX6pL04cxdQ8MEKOBj24bHQitMIvtcIv9P4qRr9Vl+9zHXQH2uzBZd7C72jQO0fJzDGUbwPeQWCOjTX+HSdCg5QQI9NUxryYA2O22WiktBFt+eLEUbSMKD1gRGkj07ORKeeUGW6F48Hl+1we2OIpcgRFUgQ5aXqUY/CYaLOn2YPLOxhZgVtZ4ffAiCtLg5SYwQm9v4ru+cWJjZgTim0wjqzjzw2nMH7vOoai93h3KWn5pVa4PS5wf1KEvuX2uMA3pdwvtWKXkhba5gb+SXlxYuOY0gCv/QMjHuuO46SIE/6R9El6c+hqyrpj+cJwwjwG1wkrJ5k588Bo1eUXrLcYLwUHmblJYrPrgRHbmn1gxNguplYwo+2CWqd92fTJrMZP/1ePfDLoFwwAoFGo1L6+7ozM0qPH45HPEj+ZkTL98+S/fRngnYAz/bHlJN9IsrkKUkIQ4U7BJMF/q+SSbZpY2dburVV34h+tl//BlG1CHFF0SzL0/ir6tjkllvmkR1JIRJjME45vSrlrTMHZ+wGF1Z0TKYAVnSqZL19cQhB5D8L4pOaLS4j5k4mUstklNRYPfGpb+9GXta39Fg98sktq+PcqrO48ez/ANYb+WcxBbHYteu+3U0uxTW5l+/Y1A24OpNeFpJJXA+4POzX3UQj1zHt9j3PqpnwSTuA+IMwlJTfLZbcul906wbMWDdpnrV/XdYVm1HKAvSvLbQqK2txdQjNqX9d1aZ+15uOZ+Zwzx2PPuN54eZabKVEX4pWh9RcHHHeSb6mrcdRwd8nQ+qsuxEtupgTqGfFPeysqqP39I2WlQ3k51KFBtIagoYSqi8Fnaf5pb6mDA9Wrfqn+/Ze3C3/k4SRY6Vgw62WYtdKVDO5mpseMTDkrM04es3Zg9FqF2RZXYTw4XDE6GfaW10t/ByMlBza3DlesTTHvIqyxsY9zjNxwChNJwE2PGZmmZZzcyPVRwBobIywORkoOGSePGSkds3YIs151LNj0ChouVtxMjxmZpgUrbWSEET/OPMDEfNUVazQ4jPBmnLzy7rEaZyTHn5Omx3awJUlasBLCIyxsGcJdmXFyI3dHrDdczxknNzIGEGa9ahxZx5+bTuF83t0mr4qKWwvXSF5trtkHoG22yatyvYvJUvoUgpn/y8NcdKbH6P9dcjKMuz29gZJDsBKCPSNo0DChw6Qiw3OwEmJk6mDEvSH48+wyUZH0SijZrJe86nDOan7krj6cu1Izy+BWrBA5Gczj/8tYbRiBZauknxfstslKVI5mnPmJOVMc51foHUMUwSyQU+qe9hXhk1kE5EvCtBkj6Zk0KpXS2k4bHEIv5uptH8ZP+zTp0y9eIDOiFHXx0hJ3dePmGH7S8nXFrOHuyJaTSg5v/XHyE7u3jzew/LdKNtlmMb3fZy1tgEjubqR0N1J6iUSrjXUn/llvMANVbp23Z3AlhqiXJGvuO046WK+ifyrx6sWRfui5YMYcN5mnZiTf+odZr9pobXplB2YuXDkQxgwIc7JCbLCcnoU+fVhXV7CHfnd8k8tsAp9bejyubhmcLAGMyldFp0pya6WfvILfEw9FBFWzlX7yDCeXUjDNcEQvhwB+cYmtowgwf+CNUtvaX9vaz3zJv1d1y6Clx2ObwOe+yWXc0UZv/5IL7Tr2/d62ZRWppIjt8VYqFfuqnNDF46yxrzKhkhCbVFwpxJGQOLsEr4UscPeYqNXNi1V/7lv15z4RDmPi0Dlv84bQG53bxME1K28+3wG+ZuXN3SU6t+kNoVfnvA0fz7i6WkFRG9cbL89yMyUaY0PyjY5wcO/oUeYI7x09ilvDTWNsiNxMCdQzEvC0SoRQujppFDJaJhOb30rOebvwx2pZaWaDBkV5VH7w8BCirG2jvwl/g1N+SG9mpo339iYbR6yrcJvV9C4hyoy+jleN9cNZbTheBjw0Zh6C0cDGjFE2u2qjr72T0T5EWTvknaNk7hwhVMuHxgjjKGbayOqrmRwNzLSNzTCDYUwHMzZ6EDL1NyEIslNZ20ZZ21hZG0EQRFnbRj+8KuBppr42PW5m2sbKrAnSp+wozDhZ42EFnM3GEavxR3KcOWnGHpOApyHKiLEZfkuEI3/YKsNtVmuHMFOXeTYdr+5EtEMCnmbqb8I5xWyHC7dZPYGRjOTzruTSn76eNevrr7+xC3zKq4190PNvvvnm61mzJJf+hNcgU38TM5KZ+puYsWJMkJXtmY7hHO0Z099k4/i0yvHqTlag6L1YUWIl7UNjxp4QosxMwnCb1VynD6/LREXSMTxr/u64+XtSpBSfS6u9XKGRxWSlRtZKjSwZ9czlSumL5FPn7Eg0sYoWLidZIdJnZCDn5sZ2IvC2TWZ28QwCnzPFTN0QfZwcnqhgVs+SbJn2JWH6zMZpnzf+63tSdS2NRus5eir/h7lNQWE0KhUA8HL57/GffPZs+ufxC2T45iTbHPFyDC9p+blirn3cjhw5yZ2fbBuC49Wd48xM/lslp2xzXT5Skdh8Z13z3fVDpYlNN36pO/mvOv0Z9QYz2q78o/P2DM6sFvGSxM49U38TwrcXd/qhGc7w+dAY4bFjT8FIBoTbrN60Uxkzd5wcYOyE7IknaINl8yz86eN1LsaFb3K5hUecS/jL5h6c33+eMAFMfmKKXEpBBbDiJcbd4CcefsVogxRzRMGvuI9c7KHIulecYo552hkrgAlOCkzdK7I7w/WtfeZ2Xhw0tPUL7OgS/tLCI843uZw72r0DIwAASvbK0eh/Dfmd4PNVTwBAz8AI3injWmWCk1DQcmZPSLxdgtdCFvCBPnGrmxeb92pu3qspqjFMKLoXbMub++OKWkVCeXO/7gVbPp6vW/tyy+nr1r5j8iw3U6Il5XGp+VmR0JLyWG6mBOoZCXxWPUF0uTmhuqLN3BStAVRq1a9L0EoevUJVtENZL8NtVa5m4bZ0urpT5SG/o9+4aqKibWugvdMgvDrwWfUNbUTlYbXTVRP0JdMJgiCItq0Bu+RezTio01XbG2wjCVXZZOvEPc4xYu4cKbDNDW0EYT+E09WdCP3omDbIToPwUBXt0MBw29UIgmyydcKMDe1ioG1yg+XE9sazLANtpp8szNxZzehvsZqFquB/6OxkxTPcdjVioqLNGM8zZrSzDK6+e6zGH8lx5uQN7Z3YnAl8FqrCEaiHJmgs2BKSu/KhCeZlqAordIxTwH5ymaeY5SHcdvU4so4/Fi78IvnNN99+PWvWwsXL+DtZuHjZ17NmffPNt3jvZhlsYkw53HY1ZrL0OT40YY8Apj1HKFjdmW24TgrbmcK+y+mWR5eJiuQtr+dzdiQymbcracFfKQvlUxfKpy7YkzJvVxLr3e0JFq6PcZ2wchJd9bwNjdgN1v8Y7jQIx65rDMzsemiC4KcZIzgcZ4r9bE5mWhI+mdWIfNk4fSZh2r+J836lDg/TAGhZtyMBQVJnzSV1ddNotKK/lJ9Mn5726X8TvpzDLyc55sidY7hJy88Vow1+R44dgKvMGVX+eSsY/lslXbZZfNpjMb3n1t9Gcmw7Q43rTvyz7sQ/u8LO9iZb1+nPqDv5r7qT/64/NaP5yuc4ySPCJckxd9ZLvF446cfhMMtgE8L/amFqRZI5R145wFbPnKygDRbrWfjTx/NcjAufpLLLD8KCU3l+AXjCBTC+XmXo2Eo/eQW6Kn5iyuNuMKYNy7NINHBb/007Dwt7Lwt7r5t2HvVCqN/WPnJoWsnlB2E+SWXc0SZTqAAAcuq/ycmf0TqeMLXuJvMBLJeChwEAZAqVb4bg1uAlocDlzDMhmcuc10IW/gNdxKsbC3rXF+UvjeN/aRzH1ohqPCLntJlrak55BXFAJKTmlJ82c51oz/JLViW7uHa8fCoSkl1c5ZesQj0jQenVE0T9nm2orhgpfo3WDDxNQWtq1v3Go1eoik5okJMJ9+4mey2L1YbXFihn65xeHZRe7Xxtp4pTloGOrXOkrYET3flNHcZFoVN1UKStLHo5GIk5LurfyUSF0cX5mu3N9Oqg9CwDHbrnICcTBDG5iW0/dixcI/k2yDKQQ1ScqoOcTFizRsuRtrLoHOnjN7lJH7yJCqNe5ZotY2xZBtdsDXRsnfHiyZg7a2o3dUxuohNkdmfOWghu6pgYXLO9mR5qcM2W8wSNI1bji6QIcvKmDjNJmOmHhp27JSsDcSpZgaWnqOy1rKD0UBVmEkbayrJ5zjKQw6Z9dVCkreyERdLSjV8kv/32u69nzfph9pyAZ5W82gQ8q/z+hx+/njXr22+/w2uQZSDHmClXQtKnidbTY4hpzxl2xlvM5YB9l740UGMsEO6+2LHhdJmoSF52fL7wr9T5e1IkdiXP3ZmEFcMcLNod6RSRKVxOsiZiwNq7TPDb8FrXzOxiT1QMmDBizxTP9hOelg2fzmpEvmz8ZFbDtL+1/bGHBgAYGKxcIB2LIOlzlpD7+2lUatava+Omf5I2/T8JX83ll5Occ+TKMV5JyzuvburQt3G8jrxyklHmiird27tGkv9Wicq2Xptv+hwXDkYojVQ+bby6pO7kv+pO/qvx2tLhirQ2V5VGU6mG87Pr9GfUnv6KZyRFsiQ55o7rk3eguB2OM3STGknWZHnnALYNa7KCNli2XkKfPp7n4t0JfF7lnVhsbOWXVsTvG7l4Fy38bIx3gFnaFfsINMLQt3Tdy9ESK4BTzDkGMO4vGNOpa+2/YeNmbuthbutxw8atrlUoAfyspNHYys87sTjweRVHwOkCOOVf5OTPaO2PeQlgk0d0AYxz1rhXmcAkFLicOXIJZ5fgtZAFfaBP2OrGonjMiImqromqrgm2RlTjETm+icWnzVz0LtqJhNNmLr6JxRPt2dXz8V+LVsrNlBAJfy1a6er5GPWMhLyonQhG31aguqJu20a0htrXV7P+d7Syy8OFR8dwQ9OcEOezqs7s9VF2qqY5aANV5Kw5o7GqnJ0LWtAND3mRY2gaHoJ9qWvn8qLWxXQXuqRUnWtdTM8aRrHcYl8yyvRejEo78xe15rq7sL1CnM/Kmtqp6oa/c3BuuUUJ2dJcF1F1rg2JspNlHi4qx4X1LhoKdL700TJfhkTZGTozpsMMqfNZ9jiw5svwVhvifBbRDWf5EYYoO1XTHMYAcMI7QQgfyZB3zUnOs8+WgRzgvsWojLKTlcOm1i5Z0xxGqNlPN3pe5BDuVSA7jqwTFMloPu8uXf4r+v3eS/c8ebW5ct8bbbNk+a94DXIM5RiRZJ81B/TIYNuzKlkvEd1wTCUmyNj9AWEsEFYlm9sQnl0mKpJn7dKXHXi+ROHZ4n1PF8mn8RHDsmqBfilluE6wOWmuy/uSkBFkTJuz5uxbHF52hasiu/BWLmdwWDksh+dw4tOy+ttlrdO+bPzs64Zpn3Rq6QMajVL29gXyt4TPv2oJCgcAdGfmJHzyj6RP//Ns2v/FL13FLye55siZY3yTll9e4XfklZOMMvt2gTfUsUaS31bZbfH33vtfkd5G0/qJtJEeGmmoJ/52nf6MOv0ZPQl3aKRh6lAPpbdl8HVsg8l3NYZfcnsQ8ZLEzp31Eq8XTvpxOBxv6CY1kti588oBzpDuol+68N9gOb0Jd/o4wsvXiZAEPa92jcm7ZBtUVNczqQKYeeMXK2vZ7gaz61vTF2zPQuM1EInixVLb0mdm7cJBbUufwI5FdT2XbINcY/KCnldzBLx3cBQA0PtCqjP5i8hXVtyPPZuFj2wyH7B6PII+Ao1z1rhXmcAk5NWXmUIcqY6zS/BayHx3j4lc3bzQOHFe48R5UY0BMmlMlADuuHcL1RWdjvYAgNHqqvpdW9Cahn27eHZEdRo/AUxvxriYw64cDsGGc53HRwCjkgNhv/JzMbUzdz6LvfJmMBZxyMWY1pi5LsLr+tJc96z5i3BVnM+CXRz61sX0rKwc6ifHUA6RNc0JibIzdK7FF8DvOke6AI6yk+Ucz3hFhUgi+W45KUAAYzLTxXQXwtjZcSqxmjbKThbhfynDpX5fiFMA71E+MmvmzOmffPLVF19aOOOM4ZZzuMSCRagA3qOshecEO6lwVYQ1QTTxmP97ghHA2P8O4D4Lu2TluD4yMVd+Lqa7EGGutvG7TFQkDe+n/6r68heVjJ+UX0gp8hPDqmdDA59VCZeTrAwx5E4bzNI21+USwM52dFeY7OKIg4vpLlVnVhi5zhT2bIYb4uyWExXM/F2Hu5EvCX/7pgGZ1nfLlkamkAhNRP/AodoGAACpuydrxZr4aZ8kffpFBjIj5rARXk7yWd3cOcaZtDxdRdnJIvyyXbAAZm7UzDMyPuEhSLb9rc9+NrWrinlNPPgquu7U53WnPh98Fc2sJLdVES4vqDH4L54T0S1JtojlGMoxPwFxe3GnH7aLCEI3qZFkU5i8coA1ZRfTXQjOpwZeygnQrjxOH89z8e4EPq20CXxq5RP3lsjzF7BEL4Ar/eSZP1WFFcAYHVvM/FksutZVlFfgeFKa4wexWI89PzEVzXeAr1s5o9S39dW39TFfCuxY0zpk5RNnE/g08GklR8Arm3oAAPlvbm8L3rkqWLGgrZTtV6+aqVssBzaZD6SXUwAAbxt7eKQHxyoTmISCljM2IfF3CV4LecoJYPSur6jGAJk0kNCMuomg9o/Vbxf++HbR7OGCvE5H+6qfF9Nvvm39g0xs5tXLQvecRUZdqPM57t1tzfVcRhsE0Y1gleXsXdHu0fZqjDahGXWhGbmGuoy3GLheP2cYjfsy11AOQeTOqckhas7YBvYW+EONUEPHEG2/BtltGI0pZESoIWxOuLntFi1UGKPt16ATdz6HjQBnuOhD3b3mei42OJggsEJhoYuskdu95npuqLO9YTRj4nQ7Z8F+dDWuI/KHI1wc0X63WPFH2EiOKyd3s80iI0KNPVCu13fT4yfHyjfcSnS+CIIgCMsnqyUzFJz5z2gcbb+G7eSKMqS33WP4vHvfN+Hz//v808/+NuM//50+ffrf//FPZuRvOAR//sVXqPRFsfFPwveDzos+BWYomInNqGFGjNne+RzCMXH2fQBzUlj5vOa6PaMSe8pyDeU4Tihel3EEln8krzpn/H4o57eD2XMQdlIAACAASURBVCs0smTUM3mJ4QV7ks2cngjOyWj7NXwvCtEBW7DuAJ+zYN8YWYuUI7swSYg5Qcx4cuQ282yON3pjCuYT7wTip/9r/vRrwvR/DCc9xV7VtcU8fvnzyjgESf7bl6mf/Cf531+Hh2dyecDufuh02FY313bKnbQ8XHHspfjZjpuTHGXs2Jhn/F1iy3+rxJFtRfxkG4+0FNWSxCb2bkNn+zX06fPqxZ5+6FvOTA+MLiJKy4mNZDRzsrxzALM811yPYMWB/wbL6VnI08fjXIwjmAFpFTdcYtyisvj8ApaIBDD2fYxAZXuwmdVM3sMP+1tWxR6KXPd4ef4KNP1GcaWfPPOHpuk/Jc2mkwWS9ary+j3H+jb6Ld/6tr7r9xyzXlUK7NjcQ3KLyrrhEhOQVsER8KSiZgDAKIWkFHd6RaCCbLCybZFPXmtJQdsb15LgHb7OGy16dNyHaDQAAEgsaORx4jhWmTBJyHc5syUk7i7BYyHz3z3Gt8zHdEnJRP6Qvvwh/XfoCBEvSHhmvcgZystBpUWV9FL0R3dR4UE0MqD29fHsGGuvbpYbnlkf7npO3ZXHW0xczyEIQm8Wi66Q3Wdisb1yz+jZu7Mfwt3sHLONpR7aJffMZra+jHq0vb0l5zgj1NFVyjGesXDHI4ZvA/ohkM1s43c3Q5USOrbcM5sRZLO9O33umPG4nsN0zD2jZ39GD+0Soc6ImKUe0zkrSpZ65ywxsWXFJFbARTbzZKHhstTj10a0CIrkuHMys95SjyOvxEes/Rq9iAlyftczln+DferaX8+aZeefZHzTYeWaTU7hGWi9lfeT//73v0z1q6RlIOqx5Z7ZPGVOwbgjGfC04oJ9krzhk7VHMlYfzuUlhtdoRPokvOblhGdOxtqfwVtozKWNFthXKGPVT2R2TVAwwzPrszWNSMhXDX+b1bFdsUvzeIXGsaL9ai8XSydM+zQemZ78yX+T/v5VHjIj9pSZ2OciXvhvld2Wf++1+nLkdQCpvYbUVkVur+6OuY4+uNsda0Zurya1VZHbawZygxqMv6k59YXYp8OXid0xPqZIcuF6DhnfLhH2si7wacW5+48Sc+v4Kzq+Fx04Nv67r1z6mfMrxJNDG9+XfEjIrTl3/1Hg04qwl3UcYa8m9gIAWgc7lONOrwhU4EA54n5LDw0AUNncO5VSSAwf/cJfUmLZrqq7XVV3MscJEQlIZFaDyGm9eoEuMNCfF5KVab16Ybj41UQc633knmes2MfwYSB8JN85J28fRxAEQY5Hinemnjd2T+gw7nkJjuSqdXKz58x1j85+lFzCrAxIefPdd9+j6nfzjn2iH5vbeWTzA0+xBl+0kQzLqA16+vZh6ItzNgnbdOPXHs2XPcQphvXMosIyanl5EHlOTnR2TVQwX9ZFvqwr3nhgBPmqCflb1SefxU+f/mTatIRpnyZ/8nnSp18kI//ORWbEyR+iNxb3dMQZSb5bJfrTTV23v2w2nU+4tIBwaX796a9Q2VZ/+ivCJbRyQYPxN3X6M2oMvxT7dPiSZ7R5t9FjGEleRGqwS0cNN/7BPH8b05FvY8GEZdS6xxZctgsqaxTwvVYxC2DGn0SafAH8zpQ19l+2C3KPLeD+7IjKamjrGQIAjFJJARWxGolnZUOUZYOVVeLPuJeGDpFHAACt3UPR2RORb++cQhO7kHGBF+cfFUhUdqPI6U940hcdMZCUMJSZQenomIhDvNdYeT0W+xg+DISPJMxJQZF8Ikyz/Zp6s2bNmjNnnufjfLTG60kBqn41dU3EPoupgJCRjMpu9E8q3XMmc5d+6m232LteSVcdks7Zppy6lXTWOsk/qUTsE5kKCBnMXO1L7f+ZV/nJlymf/Cftk89Tp/3nGTLjBfLvp//9Ic7wRlR2Y1QWQexzEXck+W2VjL9e+2nH9c8Ip/9Zd/LfqGajc/Lf6O8Y1+n/u05/Ro3hV2KfDl8KjP/cY/wERlJEPHFYyxCZa28UjMdVZBYhNL36tleCc+jzxu7RqSqA0YeiRfOd3smksXvUOfT5HZ/E0Be13MGPzibUEPu4fwELtSpiX0zOVEuhiV3IuMCL848KJDq3CTLJWHk/EfsYPgxgJEXFfZ84IVvqGJv9vnaTf3IJ+jIg9Y3c9r2nrt4X+xSmCEJGMiKr4YJD9sFL8c4RmRFZDdh67MuPHOHTMjE0I039VPLi35Jnzkv+3/yUn9YmHjsfE50TndsUndMo9omIHf5bZZvV992W/0BpN/1X/en/1Bp8zoP/vD23QOzTgZF8H4nMJgSmVZy+5ZlT3iJQzon5DvD7SVZZi6GlR9Czt5HZBNxT8LSkrbqlr3dwlEyhkinU3sHRamJfWnGL2HNjigAvKT8qkJi8Zsgkc98nTuxj+DCAkRQV1r7xYh/DhwGMJAzmFARulTCS4iU6tyn8Ze1t73hb/6QmQbd/Ie9GU/eoXUDibe/48Je10blNYj/p7x1wdX9UILH5zZBJxto3Tuxj+DCAkRQVNn7xYh/DhwGMJAzmFARulTCSYiQmrykyq8ExIvPMba83DV1iF4ofMGWErjO3vRwjMiOzGmLymsR+6t8v4Or+qEAeFxAhk4yNX7zYx/BhACMJIznVgJGEwZyCwEjCSIqLmLymyKw6l6hs/ZuuaflvxS4RP3ie5lfq33R1icqOzKqLyWsSewK8R8DV/VGBxBW2QCAQCAQCgUAg4+dJAfFxfnNsbmNUdn1oeuV936TTlp7pRVXt/eLXhx887f3k9KKq05ae932TQtMro7LrY3MbH+c3Pykgij0xIJCpAxJf1AqBQCAQCAQCgYyH2NzG6JyG8BfVj5JLXKIy73nHX3UIexiQUNXU1QHV72TR0U+ubu56EJBw1SHsnne8S1Tmo+SS8BfV0TkNsbmNYk8SCGQqgFy2C4ZAIBAIBAKBQESCuUvUo7jsvPImQsdAzxClTdya8GOjrY/cM0QhdAzklTc9iss2d4kSe0pAIFMKpG+ECoFAIBAIBAKBjIdhMq1/hNI7TOkZonQPUjoHyFD6ilcGdw6QuwcpPUOU3mFK/whlmEwTe5JAIH0j1M7+EfEOAP7xNAgEAoFAIBAIBAKBTAb1bf3iHQDS0keGQCAQCAQCgUAgEAhkoqkh9oh3AEhLLxkCgUAgEAgEAoFAIJCJppLQKd4BjFkAv65uTcutiE4rCEvM9gxP8wxPC0vMjk4rSMuteF3dKvaAQiAQCAQCgUAgEAhkalJe1ybeASDEXrIwNHQOJ2aW+kanhyXmZJfUlTd0VDb3tPdT2vsplc095Q0d2SV1YYk5vtHpiZmlDZ3DQrqFQCAQCAQCgUAgEMhHQkkNUbwDEEoApxdV+0anZxRVN3WPoKKXF03dIxlF1b7R6elF1WIPLgQCgUAgEAgEAoFApg6vKxvFOwCkuZfMh4bO4ZDE7Mfpr+raB9r6KUJS1z7wOP1VSGJ2Q+cwf/8QCAQCgUAgEAgEAvlIKCivF+8AkOYeMi/KCV0+Uekviqrb+ijvwIui6gf+cQFxGdFPCyEQCAQCgUA+cpJyyrkvt5KyysU+MAhEtOCmOgSCUlBWL94B8BTA9e1DHuFp+WWN76Z+UfLLCUFP0oeGhynQoEGDBg0aNGgft4Un53FfcYUn54l7XNCgidhwUx0CQRG/AG7qIeMSEPfyWUFlax9lnDwrqIxIzgLQoEGDBg0aNGgft4Ul53FfcYUl54l7XNCgidhwUx0CQckvqxfvAJCmHhI3aflvo58VtvaRRUL0s8KC0mpxr0Ro0KBBgwYNGjRxWlhyLvdFV1hyrrjHBQ2aiA031SEQlPyyOvEOAEcA17UPuoen1rT2CSNu3fzDvAKj+Lepae3zDE8dHiWJfHURCASR+4QGDRo0aNCgfYQ2CRcVUABD+0hsnAJY2/CCzukLwrePe5olfOPrd+yv37EXrwD7yBG/AG7sJnEQm/7qaf7blj6yQK5aWv/8+x8//faHjbMP/5ZP89+mZhfzXyrDw8NpaWmOjo7Xrl27du2ao6NjWlra8PAwny5QAEODBg0aNGjQRGKTcFERmpTLfd0VmsRTANfV1cXExLi7u7u7u8fExNTV1U30CKFBE4nhprqQpGS+ll6zWXrN5rScEiG7PEnLErKl2T0HaVk5aVk5s3sO7zxCYZBX0Vr8y+ql0muWSq9Z/MtqeRWtCT1cQ+eI8RVL4yuWDZ0jovXsH5mwYt2WJb/S58KLJb+uXrFus39kgjA+897UCXn0K+bWUtKyS36VFXR02WXSslfMrYV0iyOA3cNSCR1DAtXvNUvr1Rt37VbS2rH/4Mq1W4i9JD6NCR1DHuGpfNZJYWGhpaVlREQEkUhEa4hEYkREhKWlZWFhIa9eE/JZRQxQUgogit4vapmWiGXmRDmHBg0aNGjQoL2jjfOiIrOgVGCbMQngnJwcZ2dnZ2dnf39/b29vtJyTkzOGMRHLytD7CMNlAefSysrSysrSzp07d+5cGvM6h4hWcFhAGb/7D9CgCbLxCGCdUxd2KGjuUNDUOXVByC5CCmCzew6rNu7co3x0j/LRVRt3TqgGXrlu684Dh/YoH9mjfGTngUMr122duGNVEvsOnzCWlt0sLbv50HGjSmKfCJ2v3bx78x7l3Upa6Fx4sVtJa/Me5Q1b5YXxKbwAllmzeeteNf6HRtm6V+33P7YL6RYhdJOw5FY0hyblEvvI/Ll2y0ZWbvdeDR1V7dN7VI66+ocK7PLoycsqQgvuIkHVL1P6Yo1IJPLRwFNPAAvsLCYBXOhpamodQ+SsQs2TGV1ijDWfSjYHeN2hQYMGDRq099aEvKgYGh5JfVngFhjr4BPhH5mUllk4ODT8Mr/EwSdCYN+QpFyO6y5CNykETwDX1dU5Ozv7+flhbwz4+/s7OzsLfx8Y1b/ENFTQDpelobKWmJbG/zKHqZuhQXtHw011YXieX75m8x6lI/pKWvprNu95mlcmTK/HaVm83gqOTV21YdsSadmff9+wbov8XnVtdV0jdV2jvera67bI//z7hiXSsqs2bAuOTX23AfNi064DGnrGmsdNNI+baOgZb9p1QLT+mRTXtMqrHF69aYdnUIxXcMzqTTvkVQ4X17SKyv+6rXtVtU+jE+GPqrbhuq3ywvjMfVMn5NFv27vuVj4sr3ZMILuUDt2ycxXSLacAjs8qTX9VI1j9bt69T1NPTcdor4au26PwFkHql9hHTn9V8zy/nHuFDA8Pc6hfR0dHR0dH5ktUA+M+Cw0FsBBW6GlqauoZE2ON1a/EGGuGbiXGWNOlbaEnU+MSY6zpwpYY48lVh98dGjRo0KBBe49NmIuK+qYW14AYe68wLA4+4WhBYHfhBXBMTIyzs3NLC9udg9bWVmdn55iYGIEHYt7XDWDe8+W+/4t/85dhAkQyNGj87N0EcEE5Qff05S3yarft3W/bu2+RV9M2vFhQThDYkY8A3rB1r9we5W0KGjsPHNqnrrtPU2+vus5edZ2/VI/tPHBoi7zqFnk1ud3KG7buFZViRNm8R+XgiXNMNu9REa1/lMzXVZt3HZDbdSA2NevqLburt+xiUjLldh3YvOtA5usqEU1E+eCJc+q6xkpaBkpa+mo6Rth5qekYKWrpK2kZqOsaHzxxbvMeZWF8Ci+Am3pIxF5haeoRdlIIoYuEJSQxt7imndhL5sU1S9s1f+7Zf/DEwRPn1LTPeAfHtvBujKW4pj0yFeeH/tPS0uLi4rA1HAIYABAREZGWlsbdl8dnFdfNSSJW/RHZpSC9MkAJQRAEQZQCMhkalhigpBSQGaCEoJKV2YT+OtMSwWrdTEvkohl7CwAyLTkqMAI40xJBcMQy8zBMnYw5MKsy0xKxzGS4t8xkHYruklOX4s6a461CT9bdXGwZ8Knj6xkaNGjQoEF7b0ygAB4cHnHxj7L1CIl7mtXd2w8A6Osf9Ap5YusRgiLwECGJuRzXXeilF3dLDw8Pf39/7np/f38PDw+h5sO4/4sqWXj/F9pkGm6q4+IbGqdvcm2vitbKdVuk12yW2620bZ9GYUXjq0ridgVNud1K0ms2r1y3Za+KlsFZU//wBFwnj1OzePnfsF1hn7ru0+ySp9kl2/dpEHtI3PylcnTDdgUhBywkW/5SPax/gcmWv1RF65/QRYp7li+7add+9WPJL4uOGJyX26Mst0f5qMH55Iyi/erHVm/aGfcsX1QTOXDoZNbryvzSWnXtU+q6xuik1HWNNHXPFLxpyCysOHD4pPDTzC2tE3k0xgTS0EXC4v/4ZTmhu7mXjMtVS9u1W+QPHD55SP+C1qlL6rrG2/Zr/rZh+/LfNkitWCe1Yt1SmTXyyodx+5YTuv0fv+ReIY6OjrgPP2ONSCRySGLU8D6rMPcpmYpNgAAmBigxpSgxQIkhIokBSkpKlgyJmhnALNGVL9vdXrqwxdYRA5S4dS+rHd6dYOxI0ANia7AvMi2ZchgVyKwy7h1mPjKVpWsZscO/q4uvf3lVQ4MGDRo0aO+VCRTASek51m6BT1JZFzPpOUXWboFMBB4iJDGX47qrYewC2N3dXeCBAPb5Z/z7v/xuAMOvAEMbp+GmOi6rN+1cv23f1n3q2/dr7lPXPX72mqN3KPqWi1/4ibPX9qnrbt+vuXWf+vqt+9bI7cJ1Epuaxcv/n/Kq+zR0El4UJmYUrd+2D7fNLiWtP+VVhRywkGzZq6Z16hKTLXvVROvfNyx+xbo/dc9cjk3N3quhs1tJS/noKeWjp3Yrae3V0IlNzdY7c3nF+i2+YfEimchedZ2EFwUNXaSckjp1bUON4yYaeibquqcLKggNXaQnT3P2augIP83c0johj37Zwnb5ynXLVqyT4suyFeuWr1h32cJWSLecAtgxKJGX+nXwDFrz5x6lIwZapy4dPX3l6OkrWgYX1XSNDhw+uf/gcZS9Grqr5Xbx8uAYlMi9Qq5du8ZRw30HGLcZwP2sYhd6dHHGXwBzPLZMxNwBxheTDDWL6ZhpiblrTGT3w9aHcecW90Fp7geoOWuYr7EuOFQ3vmteAphdvzK+74tty7ihjitzofyFBg0aNGgfhgkUwM6+EVbOj3r7B9CXz7MLrZwfYRF4COEF8DgfgUblLetWL/P+L1crepvhsjKigLbQoAlvwgvguGd5e9V1VI4ZWtq5N/fQn2JF30KfgG3uIVnYuqkcM2RqMG74COCt+zQOHD65dov82i3ym/9SkV6zedFPv2GRXrN5r4bO1n0aohWoOxUPoXIJZafiIRE6v+/o8/PvG0xv23mHxO7Yr7lXQ1fzxNkjhpePGF4+eOLcPg29Hfs1vYJjrt+x/+m39fcdfcY1kQMHjxheVjpisHmPUnJWcUMXKae4VvmogZo2Xf3Gpxdu2nlA+eipI4aXd6scEcan8AL4tw3bdilpKTCUJi8UDh7fpaQlu3m3kG7HIICtnbx3KR0+cuqSttE1Xhw9fWWLvOo4BTD6Z5AENgO4n1Wsx59NWb/cxF8Ac3wtl8j2CDSbMEY4H0Wm615WSzZNjLCbUgCRUcvje8LcXxDmqmET0pwj5h40a/S4D36z3+nF/Q4wy7h+SAt+/RcaNGjQoH04JlAAWzn733PyG88hhBfA6I9g+fv7MzVwS0sL+iNYpaX8f24avbOL/uxVAK9bu+y3f9PKsC3h/V9o4zbhBTChi/Q4NXv/Qb0d+w9a2rpxN7hp7bJj/8H9B/XinuUSeDjhI4C3K2gqHT2Vml2cml28Za9acw+JG4WDx7craI5TlNZ3jq7euHOZzNrlv62X3bxbUUsfK5EUtfRlN+9e/tv6ZTJrN+9SHOexCN2k5h5SYzdp0y5F9N4k9lhapy4pHTHYtEuxsZvUjPkPhXdDXe+M1qmLWqcuyatp/7FdISW7pKGLlFNcW1BOV7/rt8rvVdc5cuqS1qmLGrpnhPEpvAC+Y+++T1MP/ZoxHxS19Pdq6N554CGkW6S+i4TF7/HLMl6PQPeMXr/roKF3VsfIVNfETNfETPvMtYMnzqtqn1E+aohy4LD+UYPzuN3LCN2Pngj1CDS3AB7DI9C4dyTZ5BxG5tHf5X0HGPdxZqz4zLRELDPxb/vi/9wVowPuvWXuO8P87gCPUwBzaVz20An6EjCeRIYGDRo0aNDeWxMogB96h95y8O7q6X3nQwQn5nJcd9V3kYLxBDBg/zNIPj4+zgzz9vbu7OzkfyDm93gx3/glpglStvDbv9BEZbipzouGLlJ4Qvoe5aNr//zroXcI9i17j6C1W+T/UtWOTMpo4O0hNjWL11s7DhxSPGyQmFGU8PLVpp2KuG32quvuOHBI+AHzIjIxY9eBQ/sPnlDTMTpqeAWVSyhHDa+o6RgpHDyxU/Fw/PO88R8LZZuChvaZa7omZkdPX1XXNVHXNTl6+iqq0bYpaIjkEBY2rpp6JromZkcMr+xV19m4Y39ydgn6Vlx64YZte/dp6KGT1dQzsbBxFcZnTmmdkEdHnwIQEkK3sJNC6jtJWIIScl/XtDf3kPHpHr1h5XTw5Dm9s2bHz988Yng5KimjtY+MpaUXv+/rmvaIFKF+BItbAI/lR7AKPU2xYhctsiqJMdZcfxAo05L161Ic3wHGfO+XrQVWDCspKbH9YBVGHGPbsX0HmP1N3JEI/A7weAQwnnzF/W8C1o9AY2/4QvULDRo0aNA+NBMogBOeZlrYeYQ9TuGoJ5HJQh4iODGX47qrvpOnAAYA1NbWxsTEuLu7u7u7x8TElJaWon8QWJAGxijZ4bKANCIxTYi//QvvAEMTneGmOh8aOknmNi67lY/ce+iNrb/r4LVb+YilnWsD3+6xKVm83tqldFhV58yGHfs37Ni/TUFj5fqti39ZhWXl+q2KWvq7lA6PacC8ZhH3PF9Nz1jb2PT4+ZscaBtfU9czSsl8zX8uY2KX0mHUuarOmaZuUlM3SVXnDFojkhnVd5JevqpSPHxC96zZ8fM3jxld26ept2nXgdi03IjEjD+2KygcPK5tdO34+Zu6Z80UD594+apKGJ85JXWiisC7wSmAn7wsfV5Uw1MA95Cbu0dv3nc6bHDhxHnzI6ev7FQ65BcWz689g+dFNc/zJufPILEeg2ZpPkaddUwhXQpin+hlPd7M+SvQzP83xbQIwN7b5bybiz7jzPUr0Dj3hZm/Y8X2e9DMLni/As31o1uMBlwCmKVWMX/bl/lVXs4HxTG6luuv+7IqmdHk0R0aNGjQoEF7f02gAO7rH7j30Nvcxi0kJqm1vRMA0NzSHhyVaO8eUFEt1N/mHasA5rbOzk7BGpilfxkPQeNp2uGyALZqeP8XmuhsrAK4vpNkeNFCXl0nOCatvpMUHv8iIvFlfSfpUVSyvLqO0eVb/PvyEcC7lY9o6JmkZpWkZpXsOHAIVYkcKB8z3K18RCTKqqGTlPSiSF3PRPfsjZMXLZnomphp6J19mlMiQvWLzg71v1ddB63Zq66D1ohqRvWdpFv2Hof0L5y4YHHyoqWOyfUDh/X/2HFg4y5FRS0DXROzkxctT1ywOKR/4Za9h5AOhRfAVyzsfl618edVG39ZtYkPaJsrFnZCukXqOklYssua/R6/bOoh86N71NzaRevUZb1z5mq6xuu3KfiEPhbQpYfs9/hlZUML7iIpLCzk0MBMQ9VvYSH+3cYJ+TvAY7Nx/dVgaNCgQYMGDdoUMWEuKmoaGm898Lhh7YLljoNnfaNQlwJBibkc1111naSgsQhgIEADM+710m/yMhQuXQhz6mBiGk5baNDGb7ipzh+Vo6f2H9L3DkvQ1D2zcv22leu3HdIz9g1P2H/opIbuaf59Y1KyeL21R+WYqo5RYsbrxJev/5RXw21z4LD+HpVjYx0wL+o7SSmZrw+eOHf8nLnB5TsGl+/onTM/dOLc8/yyehEdgjU71WPoIfaoHuNVM35q2gZNrt09Ynjl5MVbBpfvHD9nfsTw6hHDq8fPWxhcvnPy4q0jhldMrt2tbRsS0mF2SZ2QLdfI7VE4eEJN1xh9wJsXarrGCgdPrN+2V0i3nAK4rpPkEppa2z4kUANb2LgcPX3lxEULNR2jtVv+4t++tn3INTSVzzpBNXBERARTBhOJxIiICD7qF0wFAczr95yhQYMGDRo0aO+VCXlR0dPbH5+W4eAZaGHr5hsam5aRy/xdaIEmEgEMMBqYzzUSNGhitLEK4MqWod3KWlqnLsmr6+5UPKxy1FDlqOFOxcPy6rqHDC7tUTla3TbMpzsfAaykZaB54tz2Awe3Hzi0V1Nvww6FX2XlsKzfrqCqY6SkpS8quVjXSarvJKXllB46eeH4BfPjF8y1DC6mF1SIXP3WdZLk1bQNr90zvHZPXk2bV41IqG0fuufoq3nynM5Zs5OXbhlcuWNw5c7JS7d0zpppnjx3z9G3tl1Y9Vs3FgF896G3qs7pgyfPC0RF+/Tdh95CukVqO0Y5iHr2KjnnbWM3SQBdIxY2rlqGlzVOnLvv5M2/cXLO25SsYv5LZXh4OC0tzdHREf0OsKOjY1paGu6Tz0wTqwDG/vldaNCgQYMGDdr7bZNwURGYkMN93RWYkPMOrjo7O4uKikQ+QmjQRGK4qc6H54WV8hq62sbX1fVMrF0elRO63jR03nf2U9cz0Ta+/peaTsbrGj7do5Mzeb6VknXo5FmlI6eUjxqq6hgdOKy/V0MPi8KhE4f0z0WnZI1pwAKp6xh9lld21PDK0TNXXxRWitY5k637NA4bXDpscGnrPg1eNaKivnM0r6zBxi3A8PItHWNTHWNTw8u3bNwC8soa6jvH5iqrpFb4gxK6SEIi/DBwBPBb4oBzSEpFc68wGtj1UaR7UDT6S9y8qGjudQ1NGR4liXx1if8OMDRo0KBBgwbtg7D3SwBDgzaVbawC+MWr6r9Ujt528CquaWXKmPrO0VdVRMsHnvKqxzKL+UkmPgK4rmOU0CVQRI3WiVQrsh9a9J6ZYGfBq0a01HeONnTR59XQ3o+5vgAAIABJREFUNTpW6YsivACeIHAEcG3HaGJORXhqgWABTP/71GT+bcJTC/JKqsW9EqFBgwYNGjRo0MRpUABD+0hsrAK4tmOUwENN1XdOrIaETD7iF8A1HaO4+MRmJOe8JXSTxklyztuQRPiYMDRo0KBBgwbtY7fAhBzuKy4ogKF9eIab6hAISmZJrXgHwFMAVxAHnENSUvIqx6N+U/IqAx6nj5JE//AzNGjQoEGDBg3a+2VQAEP7SAwKYAgfpoAAbh/lRW450d4/IT6rTPgvH2OJzyq77Rb54FG8T0wGBAKBQCAQyEdOcGIu9+VWcGKu2AcGgYgW3FSHQFAyi2vFOwCkun2UD+XNg24RzwLjc8obexq6SEJS3tgTGJ/jFvGsqmVIhH/rGQKBQCAQCOT9pbYD51qrTtyjgkBETl0nib/EgHzMvCyuFe8ABAhglMcv39j5J8RllVW3DvGXvtWtQ3FZZXb+CY9fvhF7cCEQCAQCgUAgEAgEMnXILm0Q7wCEEsDV7aPlzYMhyQV2/gkekc9T8qryK1tf1XagovdVbUd+ZWtKXpVH5HM7/4SQ5ILy5kGxRxYCgUAgEAgEAoFAIFOK3PIm8Q4AqWobHRPpxYTIZ8XesS/dwp9ZeT+28n7sFv7MO/Zl5LPi9GLCWL1BIBAIBAKBQCAQCOQjIf9ti3gHMGYBDIFAIBAIBAKBQCAQyDtQWN0u3gEglW2jEAgEAoFAIBAIBAKBTDSvarvEOwAogCEQCAQCgUAgEAgEMhmUNPSKdwBQAEMgEAgEAoFAIBAIZDJ40zQg3gEgwcmFEAgEAoFAIBAIBAKBfPAgYMJtgALIpMFRMArAMBXQwPAQGYwCQAWAAqgUAGiABuhQKDRAA2QqhYx2pVABmUohD48A0sSPc4KNBkYBGAQkQCID8sgoINMAGAAAUAEFgEEqoNIAhcyY5ygYBYBGBTQqGAWARAOAAgCZSgZUQAXDFDAIwAgANNQtZXAUDPA6LAWQAaACKgA0QKKBUQAoANBogAYABVCpgEYlAUACNBKZDKhdkxMKURiVSmUWyFQKM4UG0dphEiCRAY1MoozSAAAAjKLhogI0FDQSGfT0gfYeSl8rtasVtBEBsRm0toCWNtDSCohE0MqDNghkHLQ2cdLSDFqaQWsjaG2EZViGZViG5ckoT/5B4TQ/3iO2gJYW0Y+E2MS7DQG0EoTy09oMWvnUY2hrBq1N+PVtjHJ7M2hvBm2NoK2RXs9GC2hrAe3NoK2JVW5vFlRuAe0tbGVuOlpAB6Pc2QI62es72kBHG3u5DXS0TbwAJlMoAAAaGGxo7iwp6iW8GehtAKPdPaBrGPTRwBCgDQPSMIU8Sga0UQBGqTS6kiHRhgDoopJGASpc3m+jjVLJAJABAGQKIFPIgDpKpVAAABQqhUYeBVQyoFIAlQwoNCoZkKkUWj+gjQAaiQJINEACNBKgkahgFNBIVNoIAGQAyDRAJQ+PAAoVdYxrJECmUcmo6hul0khkKqABQKYCKo1GGyDT+ik0MiCTALkPgH4Kbz9T0MhkMoVCQctozpCpFBIJ/Y8GMIAKXwoANEAGgAIAiUQBNDIAQ6NDxJriZwUxPlkeNum3ryZfMY4y0H50WNVHTclHQ9nvsJrfEY3AgyoQyCQQqqkeqqkefFA1+KAqLMMyLMMyLE9CefIPCqf5ER9RM0RDY5xHD9Ic09WCSrBwVxfBB9WDNNVw64MPqgcdVA/UVAvSVAvSVHt0UO3RQbVATbVATTW0HuXRQTV/TVW07H9Ize+gaoCmcoCmsr+mKhfqfhpqvpoqvpoqfhpqzLKvhpov77KPppqPppqPuqqPuqq3Bh0vdRVs2UNDxUNDxUtdxUtdxV1TxV1TxUtdxVNNGa330FDz0FBzV1d2V1d2V1d1V1d1U1d1U1edeAFMJQHqKOhoLTpjlPPrijcS8yvnz3s7d17Vgh+alkh2yqzo27xlSOMg6cY1EOoLshIAsRUMD/WSSYMAUFABQwa00fdeAAMqIKM6jUJFb3qPUEfBKJkCAJlMpg4Pg+FRMEIGw2RAogEaoJGGAZVMHRkcHB4YpVJIJBKVTCOTqWCIDCgADANa/zCZNASGRwAJDI7wjA+FRqZRqIBKv+sLaGQwOAgITYDYChoqwJtsWnbGUHgEzctr2NEVJLycxIiIzCgUCnpDmEqlAtAPqAOAMgIAaRSMUgEJ0MijvV2gsgxEhpKumvbt21+7TKp8zg+VC2a/XTi7YtGctwtnVy6YXblgdtXCeVWLJCoXz3+7eEHp4nkQiMgpWTKHg1LJuaWSc0sWzy5ZPBuWYRmWYRmWJ6E8+QeF0/zAjlgqObtUUqheJZJzS0R5dGGPK7wf+vWJ5NwSybnFi+m8lpzDLBcvnlu0eE7R4jlFknOLJOnl15JzX0vOLVg6L3/J3MLFdAok5xRIziuQnJe3eE7e4jl5kvPyJOflLp6Tu3hO7uJ5OZJzcyRn50jOzpGcmyM5N3vx3OzFc7MlJbIlJbDlzMUSmYslXkrO4yBj8byMxfNeSs7LWDT3+eK5zxfPfSEp8UJS4jmGZ4slni2WeLZo3rNF855Kokg8lZRIWzyPgwkXwKMADAAa6O+IVjnwUnJ+1dyvaxd+U7bw69L531Ys+LFyoUSZ5JLsZVJPpH/yWyvjvHFloP7Bylh/0NtIpQ4CGuuZ1ffeyIBKoz+HzJjRCKiu7W2oHmyuH2yuHSHWjTQ3dNZU9tbXd9fWtdfWDjc291RV99TU9BIa2iurusqqe8vqCHX5LU1v2t4UDrzJG6rKHXqT3ViYN8z/0DRAoVAoNCoNUMHwwOv4OOfTZ+z2K7nJbfCX/SVo7crw1dIxsr96rl/ZGRkyKbEQgTEfgaaX0VvAVBoNUMEoBZDBKACjAAAyCVRWFvn4+ezZ/OiPFY9XLn65fM6rhd9WLPi+ZqFE5TyJ6oXfVy/8vmrR91WSP1QumVOzfH6dtGTDb1LNK5bi0gSBjAPCb4s5aPzt58bffib8vpzw+3JYhmVYhmVYnoTy5B8UTvMDO2Ljb8sbfxOqF+G3nwlc9Q2/SRFW/kRY+VPDb1JjKhNWShFWShFW/tSwYnn9ymX1K5c1rFg+pnK9jFS9jFSd9JJ6maX1MlINK5bXr1hev2J5nYxUnYxU7Qo6NTLLmOXaFVLVK6WqV0pVr1hevWI5Wq6RkaqWXla+Yln5imVvZehUSC99K7P8rcxytL5cZnm5zPI3MkvfyCx9IyP1RkYKLZdKLyuVXlYis6xEZlmpzE+lMj+h5RLp5SXSy1/LLH8ts/yVtBQHRTJSRTJSr6Slin5dli+zLF9mWaH08oJfpfIw5EpL5UqzlXOll+dKL8+WXsYkR0Yq69elE38HmAQAlQIaqiI2rKuYP7d19tf18/5XIfljqdSsN0v/V7FwZuWC/9Uu/LZq0fcVkj+WSv5QvGBe5aJlpT+vBjYPQTOhp7d1FHXyvhv6rC6FTELFLwWQG2v89h9oWLbw9cLZRUvm5S6aWyi1MHfJgldSi98slnyzcE71ornV876plfy+WPLb3GXfv1z6fZ7U3PJlP5ZIzn8tsaB43pySJXPSly4I3rYdtHTwOzQNAABIFDINUAFpmJifl/rQscb6wYvNckWSC8rmS1QulChYOPeRjBQoL5z4QIjGSBQyAIBEIrGpXxIZkAGg0qhgGHTWgsigfs1DVT8tL1w8p2z+gjcLJF5L/li4fHa2zILU35ambVlfqKlafutajY1Fi6tt1yOXvlCf/gi//ij//siAwahHEIjIGYjmIjx0IDx0MDJkICIYlmEZlmEZliejPOkHhdP8wI7YHxbCpC8ssC8ssD80uD80uC8koC8kYCA4aCA4CC33Bj9i0h/0qD/oUV+Qb1+Qb1+gf2+AX2+gT0+Ad+8j3x5/n95H3r2P6OUef68ef69+P69+P68+P69eX08sfQx6fTx6vN17vN17vN16vN16PN26PVx7PFHQly7dHi69GHrcHXvcHXvcnXvcnbvdnDjocnXsdHnY5fywy/lhp8vDDmeHTieHTieHDmfbdiebDscHHY4POhztOhztOhwftD+0b39o2/7Qtv2hfftD+w5Hu/aHtm0Odq0PbNvtrdvtrdvsbNrtbVsfWLfY32+1tW61tW62vddse6/F5n6Lzf0mm7tNNneJ1veJ1vRy8/17zffvNd671WR1G6Xx3i0Wdy0b71oS7t4m3L1NuGvZcMeCcMeCcMei4Y5Fwx2L+tvmKHW3btbfull/62bdrZu1ljfqLG/UWd6otbxRY2FWa2FWY3692vx6tfn1CRfAw4BKA0OU1y/CV0m9XfwDQeKLigVflUvNrVjwfdnC78sWfv9m4felC74rW/ht+aLvKiS/r1z63asfP6/8ZVHcr4titfaDhhIAhgbo8vE9NgoJAEAFlFEaACMUAChU8Crff9XK1jlflS/4H/GP35vWyTZt3FC3dUPzFtkO2V+Kls4uX/QDQeLHDom55T9817ZpQ8ufW9o37mhbL9uyTq5FbnuJxOz2OTPbls1LU1ag9LbzOu4IaRhQ0aefAYVGBTQyGB4GbR2A8Oap4rbiZbPrF35HlPjh7fw5SdvkQEvdpAVknEYFNBoAZDIZVb/UURKg0AAV9AAAqNTBksLEi6fDV60oWbqsVnJh9vyv6+Z8V7vgx8qlEq1/rgWGeuCeBXByGPXzHvIOHPILHg4MGwgK7wsO7w0K6w2M6A2M6AjBpxMCGQcdoWEc9AQH9gQH9oQ86gl5BMuwDMuwDMuTUZ78g8JpfmBHxNAd7N8d7N8TFNATFNAd6Ncd6Ncb8KjnkX9XgC8H3f4+3f4+3Y+8uh95dfv7dPl5d/l7dvl7dvt5d/l6dft5dvl6dPl6dfl6dfl6dPq493i7d3u5dXHR7eXW5emKpdPDudPDucvdpcvdpdPNqcPVscPVqcMVLTiispbBg06XB5iXDzucHZi0Oz1oc7RHBW2boz1abnOwa314v/XhfVTctj6wbn1g3frAFi232N9vsbdpsbdpsb9PtLMi2lk3295vsbnXYnOPaG1FtLZiCF0rorVVo/WdRus7qNAl3L9NuH+78d7dxnt3G6xuNVjdYopblAaGuKVz27zhtnn9bcu6WxYc4hbVtyzMr6NCt+qmafVN0+qbplU3TStvXKu6ca3qxrXKG9feml2dBAEMwChlJOZJ4k8/Vy+YVyPx7dsFcysWLa2UmFM1f27lgrlV8+dWz5tTM29Ow9y5jXPn9Xz3Q+O87ysWfl05/9uKefMrtuwB8clgoGeixzkJRqWNAjAMaFQyAIBMGvD3fvLzEq9Vq5/dMR8lEtCvCFMAFfR3DTyJq18gUT13dtXsuQWLFsWs/33wWQwYaAKUfjIYAIDc39+e42jxdOkPbxbOKb18foTC88erKIAKaBRAoqE/N43+cDQgUUBtWdIfq95IzKxZMOvtgq8Lpebnnz/dS+6bvHCMz9Bffqbf/iVTAIkCqGCkuw8UPB84c6ZaSvrN3B/fLPy+TOLbwgU/FKxamvLH2kpD3S43m84gt/YAjy4fn37vAJJf2KC/x4C/R7efR7u/e7u/e4e/Z+8j7/5AX47/bINAREIfN34+fX4+fX5efX5esAzLsAzLsDwp5f9n763f27rSve9/4Dzv9cy0TWIGkZ2kSZlmeqYz7XCnEDKTWLLYzMwYO0xl5iZpm0KoSZomTWIWM7OMkjbd7w/bdtNAO52ZZM4zx7o+l69vdrfXrbWsSvque6173f6gK938j4z44swP07MzrxyaeeXQUnr24PTLB6/J0IZeOLCcoQ0e2v+DDO3B/dMH908f2hc6uDd0cHfwwK7Q/j2h/XtC+3cF9+0M7tsd3Lc7uG/n1Tqwd0doz/cE9u7y79np3zMc2j08vWt4etdwcNfQMoGdA4GdA8Edw8Edw4EdvYEdvf6hgcDwoH9Hv39Hv294wDc84B/q823v9W3v9w72eQd7vIM93sE+72CfZ6DbM9DtG+j2DXQv6v5eb1+Pu7/L1dfp6ut29XW7+jqdvR3O3i5nb5ezt8PZ2+Hu7nR3dzp62h097fbutmVsXa3LODrbHZ3t9s4WW0ezvaPN3tFm62i2dTRb25u+p7XR0tJgbG0wtjaYW1rMLS3m1gYSU0u9qbmRxNjUYGyuIzE01eqaarWNNfoldA3VuoZqbX0V+fOWG2AUAOZmwi+9eHY9Q0e7S5f2C8262ImUWD0jXkeP09DiNbR4NT1JxUhS0pMnqYmTtLSLjMSRdWu01FUOauoJCvX1rM2R4P8zmckfeSDoPMACRMMYAKARR2vL6Y0MW00lTF4EPAIYLCAQBAxg9rudg0r6L7WMVaa0xMuMlLcfvR9UVwAiERxwAqIRmAcAq8ryxK8sianOjp6FmxdvRgEBArv+GKTomZNHH9igoa7Wp92lpqyaZNBn+obhJzYT/w96LJ57tHigEw444HPh08e+fOP3j5y+/+4JetIUY5V27Ro9Lc762IN4iQB2Dkf27px5YW/gpf2BF/YFX97nfW2v9dXhuYO7Zg/tnX5pX/DlfcGXD4ReOjDzwv7ZQ/uvn29bnnVbYYV/mKWPve8JvHgo8OKhpRfYil7RK3pFr+jboG9/0JVu/kdGPBB48YD/hf3LBF7YF3hh39VZWf+hff5D+3wH9/gOkinZPddkaL3Lydi9u317llOyw769w+TyY/+eYf+eYf+endcvP/bsHPTtGPTtGCSXHC9nZX3DA/6hAf/QAGlrfcMD3qF+71Cvd6jXOzjgHRzwbu/ybu/yDPR6B/s823s823vcg73uwV7PQLe7v8vd3+PqI0UXaW4XDW1vh6unnTS07p4u1/fmtsPe3bHkbNttXe2kuXV2tjs7262dLdbOFktH8zLm9qZlLK3NltZmS1ujpa2R1MvmdtHfttSbm+vNzfX65jp9c52xqcnQ2GhoqiXRN9boG+p09bWLNFQvo22sUddXaZfQ1FUuo66tuOUGmEABA4BS8eX1CUoaTZUWp6bGWFLWqNJiRp96+ouOrleKhW/++ckPHrvnEi3eRPulkrHGmho3nh6rY8SPpcWoU1br01LwvOcBx4DAAAOIAgowjwMGECYP+EEBUBxQFNAIgUdRLAyAzwEQKACOY4DM4nMIoARBAA6AAGCL1ZIIwFE0imMIEPjyccQRZOnk2DAGOEQBcGyxFlcUYAaIKACggAOGA4ECRAnShuEEgWGAz8ACjqMQBRSDacCjECHrP5PHFpEbgDFAAQle3pr99e8fDUbCgEYBQ1AcIwgAHCKo67v8vMnUBM16mjLlv3TU2MNZmRD0IxAhfWwYYAEAFgJukezTtPXaT98AfB5wABxHILr49KLkqnEEECIKgEAUMBTHIigAigFgAEPd59PSjOk0Lf0uZeovrlAo1olTEMUAIigeAQDAAaIAEQB0yWcSgOM4QSxWJMMI/HbUJkMxIHBYWvNMAE4AgkEEJ//uOMwDAdgcXDgVKMzVpiZpaavVtNUTjORv1zO+eeJxo1Qc3D3semHv0izatVy//+HHIbdMBPbvJvVVmyh2TR/aEzywy79vV+jg3tlD+2cO7gvtu8H+itvFrhsyu393cN9O34Gd/kO7/Yd2+w7sDO7bObt/983amdm3J7R/j//AHu+B3Z79u3z7d4f275k7sC+0b+8Nmd27Z2bfnuCBxff0wP7dM/v2zO/fd7P2Pft3+A/uChzaHdi/M7B/5/SB3dMHdof23/jJBw/s+veN561ieX43tH/Xil7RK3pFr+jbom9/0JVu/kdFvCYTu6zJTOz03t3Te3cvJWZ3hfbsCu4eDu4eDi1xVWJ2MLBzILBze2Dn9uCOgcBwf2B4MDA8GBju9w/1/ZAB/9BAcKiPJLC9l8Q/2OMf7AkMdAUGuvz93f7+bn9/p7+/09fXdbX29XX5e9sDfR3+nk5/T6e/t93f2+7raSN/+nrafN0dvu4Ob3ert7vV19NGChJPV8sy7s7mRTpaXe0tro4mV0eTq73F2dbsbG90tje6Wptdrc2OtgZHW4OzpcnZ0mRvrbe31tta6mwtdZaWOktLna2p1tZUS16xNdbbGuutzbXW5lprQ521oc7SVGNpqrHU11rqay1NNebGanNdjbmuxlRXaaqrNNdXmeoqjfWVxvpKU221sabKUFdhqKvQ11Tqayr1teX62nJddYWuukJfW66rKdNXVegqy7XVJZoqhaaqZJlbXwSLAAA8WJAxmh6vpVFV9Fg1NcZEjbnAuHOmpg7cLvC64LvviNdf8+ezz6dSx6hxdkqKhhavTrxLuTbeQE+coMRdvofqmRwDQADD0SgxDwCAw/wcINMRmI9CZB7CYUDQpVJTQAAKYcAQAo9EwrNkhpAAQDA0smhHcRSiOIQBIgAIoBEUAEFxwFDAESDmcZiLwkIYFgCPEgSBAqA4BmgEYAGweYiiANMQDQEgYQA8gpHLiwkCiwCGoYCh5GLjCGCzgC0AFiUAgcg8ABJBwlEUAWRhsrx6fmdXFAAIFPDo4pPH8Khbc/zJ3yupSSpGip76SxMl4VSlAkI+FBDAAQCfIesbR+fmduzRciWhb76GMBIGwHGAMA4IDmgEiJkwzM3BAhAQiITnAQccBwKPAj4PMAfEvEJ4gU5VUeLV1Dt0abHK+x9APBrAYAElMIAIhmMAYSKMAUJABIc5DCG7BDiOkxWYidtSnDsC+AJgCIEvvpaiGEQxwAADWEDwKI4BzBk+ffP9p39z5u5UFSNBS028khI79cBGX14G3lgLO4bRvXsCQ8PB3TtvyNLs2t/LYmGA66/vGgrsGgrt2TG9d6d317BreNC7azi4b/fPbf9fx/YbQj5P3+6hwN4dgb07fLuHyCtL84vXsXM72S/y/uDu4cCuId+OwZuNZ2Dn9uCuoeXVOMHdw8FdQ/4dgzcfzx3+PcPkjKZ/z3Boz47AriHv8MDNnv+/bzxvNYvzuyt6Ra/oFb2ib72+/UFXuvkfFZH80kIWhfpBIagdZEp2yLdjiMzKeoe3e4e3e4b6vcPf52OvzcoO9Xu2f7/k2DPQ61laaezu71rSve7+Hm9/F4mnr/MH9LR5eto8PR2eno5l7e3tdHe3urtb3d3t7u72RRPb2ebpbFv2sd972o5Wd0froqHtaCLdLAnpZq/G3lpvb2m0tzQuOtvmBltzg62lztpcu2xoLU011oY6W2O9ubF6GUNDlaGhylxfZa6vMjVUmRqqSHO7bGhNtdWkoTXWVBlrqkhDa6iuNFRX6qvLltFWl2qrS3WV5brKcm11qaaqRFNZpqks01SVqCsV6opSdUWpulKhqpCry0rUZSWqCpmyXKosl5FMlUlvfQYYANCI7re/nmDEGKg0NTVGRY/V0WPObYxH9u8FNBIBwIkIBpGox6r86sPzj957ISXetI6qT1mjpqwxJcXqqUnjtPhLPX0QCQFCAAJhwFHVFHLopZmXd8+/MAQH98KBF+0vvQwLQWzBA343XBqHj9+CQ6/7TpwGAlAMyNOH5gAFfAY3qYivjsGhF5DevtmBAfTdN+HiOfDZIeSFY8dm+gfx5jaoa4KWNqiqcg32wjenQDeu2juEN7fizdUzjWVoVQUuq4SKdvzdw4AhZCoySiaGCRQwBKJzMDkWau+E7q5wUwM0tUZaK6CpWbd3GDOYAAMMBZiNArGAAQCB4lg4Qta6RhHs0tdfbLxHTU9SpiSY6asNKUmq1w8Ss9MoIEAARBECwwEFAhACCQAaigIaASAgjAIO4QhMTIbffR17eR8c/QguXwJ3EFB8DgAnAFCASBQIBMLzxj/9dnItRU2N0dJWTzISNX/6K2AhIAADiABEAObm5lCHPXzqBPLW6/DKQa/bgyEoABAEsWyAMeKWn88cxlECAAgcolFAMTJRjwGEMQDAQa3ySSuU6x+YTKddpsTo6HFn1jOUf3nSJxfM9TbN7Orx7ez3DQ/4h7aTM2fX47vu/ejH8e8YJFl651rcNRHcPuDt6/EO9gWGBz3b+zzb+/zkm+DPbP9fR98N8e8a8O/oDwz3L84gDvf7d/T7d938/h2DwR3bp4e3B7cPBLcPTA9vDwwPeof6bzaey/eHtg+Errr/Zs8ztDTHGRjuJ3en+Hf03+zJ+Ib7/n3jeasgB5YchBW9olf0il7Rt0Hf/qAr3fxPihgaGlzMxG4fCG4fWE7GBrb3+ge7/INdgYGewEAPmX0ls7LB/s7gDzOxgd6u5Uzs1QR62v3dbf7uVn93q7+77Wrt62r1dbX4uloCna3+jpZAZ4u/o9nXTtLka2/ytzX725b0VfjaGn1tjb7WJl9rk6+lwdfS4G1t8LY2eJvrl7WnpX4Zd3Odu7nO1VjnaqzzNtR6G2pdTbXOxhpnQ62zodbZWONoqHbW1zjraxwN1fb6Kntdtb2u2l5fZa+vstVX2UhRV0lira1YxlJTvoy5usxcXWauKjdXlZuqSk1VpabKMlNlmalKYapSLF6pKDFVlBgrS4yVJYYKBYm+XG4okxvK5Poyha5UriuT6cpkulK5tkSmLZVqS6XaEplGIdWUSDQlEo1CqpZLFnWJRK0QqxRilUJ8WwzwTHBsLUNHjzFSqGpqjIqRoGTEnriXAkc+Jj0dYDiZuY0GA8Rw34l71mupyUZqnIYWa6DEq9amTKQlvr9tCzJjJ8s4edHQN9s7jj/8wIcPUz94MO2LB+49du+vzjJ5YDddevOFVwvzXnnsN2/8jv75gw9dOLgvEkUXAAAnAInAQnDi1Rc/EPAOPXT/4Y13n33wgS/uvfft++59/bFH9pfwQp++P9FU9cpD9x5+YMPnD2747P71Xzyy4a1f/Try6WGwa16VcU7fc//X6ylfPUQ5tTH1oweSP39g3WFuLhr2AgaAAYoB4OgcWfdrIXS+tvazBx/7ZOO6jx9af+yhDefvo3519/rDLRUwN4MjgKEQAZiHMAEABIIR0TBAlACLYwplAAAgAElEQVTAIugbr51fm65JS9SmJpmoMcqkJP/4OSwyjwJKAEBkAQh0aT02hAGiOLlQOQhu4+dtDS/94fcfPPnEuw89cOT+h9957NdntveBSjkPCAoAKBAYHgUEFoKjaSlKeryKvsaQFncxLcUtLwFsAQOAMECEAGQOm/jutW3PvvGrR9596L73Hrvf7XRFw5HFvylBAAAOBIrf8urcC0DGwAHDAQADQAmIRmEGIkHH5GeigjN3041pqaNJd+nSU80JScas7IXqSmJ7b2Cw09bT4uhp9/d0z/T0k28617M8l/Z34luqAbA8/eYb6PYP9gR6e/w93f7+Xl9fl6un3T/YExrud/V1/tz2/3V03BBnb4enr9Pf0xno7gx0d/p7Oj19nc7ejpu14+rr9Pd3B3q7Ap3tgc72QG+Xr6/L2dvh6+u5IZ6+Tn9/d7Bn8f5gT5evr8t98/Z9ne2+7g6yWW9vp7u3w9XX6Rnovtnz//eN5y2jr4csI+Fe0St6Ra/oFX1b9O0PutLN/7CIi3nX3m5Pb/cPk7Htnr72azKxnp4OclGxu7vd1dW2uKi4s83T2faDRcVkSraDpMnT0bSs3e2N7vYmd3uTu73R1dbgaW30tDZ6WhvcLfXulgZ3CynqPc0NnuYGd0u9q7nOfRWuplpXUy1paF0NNe7G2sUrDTWuhhpnYw3paa+lvsZeV+2qrXLVLhna2ipbbRXpaW01lbaaykVPW11hqa4gPa2pusxEOtsfsmhoq0pNVaWkoSWFobzEUL5obvVlCn2ZQl8u1ZdLSVtrKJPrS2W6siVnWyrVlkp1ZTJdiVSrkGgUUtLoqhVitVyilkvUCrFKLlLJxCqZWCUXKWXFSqlIKRUpZcVTUiHJpFQ4KRXe+iXQaCRs1I6nJJnoMTpKipoap05LHKfFvvfoemz8UgRgDiAK5FpWgAgCActJYd5FevIEI0abnmBOSdTSkwyJMR8//BhYVECQG1OD5zgFyqSksbTV1rSYSyl3XLyfvsDNsz/9x/G1DGVKgjZ59VTK/6dMYlg/+Wh+diEKAOgMnD6tzhFM0tImkpNUKTEm+moT4y4N5Q4l5S41I2EiNdm0lmGkp1hoSSZavJa2Rp0ef4Vy14uPPEyMXgSY++6NQ+foG5TUpIn0NWpGgoERo0+I/fzR++HKecAAi8ICufIaRwCdnnnz4LkN6zSUhInkXyrpd6ppd55jpJz401MB80gUUBwBwCCMYhAlDzjGCUDD5BJoIhKsqJpIoyrp8SZqqpYSN5KWhk7bCQzHAEUBABAAdBZbzIBGF3AgIIzMhof2nH7w8ZP3bPzwoQfPDndOT34zxmWfvXfjmfS7nQUCmPPiQJCZZwQLB89+q6YmaOhrVIzVRkbCyfVp2KuvABrBMAgBwEIYjrx37pH1k+lJ5+9d+/JvH7u4dwiNIteseL49S6ABAI8iZOJ3DtAFcjd2JAoffzj6uz9pkmn61Lhx+qor65K+/dW9gSrpbFvrbHeHr73Z0dHkG+j293d7uzr9XV2+rtZ/IUvzcIs60NPu7er0dXcF+7r9PZ3O9kZ3Z7Ovp83b3fKvjfvP4+xs9nS1+Lpag11twa42X1erp6vF2dlMzilej7uj1dfZHuhs93e0+Tvagl0d/q4OT2fbzdpfvj/Q3hZo/+n7A52tgc5FTX4MeLpavN3//oG6bSyNwOKc7ope0St6Ra/oW61vf9CVbv6HRfR3NPs7mv0dLf6OFlJfk4kNtLdcnYMNdDQvZ2LJjCuZifW11Pla6sgErLe51ttc62tp8DYvam9zvaepztdU42uq8ZHJ2Mbqa6mv+hE8dZXLuGsr3LUV3poKb02Fq6bUVVPqrS3z1ZV7ako9NaWe6nJPdbm7qmwZT1WZu7LUdRWOqkXslSXOihJnRYm9ssRWoVhCZi2XWsvl1nK5tVxqKZPYSmW2UpmlTGEpU5hLpeZSqblUbi6Vm0okphKJUSEmf94Qg1xEopcVk2hlQq1MqJOKdFKRRirQSAVaiUAj5i/pYo1YqJEK1BK+RsxXi3gq8SJKEVdVTMJXCnlTQt6UkHfrDfDCjO3r49qkBEtajIaaoqLHq+lJk9TYz379azCZAAWI4oBFgUCjgAOGADJrfWXv5Pr0cfoqVVqcKiVu/O4UPSP+7UcfRIwTUQAEwcBtOPqHx5WJceq1McaEOO3d9NP02JGH1o+kU3TpVDVljW5dnJ1+hyVxbeDSORwIwCJgV76f8bev1q03pqRYaBQjNUGVvEqZcqeaEaNalzCZHqenpuqpKVpqooaSoKcnG+kUHSVFl0r56LePg3EKiHnCqjp/3wPa9AQV5f+q0lcZqKv1iXeefIDh2z1EAEIuHobw3AwAeC1fbH7uEo2mpaUY11IsjGRdSuzFtffBa28ANosDFp6PEADzOJBFrcgSWwiQnnLW8tctSnriBCPGQqdNUOImf/8UEPNAAE5EF4s9o5EIIBhAmPSk077jr/Sff/BXE3GUU49sgAP7YDoUxmfhtde/Whc/nh4/snZDYPQUAE6W45qHhclXXjWlJevSYnVpq7WpCUfuWQ8XzgAWBRwAkPC5U8ee/M03tOSR+9d6KmQwMQJBH+l3lytgwW0rgoXgsIACBijALIEARMBnM73z2nuPp19aTzUnJVgYyeOMBOtvHsfKS+zNtfbOJltHo6WlztbW4OxstrbWm1rqHV2ti4s9/kVc/RZG/tPe0WZpbba0NDjbGz0dzd62Rm9rnbe17l8b958n2NHqbWtyti7u4nC2NnjbmoIdNx0fcsGMu73J1dbobG1wtjb4WpsC7S3elsYb4m9t8rU2edsW73e3NPham4LtLTdr39XWSOJsbfC0NpKfJZ7Wxp/br/93IedxXW0Ny3O6K3pFr+gVvaJvqb79QVe6+R8Wkcy4Xp19/YFuqnc31f8g+3od7kYyAVvlaqgic7CkJrOyroYqZ32ls77aWV/trq901VW4yWRsXYWztvxqXDU3xlldtsyycXVULVpZe6XcXil3VspdVQpnpdxZKScNraNcQWIvkzvK5I4yuX0JW6nMUraIuVRqLZFaS6RLtpZEbC4Vm0ulphKJqURkKhGZ5WKzXGxUSI0K6ZKhlRjkkmVPu4xOKlxGKxFcjUbMJ1FL+CoxTy0SqEWCq23tVDFnqpijFPKmBNypYs6kkD0lYE8J2JPCRSYErEk+CWeCx57gc8Z57FtvgOcCl146ZE5KMKatmWKkKunxGlqihpb4Sc42fM4PBAACEEWATAFH8RAg0QsnlelrJyl3aelxRmrSaHqiMXnVO488CAYVAQAYwMXzn99/jyElSUuJ0dFj9JTVFnqchrpatzFxjHGXkn6nNuWXU2vvVCetD887woDClPLi1q2jFKojKdVA+4WevkrPiNEx4jW0WA11tZ6yykRbZUxeZWXEmRlrNLRfauh3qWmrVNRVhvTE9zMzwOedBwACTEzxSBpNnxyvZlDG1yVq6XEjGyjmZ7ZhCx7SW0ZhHvwuR0fbd2l0EzVGl7Z6hHbnxNq48fQ1X7R2EbPTEYBZHCMARYl5wBCILta1WqyahUJ42q7e8LCaETOettpISR1PS3GK+YAjgANgUXKD7uJ2XvLw35k56N5+Zj3jbFrShfXpE5/sg3CAIHPRvYNf3xNvSF+ljk9WH30tvDAHEQAEgxnXpKJMkxKvoq9R01ZpUhI/feo3hEMDgBKzUdg/9MF/P/LK44+eaagEq5KAaRQQgsAwBCWwxfJX5APFMfzW54AJIMtakyc04WAx+LvbTty70UCJnaTGjm+knN9AVT37+5lahb+2fK6+1l9XFWyoCTXUBOqq/DXV/ppqX221v67W01B1KyDflZy15arGWktXi6Wj2dhY7Wyq9bXUeRurPXXltyjuT1Nfc0P8jXX2+ipzY5Wpvc7UXmdurLLXV/kb627Wjq+2xtVQa2+tt3U0mlvrTA1V9toqf13tzdon73e0LN5vrl+6/ybt6xoqbO317s4me3Otta7S0VDtaqhx1d70+f/bxvOW8eNztyussMIKK6ywwv98rs61klnWqzOuV2dZF7Ov1eXe6nJvdam3elF7akrd1SWeqjJPVZmnSu6ulHkqFJ4KhbtS4a5UeCoU7nL5zXCVyVxlMk+pwlOqcJZKnaVSd4nUXSJ1l4qvRSFyK0SuEpFTUeySF5PaVSJyKSQuhcSpKHYqip1ysUMmsssEDrnQJhfZ5CKbXGiVCezSYptEaJUJLFK+TSK0SYQWKd8s4VnFAqtYYJbwzBKeTSywivgmMdck5lpEfIuIbxDzDGKeUcQziniGYq6hmKsXcfUiLqlJTEKuScjVCzl6IUdXzNEVc3QCtk7A1grZGgFLy2dpeEw1n6nmMzU8pobHVPGKroOl4rFUvCIlt1DJZSq5TCW3cIpTMMUpmuIUTXILJjj5k+zCSXbhODtvgpN/Gwxw6KveTmtyoj7trsm1qZOMeHVqvIGWfFkqxqIzYQIIABQLEwB+WKzABKOXDClpOuoaLSXGmEb9hhFjoMe+9cSvwWZaAAIICH34/mcb1mnXUifoCTpqqoaarKIl6mkJ2sQ1ZmqylpKiSqdPpq22PvDbWZjBIers3Xl23d1KaoI6PVbLWKWhr1FTkrQUmpaapqXSVbRkFT1+gpE8TosfpaxRpcVo0mKnqKs0tFgtPe5CpRjmPBEADA/DSy+eW5tgpKyeXBdvSEmyJMVpUuLVlHt8jinAIYKhGETCly98+PCvJykpGupqLSNGv5YylhQ3+9gjqMNKAL5YYAqNoIDAPDoPsGiAURQwgFnEaR6fiE9Tr109nr5Gk5I0sp4S6WsDDAUMAEfIZc9kUS8IIzMAYyc+O7Hh3sl1ser02IU/PwtzDhQAQ4BAZwIs7tfrY8bW/1KTTJm5fByLhAEFAASfNxzd8lcdI1mdHqtMucPEoF0oyoGoe24+OHLqzNlH137+3w/Aq6+A1QlLZbLJGtfLVaDJPyx5LtGtfhB4BAAiOEQBkEDoYkf7J+vSbKmpDnqcirJmai0dyciEijJ7ldTSWOKoL3FXylxVMvLNxVFT5qopd9dWeaorbzZD9nNx11ZcM8Fmq1BYymTny6SBvUORF/aammrUJRJLVYm7tsxXU/avivuvwlNZ4aircve0hPYOhPYOuHtaHHVVnsrFxTDX46us9DXWBQY7p/cN+nf12jsaHNUV3oqKm7VP3h8a6JzZNxjY1ets/4n7jW21gR09kX1Dob4Oe0O1tbrcXVvlra/5tw/UCiussMIK//GcL5UekYqOSov/eY5IRedLpf8DI/4v6ea/PeKRqzgqKT4qKT4sER6WCI9KhEclwiMS/hEJ/4hYcEQsOCzhH5bwj4oFR8WCo2L+ERH/iEjwjUzkqJA5KmTOcoW9VOYoEzvKxKSVdZRJ7aUSUjtLpY4SyTJ2hdiuENvkIlI45VKnXEpqh0zkkIkccuEydpnALhM4pAKn7HvtkApITRpam5RvWzK3VgnPKuGZJQKzZNHcWsUCyw/N7bI2F/MMxWxDMdss5JqFXEMxWy9kGQUco4CjFbK1QvaioeWztHyWRsAibe0yeh5Lz2Mtm1s1n6nmFqm5RWo+U8UrIjVpaFWcQhWncMncLjLJXjS3k+x8Uk+wCiZYeROsvAlWwTgzf4yVO8bKHWfmjxXljTJzRoqyb70Bnp05mZehvjtFk7RGl05Vp8bqU1bpGfEju3ZCdCYMCygAYECQGVAMiAUInTo2tpYxnvh/9OvjLbQUDSVufO3q40wWLPjJU3ChUnRxQ4KGkjBJpyjTVuvoa2zrU1Wx8a898/i3w11XPvrg/DsfHJWVvFvRgMzPgFljYjyoT435bsNdztQYT8ovJlOS33r2mfMvvRq4PO66fEn/3ntvZhReodGNjDgT7U4VPV6bTlOnrLatTRxPjlFt370AIQwigEMk5H/rqb9o6DQN9b80lCRLWpw2+Rfj96TbBvvnZgMBwGE+Ov3nJ8bS6VNr00wJq02MuyypCR8+8MDsN+duPkDINJAH/KAEHvUc3D2elqyhrtLS1ljoCe+vXz9z7iyBzizaTyKCAkZOE8wDAl8fu/TQ3SNrE9X01Pceuid04gvAACEAYBY+ee0CPcGYnjhCTz8jZhHzAQIQQIDAAbTKwxvuV9GSNekxmsQ7LNR7LuzsA6cJ2nvO30c9mLEVtCpAIyhGnv2LEgR2y0tdAcwtHWEVhmgEUAIWT2YGAp2DCBARUI44cnOnqMkORtIoY81pSvLUk792c3PdlUJbZbG1othZLvGXy7ylohviLi2+IZ4qgbNSfqJcdmnnrg8G+z/sH3hzoOf40PC4nGsqVUxXNrjFUk+l2F4vtpQIfcWy03WVn2zv+nig75Purs8G28931p8RCb8slxhdViAAojhM+86WlRsV0oBcGlKUBEtFboXIXS4n15O4y+WeEnGoTDxTyvVXiEMSybxc6iov9laLfAqxs6zUW87xlPJ9JcX+coW/rNxbovAp5AGFzC8rDZWWehXCYJXYWyF0V4htcomnvMJVwXHXyZ1iUVCucFVIPZWSQInEVVpqLy/2l8vcpWJ/hdhWwkLqy71Mka2yw3P4M3D6MARHASI4AAaI1a394PWxMrFDIrYriv2lopkquV3Gm5ZLXI0V4Q+PwExoHsIQXgAECBQCIyPGoV6PuMQkk5rLZfYqqadEHBbJg8Xl9vbeyImzMOObR+YwFCIRIABmJ8f127dPKsTuEvmCXDRbwvWVcj2lCt/w7vCFS4DNAYYBucGdAMPZU6r+PquszF1WGZJJQ3Kho1RgLZe6FAp/WamzXGKsFThlQn+5wicS+MpFtmqxTyL1isqslRJPRalXKp8vK/XKud4Kvr+6zCGv8JaLfxa+atm0XBEQlXvKarw1FZ4Ssb9E4ipTOCpkxmqZvVzqLZU5yqTBMsWsXPqjTUlvTJn8GjylMk+pzFMm8ZRJVvSKXtErekXfDl0q85TKdnBYzIJ8kYAvKRb+8xTzecyC/GEO88ZBb3/E/yXd/LdFZP7rI7KK3FLhMi6J4Go8UqFbIljGJea7xNwb4pRwnRKuU8T5HiHXKeQ6hWynkL2kuU4h1yFkOotZjmK2o5jtELAcApZdyLILWQ4Bx85n2wRMm4BpE7CtfJaVX2TlF1n5LCufZRMwLbxCC49p4TEtvEIzt8DMLTJzi0xLGDmFRg7TyGEaOYVGTqGBk2fg5BnYBQZ2gYGTa+Dk6ln5y+iYedegZuaqmbm6olxdUe6y1hbmqIryVEV5qqIcVVGOsjBbWZitLMxVFuaSeqogZ6ogZ6ogY6ogYzI/ezI/e6Igczw/YyIvayIvazQ/YzQ/Yzwvayw380puxkhe5q03wD7Pkb/+fpSyRpsco2Gk6mgJJnqsbm2y/p23ITodhcjiqmYUAAfAALDoeHvjFDXVcHecJnWVKmGNlhrvoMZN9Q8QyDRZA2s6f8ultXE6RqKSmqyix2tSEk8mxjmfy8C//gzsJliYg5kw2O1RrR7w8OgLu5RJ6ZrUVRfS7jAnrlFR4lVP/xXOnoH5+YWZIAqR6LwnbFB7C1kXUmLNlNXa5Jjx1Hh1evwYbfXo3RTn+0cQmMeIKKCAIvOqjvZJBt1E/4Wakqyhr9FQ7jjPSPiyIBOCTkDnL732uio1cWod9QI93pKyxpi8aiI11dvXhwfcNx0fAiHXVxM4CuGZkZrycXqSgbpaQ11tpMS+/9DDoFQCLCxtuI0AgeMEuQh61iARXlybrKTHa1IST//+t2DWAOBAwNz4d+e2bZqgMsaSk89tzUDPHQeAeWQBcMAAwp++99V9d6tTEyfS1xjTYrVUuvPt3eqXhk6uu1v9yIbpi6exGTcBACjAAoIAtgAo3IbdvgQQi3lmHNCl45kJWAAAQMCs+6wo48zGNOW6FHXMnQZasvnJ3/kyNs8K2SG50C3jO6QCt0TgERd7ZTfGcxOsUqa1VHyquhSUSpgOwPw8Nh+EUGCsUjoq4FuKpQ6ZxF7CN0lYvtrKi3mFznfeA5+fCIUgGgWP1Xf0/U8FHMeeHUAAOocBBoBHLtTWahUSi1RoVJBRxC652C2XuWRSp0zkkhS7JAJtCddQIbFIJB6Z1CTjOOQ8r4Dnk8j9imKPXGCT8k1SgVFRbCmTmEvFRkWxparcXC4zKwSu8mKnnOdXCD1Svk9abJEXWUuLXWKpVyo1KPh6Ccsq4jtLSl2VYnsx1y/hOysERnmhnl9g7e8iVFcAnUejGOAACALzOLEAgBKA+WYmvr0klppkIkspx1rCMcmF9qYm0I9GIDxLFuJGcZjFcRRQAAS86hd2fC1kW2XFFl5hUCExlsid774O824EBxRFgUABcJyAcAQDHGB++sLeHZc5An+JwigTaEsUsx99DCEfeS7XQjhKEEAsAB4hgEBhNji1b993XKZdwg8puA4Z01lW7JIUu6VCi4xjUXB90mKPosQtFlvlPJ2C7ZEKA4pSs5zlq5A4pMV2CdddxrWUstTiImOJ7JrPj5/EpCiyS/hOudxQJtcoeFYJ2ysT2CTCaR7bVyL0ijiuYo61tNgi5bskxSb5tZ9PP42Udw0/mKNd0St6Ra/oFX0btEx0UcRnFuRXV1bU1VT/OPW1NW+8/lp9bc1P3lldUc4syL8outEb+8+J+PfzYxF/Zjf/NUFXIv5zES/w2fZi7g1xLGEXcpZgLbNkVpk2AdMqZFqFS5pfZOUX2XgsG49l4xXZeEVWLvN7eAU2fqGFV2jhFVq5hVZuIWloLZwiC6fIzC0gza2JU2ji5Js4+SZOIamN7Dwju8DILjCy8wysXAMr33CVp9Wz8vWsQh2zgDS0Wma2lpmtLcrVFuVqmVlaZpamMOca1AXZy5CGVp2fpc7PmirImirIIjVpayfzM6cKsibzMyfyFs3tRF7GRF7GeG7meG7meO6W8dwtYzkZYzkZo7lbR3O3kvpK7taRvG2jORkj2dsu52y7nLPt1hvgyYl3H71vihZnSkuepCZqqDGa1FUjqTEO3TiCzoajC6TvRYHACBTQCExcPPfY47aYeDVtlY66Zmpt8ndrE5TJa2YvnMfwMEIAtrBgePzBMdpdurXxKkq8mprgSN/46W+egMNfArIAOB4GAAIAR4BAwO94J3+bjko3pMVNrou1pCZ9+NC96NljgM4vHniLh4GIAorA+MVP//zrybXJ1jSKKiXOQo/Txd1pSqXOjkxgECEABwxQQOHi19+uSzOn3GlMoRgpsVZazDgt/oP718Hxo/DFkXee+v0VepIuJfby3TEj69acW5t4OmszeE0Qvfl5uRgSJRc1Aw4e++FNf52iJZlT16gpqwyU+E+eewacLiAiKI4RAEBEAcUJggAsSnxz5kT6ulF6opGRZEhJcJSI4PP3kLdfgfZ2w1O/O5Oc+OkjGz+qYkZ0KoC5OfLgXARwIjLb13R5bbKSnmimxWsSf+lIih9n0K5s3HiWnhrKfhoQF0CEwAEwwHHAAEcBReGWn/cLOI4CLACBEIsrrsMAQQCIYHD87KVf/d5KX+uIj5+gJ1y6lzb65INuTqFXxPFIeTYp1yTlmWVCk1xolPAdIsENsUuENyRYzHWIij/KyUZOfA1IZLEmWSR6sa/xBLvIUSwJlSq8Io6bw/qOyz6qEEF4htzvDRiA3vQChzWc+Zz11f3kIu0IwMKc68OCfKNIYGMXeWRik0xkkQqtIq5TwnVJeTYxzyIVmmQiu0xgk0icQolHItPLOaZyvlUmsMrENonIJBaaJTyHnO+W8V1irquY4xELzMU8m0Rol/CdMr5VzLJK2CZpka2E4xQzXRKBXyxxCvn2MqGzotgjFbpEEr2Y6RJzg0KOo4znkPMs5SXIxDcozKFAoORZykQ0gkQJAqIRHGAWARh59bVz2dkmeaGjjGMuUSxc+DZCvuwJwHCA+VnAYRaFMACOISHn1AcitpZTREgkzkK2aWgQ5oPTgBJhABQAQSCyADgszKOAAswCoPOfikUaNtsqlwdeeQOC03MACwAICgQAhiweJDYLEEaRaDBwmJt/mVfolrIdojyPnOsR8zxSvlXBdsp5rmKBpVjsLimxKfhmOcslYrv4HK+4yC3meGTFVgnPIuNYFWybgudUFDukPw+3tNAtZLklAotcYBUXzYi5syKBQyh0yPmaErZbxvPJBRYFzy0R+PnFvmLpz23fIeNeg1PMdy7N467oFb2iV/SKvg3aKeZ/xmVJioXNDQ0/Tkdrq3JqCgDUKlVnW1tzQ8ORjz8+dfLkqZMn33jttevvFwsFx7jM64PeMOLO4eEvP//8+JdfHv/yyxNffXXq5MmvT58+e+bMN+fOnf/mm5uxf8+evyfiDbvZ1d7+4Qfv9/V0X3ul+/srbc3NH77//tDg4NVR3nzj9QP79v1j3WxuaDh96tR3Fy+OXLly8sQJsZBMexZLRcVSkUgmFtVWV3e0tVaUlmAoiqGo0+Ho6+n5hwf20P79Y6OjBr3e5XKZjMaRK1dOnTz51htvtDY3L9/T0tT0+quvnjp5cuTKFZPR6HK59DrdyJUrB/fv/4f7+M8jFgo+ZRXY+czrsfGKnHwmiYNXdA12bqGdW2DnFti5hcvawSlwcMiLBU5WgZNVYGfn29n5pLax8m2sfCsz18bKs3HybZx8KztvGRsr38rMuxozM5fEVJRzNUZmrmFJG4py9IXZV6MryNLmZ2oLMrQFGVdrTV6GJi9DU5CpKcgkza06P0Odn0FqVV6mKi9TlZutys1W5mYsM5WzZZnJ3M2TuZsnc7dM5GwmGc/aMp61ZTx703j2pmU9lvX8WObmsczNI1mbR7I2X8ncdCVz05XMLVcyt9x6A3zq+NEHNugYiXp68lhKnCEtQUePm1hHjbh9OA5RAAxgFsVnAJ8HBMNmLtVwz96dpk+OV1FX6WlxBlrqFDXV+/h/w/w0RqBRnMCsjglGsoa6WrMuVkONUSs9VkAAACAASURBVFNjTKnrTypk4AnMEXiErJZEwDyBo4CCdvK9/35Yn5I0lXqHKi1OlZz4xR83gc8OBCAozAFgBI4BjgJAOHRRwhujJVkpyTpagoa+RkWPH09Pj/qDGIYAAOAQBhxCtonnntamJigpqeq0RFX6GvV9qcfvo3mqRSZRwVf3MPQMijM5Rk29Q09PPPfQQ/DV8SigP1YrCsUwcu03oKAcffPhjVpaijl5tYa6ykinnKssheAs4FEy6UvgEUBxDFCY9YwoZOOJlKm0BCM1TktNPHnPY289/PDHDz10gkYb37B+Pi8X3bsHbFoCgABkJgoYACxEEZj1Slmj6fE6RrKenqhNTxin3KlmxKlTYjSM5CvrUkbffQUW5gBgBiAKAARO4NE5YuGWv04QFAgcRVFys3EYxcLhMGC4+9vjbzz3h0sb0tSr/q81OXEsnWp86gmcz3RLeB4p3yPmuYp5bhHfLRU5ZSKrWLC4e+HvxiPl28ulHxdkXdq9MwxIEGAeIIpjrs/e/6Qo3yURG6Vsq5g1Uyw9kp3rPvk5CjiGgw8gAvB5b/+hjK1vFmw7zWNDZBaISNBvfutAz8c5m0bY2a4SoVkicMpEdiHLI2AFBIWhYqZXyLYJmE6ZKChle4WcULHIW8y3SzkmaZFDyrMLBE6pxCET2WVcp7TII8r3iAodYqZVwnaLWR4J1y5kOsQcr0LolvHtQqZXxvfK2TYBMyAXe6R8k7TAIM5xiNkukdAl5QVLRV4h2yVg2gTFc6++AQgSwWE2ggIO83aX6uyJaauFQCFKwAKEoyjM2ZwfbN2qYmU7xBxbaxugyAyQwwGvd3fV/PY3+/gCbDocwQEWooChn/d1frltU5DFtshLcM3UHEHOZEFoYcakHlWeOQkIGgaYBwCEwLHI2f0DZ55/2iyVgkGHE4DMoghgUQD76Jjx1NcQWZgHLAqL60G+2dl/jJ1nEbM9ErZbzPEW890SnlnOcUu4TrHQJBJbxWKrkOmX84JSrk/MC0olLpHEIpGapHKbQuEUi2ZE4nmu8Oe+HnwKjkfAcvLYTgnXJ2aHirlGHl9bUzvbPWCqr3ELhHMSsUlQ5JMK7MV8p1x+06bIvTTXI+Vew7/9i+CKXtErekX/b9NOMf8zHqtEJm1vbfkRhrcPOp3O5e8pbpdrx9B2h8NB/vPK5cvX/4pCKjnGK7o+6A0jvvH6ax632+fz+Xy+UCg4Ozu7sLAQjUavLjh6/ePDD97/eyLesJtvv/WmwaA/evTI8pV33n7LYNAfOfzx8pUXDx00GPQnTxxfvtLf22Mw6MfGRv+xbna0tY5cuTJy5crE+PipkycK83Kv4dinnwKAkMdd7uOpkyf+4YE99tlnAGC327UajdlsCoVC5Akm8/Pz354//8rLL319+vTM9DQZaGZmxmqxaDUau90OAMc+++znRuxoa/369KnpUAi5+ePokcM//kpbjvgp+6YG+Eam92quNcCk3SXN7ZLpzbOx8uxFeQ5mPmmAySuk6bWwcpdZ9r2WolySmxlg0vQaC7ONV5neayBNrzY/8xoDfLXpVeZuVeVtW7S+eZmqvExlTpYyJ2vZ/aryMpW5W682wBM5m5bd7/UGeCJ769UGeMn6brqc8fzljM2XMzbfegP8xmsnNjLUqbEaWqKKkWRKi5+krFY+tGEBJVAADMjv3wRABEbGkY49o2kpGkaqLSXJQokbZ8RNpFG/uHvd3IEhlDSrGBI6fXYqZY2ZFqNMW62nxWnXr1amMhzHj+Dh8BxABAgCUEDJHYUInPjq843rrSlJSvoqQ3qyiko5n8cDv4MMHcYWDyKKRNGF6Iy2uVa1jmFMitXSE1TUVWP0+PEHHyAAACcWSzQDAMzO7hj8Ln2tJSXVTE9SJt2ho8aOpMaMbaR/R43TpMbqE2K16+KVtNUX6NSxgwM4sRCGH60WhWGwWF4KgU8+/OQehjGNakxeo6Wt1lJSVK8chAWciC4QgOPkumQMIoAghrH3HrrPQaNPpccpU1ap1lGdZ780qL7TW5WBaVcUDQEyCxgaBZgFHADBFo9bIgALqR57VJ+cqKHFq5PjRtKTT29MmlqfZKbFa5NjlOtSPn3iqfmjR4FA5wCiOAE4DgQKgN7qlwkGSBRQDAADmEejAAi4nHNvvKe7+z4DjaKLucOVnjKaRjH/7c8ufoGZk2UuLrIVMx1CpotX5OIxXQKWnc808wu9HObPwl2Q6yxmXSnI+ZTJAQJB8MWl+FG37sWcbW4W21GU7Rdw9DmsLxoasEgQMBRQABTxj15+8ak/alns0cLck0/94b0/PXeKyX9v89bD2VsMGVtmZVyPgGVjMp3cIi+PFRJzbAWZTmZOSMwh33dc3G1uQb5LxLZw84MipoedFeQw5zgCKzvfUcxyipkOfq6HnePnFzmLWRp+vouZFRKwQmKOg1NgZec5+UwXn2NlFYZ4Rb7CghCXG+AUBJmZs9zcGQHLz+S42RwrM88mLPCzWHpJKWLQzgEQGEQBHEpd6ZN/rHv0oe7nnkV0DjQCC4BABGAefUcuvpifZSjmh956A+YWogCARE68/Vbjb3/92hOPHM7eMvHe+0g0jEEE5uDY0PBHm56zsVn67nZA5yIAEIVodPpQZ13xQxs6f/fEqxIJzM9jGBaJIFEEju3o/3DzM/Z9OxF0YR4AwoAD9sJwR/mvHh584jffvLAbw+YQBIN5HBCwnDz+4pYtU4X5XiHHzi7wcnlOHtskKAqyCwJCrpPHNRfl+wVsr4g1wckdVxQfbauZeOWA4aN3pj54+8ILe4831V5SSHXFPB+X9bMwytk2Kdcq4lpFbAuvQMkt/K6pZn7iIgACYe+3VZVqEU8ryPdwCl08pp1V9HPb93E517A0p1vk5Bet6BW9olf0ir4tmvkZu6CsRNHd2XEzXn7xhdnZWQAgCOLype8QBAGAubm5I4c/npmZAYDRkSvX/1apXPYZO/9GQW8Q8e233vR4PH6/3+/3h0KhudnZhYUF5KcM8OGPP/r7Il7bze0D/Q6HnSCIgN+/e+cO8uJHH35gMOiPffbpcoOvv/qKwaA/c+br5Ss7h4cMBv3U1OQ/1s2ers7R0ZGpyUmNRn32zNd/jwE+e+bMPzywX37xOQDsGNq+fKW3u+v9997VajTLA2s0Gj764IP+3p7le3YMbQeAL7/4/CcjunjMY6zvI376ydGf/Ip77LPPujs7tg8ODA70/8hLrlQu+7Qw18HMW8bJzHMy8xxF2U5mjpOZ5yjKdRRlO4qyHUW5P6LthVn2wix7YY69MGdR52fb87Pt+Zn2/ExS2/IySOz5mdbCTGthpiU/y5KfZc3PsOZnWPOzrPlZtoJMS942S16mJS/TlLfVlLfVnJthytlmzN1izN1izNlmzNmmz9uiy91syN56HdsM2dtIrcvZqsvZqs/aos/aos3eos3eosnavIw6c7M6c7Mqa5Mqa5MqY5MqY5My83ll5vOknsp4birjOeW255Xbnl/UmZumMp4fz3h2POPZ8W3PjW97bjzj2bFtz0xsfWZi6zNjW58d2/rsxNZnx7c8M3oVI1ufubLlb1dzyw0w0tp4Pp2iS4nVMyjK9GRV8p2T1Fjf808DgQOKQhQFDAFiZtr03ZWOmo/Wb1RT1lxYGzvJSNQnx06uS7yQmHh+cxbojBEAAkcBmdPu2q+hxdpocVPUNXp64gj9v0boDAg7SZeGYFFAwoAiQAAWmSc+fP/ru9c7qKnq9Fhl8popSuI7f3kSnOowIDNk1aUoAShAGIMFzxl25hgjychIUlFibWlJegZlevMWFJYKICNEFACFCIxcOPrwr9TUhElG/Hh67AQjZpIaO5WWoEqLM6TF6WkJWnrCWFxCIJMFM95pPEoAmQW7+YM0XXh4obvjwj10YxpVl7JGR1+jTE51fHsKcAAMIwBHESAAxXCIQmT+xOFP1zMMKQlT62JV9Hjzfz+IoLMYoAiCEBjMR7HFTbwEAAoQnQEEiCgQgBMe4xUGQ7+Wrl6faE1JObuWDj1NwazMqbVr1amJI9RVY0mUyfxCsBlRQKM4BhEEMPw2HHdE7gLHccAAMIhAxGN5edfbv3lYS12lpa0eZawaSUtw/u334YJsLyfbwtxq5WTZOdlOdraTmeUsynQys5zMLAcry8q5MTb2jfGws2zcDFNR5vt/+OOM2xIBwHBAgQB0/lVOoT0r28fK0nByP9m8zfvtecBxDHAUmQd85o0KwYmMZ0xF2Vfyt11gF3yYl/XW1s1HszNOZD+3wMy3ZD/j5ubaC/JdTJYhv0BVWHQlL2+SxdKxObrcPA+bYy/KtfFY49yiSW6ejZ3lYW4zFmyxFOUs5Oe4C7P1zDxtUaE2u0C9LX8qq2CiiK3h8yayM4z5mT5WXoiV62XmenksC7Nois0yiEQjzCIDjxXiFbkLs8dzM1W8Yg1XYCgq0Odt8WRmamurAWZDAAQGkUjoxaaGgV89evx3T5zekqE8+BaEyRXOQACyR1Dw6dN/0LKYcx+8DcgcgQJg4fe29+168jeTf/mjvqDQ9fHHQCAEOhMCeGWg8+W/PHG5cLPvxaH5S2d1p09Nnf9m4r3XFQ+nf/inx0f/9ucvt24LnD8bRRHy/82jVS37/vJn79fHgMCno4ACOPU6xcPp7z/5+Ld//tPbGc8DMksAYAgOCOo4c3bHU38c2bQ5WJTnyc0MFuQHCvOdhdku5jYbN9tesM1XsA3nM23btkyIimdefi0a8sJsCGZniYW5SMgPATd8/IGmMO9mf/eb4WDluIryHLlZ3sKcaWauic280tsO+GwIw4CITNQ3KQtzbaJcPy9nLO9pk6jg5k1l3BhW3jVY2flW9vLSoxW9olf0il7Rt0HnHy3KrSgt7e/tuSGHP/oQRREAiEaj77/37kBf76uvvDw3NwcAKIp++cXnLpdzbHT0+l8sL1EcLcq9UdAbRHzv3Xe8Xk/A7w/4/dPTobm5ufDCAoIgP26APzly5O+LeG03L313cbkRrUaz2NOPPzIY9F98fmy5wbfeeN1g0J89e2b5yp5dO0kD/I91c6Cvd3xsTDk1pdVqvzl37noDXF1ZMdDXx2Ozlp/eN+fO/cMDe/yrLwFg966dN/izfvwRABw9cvj6/7R7104AOP7Vlz8Z0cbK/6Tw+4gatRoAjAbD0SOHb8ahA/v7e3teeenF6enpt95842avuvISxdG8LNKILtlRku9N6bK25JHudNGg3kybc7eac7dacjKsuZmWnK2WnK3m7G3m7G3m7C0klpytpLklDa0pZ4spZ4spZ5sxe6sxe7Mha5Mxe6sxe6s+e5M+e5Mha4s+c7Mu63ld1vO6zM26zM2a7OfVWc9pMzZdx2bNtk2abc9rtj2vynhelfG8eutz6q3PKbc9p9z23NTWZ6e2Pktq0txObnt2ctuzU1ufm9r6HGllJ7c8O7nl2av12OanxzY/Pb7lmfEtz4xu/dvo1r+NbnlmZPPfRrY8PbLl6dFNfx3d9Ncrm56+sunpkef/OvL8Xy9fxaVNf/3u+b9czS03wAEeayI91ZASp6QmjVHjVCl3GO6hRdn5YNSD0wiGKfj4sF9WPvrwo6OpSdaUJGfiKk1aopGSYk6JH92QdOqR+8yfH0YAogQAisC877hApk1PsFDiNLR4LT1JtXGN6TdPETBD4GSeEgccAYJMuiJw7JOT92zUpyRPpieoU1Yb05LP3E3Fdm2HuWAUIEqQ5ZSjUUDhgw8uPXifNv5OQ1rCFUrMFC3u7Lokb4UQI3AAHAictMERAAi5zhUrDKmrNbRYdVri/8/ee0ZHcaR93+85zznPeZ93n3ttQNLk0DPdPUEJARLZab3rTd513nUAg3NYBxywAWMwYGMwYGOwiSInk3MSoIBQzmnyKIJEljSpU/X//dBCyxK82It3995bdX4faqpn6urqqZH633XVdfkZQ5NJ20YZmhl9vSmuidbUs9S+B0ajqljZ2xsDIN90BVWAsmMZECOtY56qd1r8DOWhdX5W7bcnhs42ynKPMCQSJBCBAOAimctKByW5TPE+h8HvsLT/5h5wHCQeEgcxCghE4iCLkiQQGbLUqexs5YVI19EDfjPlMRu8rNpNWw8OTEVB1uWanNVPPOA2W1opVZMlocBGt3w2W2pvkSBCIpDA/9SzBJBAJIDjRYgEXm/H9Gn5DsZN6YLWOK8pwZ1IN6U4m0YNah8xuGGQo/2u4U0jhzaPGnaFjOZRGW2jh54ZPaxtZMYNOTPixvhHpDeMTm0amX48aXDVrq0ggAAZQpgP7Z36QemgdM+IjP2j03MmfQDCiQAhgCh0bNqyjU10JQ/0Z2QcuHvkqTkf7/jy0x1fzMibPe3gnx/ypGecvmeUZ8RQT8bIrx64a/WLT+35YkbFgZ11WfsPfjU78/k/L/rtvQfmfrJ33syd86aXzZuec+/I1rtGtY8cfnb4yOy7h2x+YPg34x7aMHdqwb7twdJTjdVFnsqTp1av3PX267t/c3/hqPTT948KDBtSlZ5WOjR996cfH1rw+bY5005+OWPv04+t/tU9q18ac+Crua6V3xa/NK4kPbU+Y1DVuMejx3a352Q1Hj5yOufwF7//5SraVJ9ir7z37st79oMgLBPw6EbXJ2nO7XZr7b33Nr3xNuRu8IQjfKCyYv5d9+YPv6flpbfRfFaQEZM4hMV5o+7ez1pcGUlVGUNyktO3MUkLKdNiit6UyFYOHeIelFH6yJPo6gYBiSBy+swXQ0ZlpqZcXrmYzzrWeizbm3W4ZNGCuRZVwcDUuhEjit56FUKYkyARiFIs56uvvkxOKR461H9Xuu/uwd5RgxtHpXtGDmobOjgwakjL8EHNI9J8o4fk3Xd38/YtiEYjMgEBooIoyRwAMez6/JPjwwa3Dv1hNA7NaB05omnk0KbhaYG05OphI06++grOtoATYu7a3Pt/WzkwuXlE2tkUR/uIjI70YT+0/9ah6dfQNnRgH3300Ucf/2QO3n/XpIkTFy386hoWf72wsOCUcmfS1dm5cf26jevXXbp06dCBA2tWZV68cEE5VFJcfGD/vus//uHE9w/ef9ctWtyyeVNtTU19XW19Xa2rocHjdvu83oDf39gYbG5quhk7d2y/RYvXGG1taem96eq8fFlpPHhgfzAYOH4sq7fD7du2Njc3FRUW9LZkrlgeDAZcDfU/bpiLv17ocbsDfn9zU1NrS0tOdnZOdvbJvLyCU6eKiwpLS0rKy8rKy8o8Hnfv6ZUUF/3oC5ubkw1g5fJl1387igDet3fP9YdWLl8GIDcn+4dabGpqAlBeVnp9n9eweeMGALIsl5WVfrt40Q0nz4H7R7Wmp7RlpLYOTW4dmtyWkarUWzKSWtNTWtNTWjKSWjKS2jJSe+tXtyv169+v1JvTE5vTE1uGJLcMSVbqTYOTmockN6UnN6UnNw9J7q0rBDOSgxl/rQfSkwJDkq/GPzjJN+RaPENSPENS3IOTe2kYnHRD6ock1Q9JqhuUXDcouW5wYt3gxJrByTWDk2uGJNYMSawelFQ9KKl6sLN6sFOpVw1OqhyUWJWWWJWWWD44sXxwYkVaUkVaUunAxLK0JIXSQUmlg/6mrlA8KLF4UGLJ4KSiNKfCTy6Am/742wbG1EzpGxhTg93koxMqrarSYWmb//xY5mN/+PbeUTsGDypOS6lwGl32Ac3M/w04tA2U9rTN5jNrKh06zP4YiIYlJe6xiK6Obb9/zOvUBczaAGt2M1S1LSH85HgeUQiKdAEhJAb0rNYWZWelD2owmxqSTD6rxm9JqLQnFN8zounATgAQQAiRxGhzbdWR3zxQkcwErXH1jNqTSDfSpgonhS9nKdq0R1THEAMkCOE9h/2sus6mqmTUXpu5mTI2GjVuq7Y+2eJnVBWMJbJuOUIXYgB4yCBKMt0bligAJewTH2m45263VeumDG6bIWBXdaQPI6RLkAFJliQBMmKEJwQgXPiz2VUpDi+t8dIaj8XYdt9oCUqyIGWxGhAAIoiI8YCEMA9AhiSFW5cvDhp1PoepwaEOUJajw++CqwGhS03b1rvsyU2WuFbnz6ucxq1DhnQfzYIQ40FihPwTgkBDJEQGD5DLl/MnTT2ROrjarG5OUtUkGRtoc72N9VupapvaY1e7Eg0eq8nNUC6GqrNRtXaqzkHV28wu1uyxmups5hvDmm5Ivd1Sk2T00IbjRmvmxLcgEhBwEETIro2rjhmoIsa8fohDLjvFQYQECei8cH7a6Lv2ORylSfYjrOnQnx8hF/wIhdB1Ce0tW/74u1IzW8cyBVZjrtXiW7IYjUGEo7EIJwkEoQhqa2q/nIcoJ4TDohTFueZtIzIKaKrSbimljacczovTp8JdCy4a4wgRAAkQpE5JQufl0IplOWmJFWaNx24ushl2GwbgwkVcugQuhI624kkfNX75NdrbEYlE+TMH3nq+yGyqNmv3U6odlHluQsJ7ugHT+mln63Tr9P0Knar8349E+BwvChDkMNBYXTTnv+44YlLVsUwBnRatKFO8msEj5m5oP3kA0fMSgcADPNa9NfGjuAH7qP4VieoGxlBtteRa9CcY1QmL1T16ZNNTD3tmThSDVTK4sCBAxqb3Xp2S8PMso+aUlVpNmz6ljTP18XP1/7Xaqik3W8qTk7m9W0QhIkmABAH88jHPfGU2FdrpKjqhzqmpZlReu95t17lZS4XT7LEZaqn4KrvJ+9STOHsuBhAZ5EI0a8POXVt3X+TCTZWFk62aQxZdvc38g/DZrQ2MqZrVu5KNbpsh12L8nLas/OCtTTM/eeeeoZt12gqnuSJJ5bdrK5zmGpa+eVfGm6C/hpvO2D766KOPPn4ytg8fMmXSh0u+WXw1y5cu6ZVhZ06fXp2ZuW/PHp7vWQU4dfJk5orlra09MtLr8SxfuuSaHiZ/+MH24UNu0eLK5cs2bli/aeOGzRs3rFmVuXL5svVr1/Swbu3NWLFs6S1avMZoYcFfU3LW1dYqjYcPHQwGA9knjvec0orl586dAyCKwu5dO5VGZVewy9Xw44a59NtvvF5PMBhoaW4+c/r02bNnL1682NXZGQ6HOY6TbpRqs6y05Edf2JN5eQDWrMq8pocl3yw+uH8/gIP7919/aM2qTAAn8/J+qMWW5mYAlRXl1/d5DVu3bO4d4Pnz57/bvOkGYxwxSLmLqLMb6+zG21uvtRnq7MY61tTbXmcz19upOgdV56CUodXa/0q1w1zt6KlX2U1VdlOVzXwNlXZzhc1Uae+pVNhMZTbqGkrtPZTYzFdTZDMV283FNkuxzVJsNxfbzYV2S6HdUugwFzrMBTaqwEYV2E0FdpNSP2WnTtkppZ5nN+fZzfk2S77NkncVuXZLrt2Sy1K5LJVj+yvZ9mu5fQKYEJ5IyhIsCHgZPCDLsttmuiE+2uizGAIWQ9BqbKRNAdbsY00u2uCz/bzFoqo3WvYNzChf8g3Pd8WUIFISZMLDXbVjaLqfcVTS2qDdUMOq6xxU+9wZ4CLKTbCSUFgmPU7L6AytHT3axVDN7IAqpp/PTvltCX5WV8cyHQ/9ER99iE8mxcY96Uq0uel4P0PV0Nb6JMZPqVsY6kBqSuTgHoCE0eMFTSQBApTIyJUZ9spEi9tibLZovdYBriRtNaPzWZlTtL7kgwnoDIFACImAKEOEJAkiUZI9KUhKf5KgZLvlZQ7BygaabqXUNazWyzpKU2wdr7wM+QIIQRSSCAmQZSkMyBCErdsqHMnuREMpe2c1q3enpMQ6OyCLokgkmUjggBCJXpAun0V7m8BHEAMIQtHW0rdeaGbYOlrlsRnqraajzzyEyFnIkAiX++7LhU5dTbKq1aLxUCZ/2nB4T4nyeUC4jUGgeSDW+zxAkMFxkAUJXDcAcCjLaXvyMZ9OfYbRu+26KlbjZfQ3xEffmJu9/2Y0mQ0+q8adrC8yG75KS0bnxZ44TDJONzds0Tv2G527Fn0alrqUhXoZoVMTp+xntQXWuABrLtIZ1r87AZIAoAsyzgXn26wVJrZQp1v44G8v1JcDoRhiEkhUiWMmQYAgIQoCThJ5GZF2/46EOyoo7SGbbcMvRrQHaiUxqsyKCAinLMLLymMUyAJffeTICZuxnLEcsDErM9I4EMgiRB4gzb5GxCATdAN8KLTo17/MsVF1mrgqozFLbTiqNxwzqA6Z+h/Ux5WrDWUjRkdKToqSDA6IyYjgm4nvfWL43znO/qUWQ5M5sep3D7W3umUe4CVJFsHjHACCqpx98x656+ME1RrT/6mktfVWa4vFVG/Tu6ysn3EETP26ln0jyWKnGIFIYgLaW4Jrn3l85h391xgG1FrjWg39KwzxRYw536w6av15meVnFRZz+0czEI5yBDJPIIfaWson9f8/G826Squ10WJuZvReRuuy6AI05XFoWyl1G6WrSLQcdzhiS1dCikYA8JE5f354Wb//tSPhZ4fs5sOppqPq+ComLsAm1DPq+iQm32E7mJG+Ij1tyz2jd6cPq3SmFDLqpmRNkyWu0GE+lpiyeVjavmFppSmGUw79icEZOzOG5SRZTg10LE1yrjQxcyjjNzZ1ob6/x6lpoNQ1LJs9eMiKuzKWDbt796i792YklSaa/JS6xao7Y7E2sGwbrSqjdceGDlozetjX941cfs/QXRnJeYMcPtZwDT90xvbRRx999PGPs3tY2tQpk1csW9rL+nVrOzo6lNsTt8uVuXJFfl6e/LdBXGprqletXOFx94jkjo6ODevWXt3JR5Mn7R6WdosWDx3Yf/HChcuXL3d3d5eXlR0+dNDn8wYC/kDAHwwGbsa+Pbtv0eI1RjNXLPd5vbFYrLW1ZXXmSqXx6JHDwWAgNydbeVlWUtI72M7OTqVxw7q1wWDA7Wr4ccNcuXxZU2NjbW3N8qVLVixbunL58lUrV6zOzFy7etW6NddK/ZzsbAAV5WVX9/CDLBbk5wNY/7ffdTCUjgAAIABJREFUi4Ky2fjIoUPXH1q/bi2Agvz8H2pRWVevrqq8vs9r2LF929VzSZKkwoKClcuX3eJXeTswehnjNS0+1uRhTR7W5GaMbsboYm9MHWuoYw21rKn2b5eRaq+ixmaqZo03x1TFGCsYYwVjLGdvTClr7qWEMZUwpmL2xhSyxkLWWMiYeznF/pV8xpTPmE6yNybXZsi1GW6fAJYhyETJ5qPkiSFEDLW2+a3GG1LDxNWz8S42wcMk1NP96+n+Dc4EX6rOT+vrGEvJsJGXF36NCx2AIIHgigOyeHDP0dSkJivls2paWF0joym0W2JrlkHklN2bkEUQWSbgIEsCwZnzZW+/W8Oy52hdIzWgzairo1UBO+Vh6AqnPT/NeWIgW+AwV9OGJiahmdG7GaPLpm403tFEafYOTkJNIYgkgkCSRV6QAYiSCHRznPTBm4XJjM9ONVGqJlbjoeJbEymfVZf94C9ieUchgyiu0xAJBFyJtiVIonKVFAEsg/AyZEDgIy171tU4aD8TX0EP8DGWE0kGMu8z4CInRESQCISYHIUsSgBkDgV5RwemuEyqDqf+jM3QotUXbtmES5chIwbCIQqpu/HAoe2vTdw0dzYXDoFAlmWEzuz93f0uK13vMPlt+iDFlE1+C5GQzAESkJtXPXK0izY16Y31DFM9MH3HG+PRdY4jyjr1bSqiCIGAEyGTGEhPrGlBBuFQW5n9xKO5tKnFaXHp+vtpfdBG3exnfLsEcNBq9DFal1NbaTEuSXFyZaU9UbsJwHduSB22LSUDHQEBvAQInNhVW/xtWvohQz93GlWm6Z+t059csUwOhyAQEUBt8YJENoe2H7Kx7Qf3QuyGgMgV1wSEOfDo3Z5NIIPAl511wKDNM+vWpw8JH90JAUQCD8RiPAQB3Z2QJA4gV/pAOFL1+3vykm2bLMacMX+CLClbxKOQJBDEIpAFgMPFi8tSU/MMmiqLqshqKLBQeSZtDq3KZyzVakPewLSz320GL4JAIogQNBw7/raJ+a7f/y3X928Yfk84cyNIVxc6OSBGSCdECAAPRHDJ457/wC8zE7Q59gEep6bOqmuwJfhSdV6LtonSuK3OMyeOcRJkADEpUtv62cN/+livybQYyimqwaRyp1HlZk09S5Wb4jqSzO1mW80TTyDWyctKiDcgEvr2wSfmq3++12qoYahGizHI6t2stt6i81vNtYzeZ9U108ZS2piVPgiVRV0QuwFR4I5+/fW+wYOO2Jy7GfsWu6GEpeusA9p0cW6nNTslsevjKdi9mZRlSeXHL+3aJL39bnG6w6P6Was1oSyVDU2fJG1YilWLyDtvlPxidHTSNKxeg/feyLZZulYuwbr1WLvx9OsvtbJ0kyahye50D7pLmDIL+/cKdcU4mRXb8G3TC38ud1I+RnvalOBlVbWsueGBX8QWfoncPLhcqKrA7l2+F17y0LqeCdynfvvoo48+/nXsHpY2bepHqzMzFXbt3Nkb8qqkuHjNqlV1tbU3vItpbGxct2ZNeVmZ8jIUCu3aubO3n4+nTPke1XS1xdWZmUcPH1bCX4W6uysrKo4eOXIrAvjA/v1Xd/I9Fq83mnX0aDAYOJmX19tyLCsrGAyczMtVXno8nt6RSpK0ZtWq1ZmZmzduDAYDbrfrxw1zzapVzU1NBw8cuH737/VMmjgRQFVl5dU9/CCLRYWFADZv3HhND8rwAWQdPXr9oc0bNwIoKiz8oRbbWlsB1NbU9H7wZG7umdOnr+f8uXPXT6czp09v3bLlVr7K20GfAP4JBLAskR4nBqLURUjcpZKyAKO5IT6HyUPrPBat32r00Ua3xVhvMTQwpm3DBu987vGQ+xTQxUshQBQETgTheREIR+bMqUhyNDIaLxNXz8b7WN2x9DRkHVCy6SrmZVmGDHCiDHSBXKg6dWxYhl+va0+0uCwql1Prs6paTJomk9pv03sdJg+ta7NRQcrkN5sarCYfazhD6/w0vfOu0TjdJIJIIMroZACystGYYM2SwkFJflrvtcbXOtRVTn3tQKrAGde2ez2kEA9worJnOCaBXPFJVhapIQMikQgRryyXi2gKlrz6XJOV6qDj6tl+PrOqNjlNXrJChCAqHyKAiJgIEotJEICLuR+8Vm1n2gzqFlbbZtI003ZhwuvSmkXIXIzX/tI44p6sURlHXnvyUqMXhPCARDjUVB5KTGqzsi0mQ72pX6s9tWFrJkQlxTF4cPmHNuc4df4kk9ehaTUmFFqM4udfQAp9fwyvH1Q4iLzyUECWQGQ+JkgCIEPcve3U/b9pYJIDrKXKGu9NNtVZ1HXWmyqE2yWA/YzJa9e7bOoGq2m9g61dtAgQZKAbiCG6ZsKrBd8skBHpUgKZiTj+3LObVeYaSuW2a6po7U6Trvzofl4WZImAkPDGtQsYy/qBycdfega8snBPgCjyctaNGLkwTjvfnuI6vA98uOeRclguzFy1y2TcRRlOzpoG0iUDoigSvrMzP2v98OGf39lvTkpydPdeCQJESZlF4c8/2prmWGTR173/lrI5gFMEdUtb5YzPDzzx1MHfP+T7aPJui7mGMZbQcXlMQqXNWGaOK2UHeGlzsUV/ds18kVyGDD4mcBBD5zveYg0ztP0KVaqi0SNQWA4OYcgyCHjUZ51oqyxBOAwO4AACcr593+iRp+g7/dSdLSZDi03dxPSvN/68jenvdqSg+3QnRLF3zgux429PPGDWVtNmTyJdzeq9jNFjNzc6TR1x/XyPPIUOTyeiIBAjEAm3/dOP3+8fv8MUf8pmdDPGoFXrt+kbHLp6Wu+jzX6nvd5m9lP6IGPNSk6SCrMlEEQUtwIJHd7mnVu3P/HkjvQhXqu9xZZQkTxo5x8fJE1+yIIkRmUxjGgEPLqkS805O4oGphYz9B57KiqLQLolhHylpU3BaoADQrWTJqwdNgoyJ4hRWbh06v3XSq3mvETL7g/Hcx1uyCEInd3g+K7LAIfoxcY1SzYPSqx3MFV0wuoxYxG5JMk8REAQIVxEoOrob37psmjcVq33OgHsZvVutq/eV++r99X76v+MupfR7x6WNuGtN2dMnzZj+rQF877guBgAnuc3b9o4+7NP3W7X99zJNDc3zZ3z+c4d2xX3XY6LLZj3hdLVhDff2HlFw1xt9BqLChvWr+voaD9//vzly5dyc7K3frfF6/X4/T6/3/c9Anjd2jVXd3Izi9cPc8b0aUrSo0MHD/S2bN+2NRgMHDywX3m5ccP63mHW1FT3Xp9gMFBfX/d3jd5wmDM/me73+/bv3TtuzDPTp07NXLH8ZowfO0YRwLk5OVf38IMsKmGZ530x95oeZkyftnnTRgCbN228/tC8L+YCuPrK3KJFv88H4FR+fu8Hc3NyftCN8blzZz/7dJZi8XsFsNbLaG82q380PtZw6wL4+o2EtyKAK23GSpuxkjVV/DQCuIgxF/0wAWzKtZlunwCWe/QhCAgRZXCIdga+29HAqm6Ii41z21QBhy7osDRYTbUU5U1KOTN8pLxyGzw+WeiKgodMwMsgiEHiIIsItTz7Yh3LeBhVgFXX0Jom2rJh5DBUV0AWhJ4TIVBOg+dF4CyA7kuXp39Wm5xWYdI3OpjSVHWtbUAjPaDVMsBvGVDPqGvt5kqW8tAGF6uvsavcjrhGekCV3XTgTw8i1AYQxARIRASiMjigS+yG2F398pMnUxmvVdfMaBqNqnbKUm0y4S8vQIoo/q4ggMRziIkA+CuhpJVrJRHIgEQQ4ySEcL6lfe/2XfeNrqYoF6OrcZqa7PZsh903Y3Kou0kSYzGA468kTeYgcXwEMbiqc0bfV8ayVQ4qyFgajHGF6fYdw5MODhpYahvouueB0ws+xYU6iCI4EgVi/CUc2H0yxVnJqH02tZ+J9xvt7TW5cjgiA7KEkCwgJsbGvNxgZL1Wg9+uaUi0nkwZcqn4ZOQ2+kBLIuE5uWdvKQARQqzu2OGsu9OrHfZGjbbdbg4kG2upeL/VGGQsN/3F3iYB7GaMLqfey2iDFvNeG737T0+CRBUfdchC7bH96DwPjueAKKTKrKNLdAPyabYlWV9Px9U5LBu06gue+p6A20Ro/Gz6V3Zm/qDUruN7QSCKBDIut/inDnYuGmhYYY1fqNFOuHe00HlZUCTrufDhz+asM2o322ipyR+GeAGIAW2uyo9GJK0wxe92Up+Y4t4b4oxJEeUhiARg88pvBts/s1Hnl34NIksCYoBEYitee3FaIjXL2n9lsv4IQxWyxlqHvpKJq2Lj62iVj1H7LQnlRk3Xqq8gnhfAg4DnIXecmzXq7jnx/+9B8x1+2nJ+++bLRCYCEOGi57tm3nfPxLgBX+i0pVM+QizGc5AJJKB22YKDlrg6q85FO+ttbI1ZXzOI9ZvjGixxh22WHc8+3VpRLIdiEUEOAULn5YMOc66TqrcYmmhdU5Kx0ajxUib3r+/G+XMXSUgCEAGBdHj51x/E919iTCiitfU2o5/V+awqt11T79A1MAaP1dRg1tc7DA2sptFJHbdbAou/QPd55crwwAUSA5ERaGtf+HWRyuBl4k5kZKDwFESJE+EuKv1m+tRVX33ZfeESB4C/eP6xJ7NTEncMSsfZZhBOhhgLizKicvg8hPP5zzya9esHRXARiF1c5/YxT+bRjPsXv0RTA8dFAZQdOzbr/bf3L1nBxzgZhAR9e//42yra7Lb2F2ob+Eg3DxQdLfxm+uy8nRt3v//yaqe1TwD31fvqffW++r+87mX0u4elXb3wuGrlinPnzn00edKEN99oamr8u/cyZ06ffnfC25/NmtnZ2bn022+v7up7VNM1q53z5s5pbm4+c/r0uXPndu3cMWf2Z0ePHD5+LOv4sazsE8dvxifTPr6mn+8XwFe/c+mSb4PBwJbNm5SXL4wfV11VyfOc1+t59aUXlcbtW7eGQt0et/vF58YrLW+/8ZdgMFBdXfXjhjl+7JiamuqdO7aPG/PMjOnTrl997eW5Z8dOmfQhgN27dl6/OHyLFhVn5jdee/X6Hr6cPw/Al/PnXX/ojddeBbB+3dofarGmuhrAgf37elsWfrkgNyf7esquisLdW4qLil5/5eXez/YJ4P9+AhhKLCeBgAAgMjhcbC/5dvmRQak3pHBQyuFk59aUpHV3j9g6bszJxQs6KosghpRwNjzAXcnjQwiRZVkGIvy5wt89fjzFeXiw5cRw++4M25EhqasffwJn2gCRyJAEopyGLCGMqATwBJAIwhdK18xf/9BdOUnOUhvT4LR7E+3VSfaDNmrPyKGnXn4xb8LbR1OHHMsYejA99VhGcpaT2TtkaNaUj6KRLg4AIYSIvBJkWiLovhDIXOwx6DwWfR2rcycaAoyh2mY78OhvxdNVohKwWsk/JAnKEq7iE35l629Pph2EY02lVXV33V0+JOPUwKRi1tSQZChKVmUlxxfZ9bVJ1krWVJiakjvsPqmqnAfHgZMQ5tAjhBEV0Rbc9f7LK+7N2DsobW+Gc/vwjFX33PvdCy9XbtqASx0gRFD0kqSkYQpdmDOrKJGuSzb4WbUvxVxtTYJ0FiInAxBF5Z2xtto9v3ugMtlZ6dAVOjXltGPHo4/ifNvtmiSSyINAiMkxIAYR7Y2h6Z96LEPKWG0gkQpaNB7TAI81wcdoG+0Wr9V001/sbRLAHtpQ69D7WF2jxZjLWlYlp6L7fM9Wdlm8LFzge32PW08v+eVvjmn6uyhzC9Pfy6qLaeMKyiiLUeUKE67b8/z4pSwzefhgdJ8WJShuw/mz5x222krsOo/NUKehPzSacbpNAHiIuMwtf+GFZVbNgZEjIAkclGccpPiTGdtoqsKsqTOoTjDmOZr4KN+NngBRkDYsnT/Q/nEiI2Qd7JlpnBzJK1xlYisoq8dqajXoa226akZTzWjq7eqgXdtsUfssplqaap0yA1ykAxCBkIDTjY1T7713qqr/ZscAl+6OGqcTkYuyDPAEQtemTz7/UPO/Vhn+vxOaAfusVuDiZQggIN2cL+9EpirB++RjzbPnNM7+rH3mzM7PPy0xW332/vWmfscoQ86ENxC5BAiiEJU5Ydsj9+yntEGjrjlJ56bjzxksVUNHRWpOcBLAATEggs1fz39Dr16nijtqVbsYjZ/V+Wm1x5rgsmkbHDoXq/cyxmbW4GITPEzcaVZfp9NkWWyBDz9GRXk42oUIBwHoBgQg3J5738ijSQn5y2chdl4AEJHff+zpiX/4w5SHH61cu70LIOgSv5i7Mj1pzR9/H+7qgOLp3969Z9LkFUPvPfzs0zsHJ1a89KJAopAIzp7/dMTQxak2bNsERCWg1dX86qOPT3nswU8e+XN9SQUHgOfLp36UQzMdowdDFsALiJDsg1kTHn5sosWy2WwooHS9LtA3nM999b56X72v3lf/J9S9N9JpL4wfN27MM7eS1lUpx7KOjhvzTK9K/KuGGZp2vdEbWrxGAL8wftyrL714hZduxvPjnr0Vizcc5jUCeM+uXb3DycnOVhrnfj5bWSXu/dSGdWt5ng+HwzOmT/sRwxw/dozb5dq7Z/e4Mc9MmfTh4q8X3oyXX3j+0xmf4CYC+BYt3kYBfCsWrxfAN2Pq5ElXz59IJHLNo5O/J4B/Cn6YC3QDY2pgetXvX52i/1YAm6pZ0+0QwFQJQylyVxHDRTZTke3fUADLEAFZ7tnsKkEEHzmde5LM++yGYOZMcc4cceVyZB1BwC2Hz4cQPQ+uGwgrApInEGTI6MmHFgU4TpyXidlfSZ/PIXPmijPnYeZC19Zd4HkCSTkHGRBkZXOlgN5+JEGIdYQKj2H2wssPPdj+y/sa7xl14c+PRT58BxtWoawAOVnS7C+lL+bzc2ZjwRzMniN8sRBZuQiHCQEEApFTQlhBFHDy+I5709uNCc0OUy2j9VuNfqOxfFAG/9128CIvyFeiOhMlbaxyPlHIsSuSvkcAd4W9p0qiTz3d+ec/nXv8YTz1VNcTj3Q+/afusc/If3o28sTT0Ycfjz41pvVPL8AXEInAgQMJEWU7cQjgwfFh8BdQU87t3o9vF2DjOuSfwulWEjrXE2dKQgTgYwIAxMKN70+qGT4qOHLUmbQM74hRrY88K/HnBCVgNhEhEykmovscVq6/dN9D4V/9uuPBX3f+8bGi58bFmipu4zzpcRaAQNq9WRNfPpBGe2yGNkbnpTVep8FLa3xWTSDRVG/X1jLam/1ofTdSv1f/ebpFfFZdpU3rY3WNFn2ZjVqr03cUnpBBRAkgJAaBFzllR3vp4i9nWbUlrLbOZvawdzawmgKLec/IkSACeMQAIHrsl3cvpoxf/f53iF5GTyS2cPZn0w4bjaVOtTvFUKjVL3/4t4h1ikBMjqI79vFdd61KNhT9/reQeRAIECGHjk1+c6fdUMOqgw7jMathz6/ukmVJ5CVlSp+e9u5XDnpSigPuWk6WIAOSePzzWTstVEMiVeZIqGW0LrvKa9UFnNZqRtPo0Lt1qtLE5EtTPoYgEC4CCRDRVFowkVZnDvjfe0x3lhhUwUTa/cRjQJSEYxB5iJHPHn1kifH/FOn7t1PmPLuTJ2c4ECHMQURDTt5ila7ts1kgUcgCRBGXL+Y/+Wyl+Q6Xo5/fas4fMxZCSCKRKEQQLH/k/v2spdaibrAM8FuN5SPvQmmJgGgIogiCrovfTXz3HVX/zP4/O6X7uS9J5aU1Pkbrs2o8VrWL0SiPOd2s3mW4M+jUueyqBnN8fRJzzGLebKPfdGhmvfZ0zZ6tHBCRESIgiPifeXq/zSAEfZAJB0AEOrvQfVaKnJdiXTwAhPlvlnxpd+x/413SHVWeUi2Y8MabiZZlRmopy2xKs7XOXwAZCAG+hg9S7IvuH40mf0Tmw4B0sRvhizjfirZ2EIREglg0b8bMvcmDitNSCGIyxBhwHlHELuDonsCjv/E5zTfb+vtvclPYV++r99X76v8T6t4b6TSFwwcPXn3PcuTw4V07duzYvm37tq3bvvsuEvnrnjBFAP9onXa9AJ7+8dRNGzdu2bx5y+bNW7/77mZM/uCD2yWAXQ0NvcM5c+bMDQXwtKkf9UYC6+7ufun55/4RATx71qwtmzZdz3ebN2/ftvWdt9784vPZuB0C+FR+fllpycm8vN27dq5YtvTtN964RgC/+fprS7/9dsf2bXm5uWWlJaeuhM765wjgutraCW+9eYMx9gng/34CWJT+GgRLBCdLAEE0BkJuCAeOhyBCkJU7eHKFK6u+PUtbMQEyBOASSCeIGO0GokCYRxdIFOAQkSAjLHCKNpAAnvToBEmSYsp6bFSSARECwp0SOBkcIRHIAiRe+UiEABAADiQMhCFxEHkeuNSTxReAGOViANDSWv/kkxVWndeiDSSagqw+QJuyU20ln3wIMdyT7VdxbyayLMuikpBYJkTu0eMEsiRJPe/heIFERQgyOAiCIEYlEF7xkRYjstwtoQuhLsgQBPDKZYHIAzEJEhBWdoVKAgQRpKs3CxIvCxLEKCQOUDxWJWW9UbwMXIyhQ0IXyDlwoRjEGAAicyCiyAMkBsggMYQ5hDiEIEUR5W5jHmCZACC40I59+1y/etBvoFvNej8TX29V1TsM9Ta932YOsEa3Ve1j1G32m/5ofbdJADda9JU2rY81BK3aGpthr95wYO5MSCIIIJEYeBBAQsjnWZmUeFQXX0upXLQpmKhyscbjJmPBuGeiEOSeVMnRvTZ6vcmw5NFHIHZDBpF5CWioLF6YnrHlnqGrhqYsvmt0o7tGiMmSskO8qe2jROfaJHX2yKGcHFb28gLwHD/yxcghO9OSdwweOOsXo1sD1bjyXIVEQll3p6+h6ZnDhyF6uednwvM7nn26mrGe1scFWW0bbfXSCc0s1WRnaxm9124sdzJNH09FOByWo+AERLiWisqXkuxfJfTbrY7PTUqpSE4vsRqaxo6FzHFAFwi4WMnenSsYa43GVscOPD9nLqKhHs91njuxfPkyjfrk03+GxIUIwgAPVO3dutFI52u1jcNHR0/m8ACivAx0EXw9MHWdOt6dbPWxpuLhw1FSIEKUeSDaBSm05M3X3r8zYbPWmmthvazjjMpQT+sbrHoPbfDRRh+t91p1XkbrZtUBm9Zt1/mt5kbKmpNI592fUZCSeMRuPd5fl6mn6ooLlYBugJD/y99vGT4IIs9LEVkMS3U1yMpC9hGcyormHcLhHJw83Pbq+MWMPm/JbAhdEEV0du/S6gtMCZdtjmrafChRL29bL4PnQLBzy6z0lM1/eQmhy5wsgwDldcLJY2LhURw7Gj12FPknceTA0T8+UGBnTqrvrHv7HVSVofMCQDjCQw6jqihzcHpf7Ks++uijj38HblEAv/v2W1cfvTqO0U0F8M0jJ/1UAvh7g2B9jwA+eGB/73AKTuXfUACvXb366gsydfKkHzrM8WPHBAOBA/v3jxvzzEvPP/f6Ky9fw9tv/GXie+9OnTzp/XcmzJ/3BW4mgG/NoiKAZVm+dOnS5cuXlX3asizX1daeOH4cwNEjhysrynvbOzs7L164oCy2XSuAb8HiDxXAPM+vX7d2/NgxN588Wu/Nl39uN39fACvt/84u0DcLgnUzGXy7BTAhgkx60yDFeiQBCOQb0rNhuGevLEAIZBFEAJGIzBMIAnglwA8hPR7FRFT2wAIyQgCEnnZBhpLnVhYUt1MlvjLA9QTcVc4nBkDqWX6UoKwug0DiSEyEKMhEkIkMIoriX9W4SGQZkIgMATJEUSxaujQ3MbnDpKpjmSpGF7Cq/CZdxYMPwFchgSOiLAMiEZTl4ohyQUBABKVDQRAU65JMJFlU4kRHIfMAIoLi28xzRIkeJAEXJV5ZmOoZuChC6lLGBBmQCYSYstLY42ItQ1ZcwMFJfCcg8BB5QVKeSvQsQMuQBYggsgRB6YsHD0CSePAgsqzIfgIQRHp8cm/bNBEBmY9Ublix9Rcjyhx0q1kfpNV1yTqPzeCzGFosVBNtqWNNdU6Dx6nxmvvd7Ed7uwRwm9VYzerdrN5Pq+vs+lwrPf+Zx8HxPECIGIMAnsQ4YeGnk76ltPlMfzerr2WM9eyAOtaUZbLUT3ynGyKRARHdZ1s2qgZ8R1EfD0lHtAsyoogRThIRxcHD3VOmxebOR3lZN0QlzjQQlYsrP2Nta+mfr1X3D8mdipOzJPIQLiH/qPj+R/h4DioribJfl8gChIIj+7bo+m+n6KV/+CMRIsru8lj4/Pw/3F2eaPZTd1bY1TW0tdWqDrCWBos1wFrqrLrg0w/j/OkOALwsS7hMEAHARcBxkEE4CbH2fLOqdvBg8KLcrTjuAxEhcGzf6c/mhbP2SwgTCVwMlwAi8wsee2it+s4DaanoOI8wIEEg4HFJrrtwuihHOuuFKEWBKGLgui6dbJgRp9pvNDVpddXJid37v5MJJxMQASKB0E04oFPiIER5RBG74Pv06yqrvpYxuhmzn6GCVmPAovPSKrdN5WL1VYwxYLX7DI6yZx5CyY7255/wsrYqhzVn+GB0n4PAQZSkcNc6tW3XsFGChAggQvr4xfHPsOwrrO0vFusHFP1actLLVPwas2GL1e7f9R14LiKLDQ11O8yqikRtUK1qcDo3JVtQWigCnUD4y5lzBtq3vvYaLlxSJvKEoRlPJ2lfNdvep5NfdThfpkwf2KklqXShnfHS1iWs802nY/KYZ+uLqntiwrd1rBj9u3/Wv7Q++uijjz6+jx8ngM/9Zwngl198weNxS5LU0tLc6zN8qyvAP0oAZ65YXl1VeRVVtTXV9XV1roYGV0PDx1MmL/lmMf4xAfzehLcnvvfuc8+OVV4+9+zYmZ9M37t7d3dXV+93F4lEDh88+OnMGYrfu/K2ie+9+96Et3+oxaLCAgA+r3fL5k03Y+qUyYoAbgwGJ02c+D0iuU8A/zcUwP+pReR5QBIAmcPeHQUOSxOr8dr6eShVfZKmxmk6lZjeXFchApwEQfGE/Y8uV+fEk2WbUu6LAAAgAElEQVRZIBBlSIBE0LOyTQCRoCfytUgg8UR5zgYxAhze4X368UqG8VL6OktCnVPjcxgCBvW/6l9gvTXeRRsarCYvY2xitUWMcRZDobkRBDzQJckQRWRnf63V5ZjoOspWl6yrs6kCjKGWtaxhjN4NyxHthAwi4HTJyQM66y6Tag6VcGHnLlnxgpUBgPAccCU5tgiI4ABw0Y4d3y2yGY5oEzZr1BWZS0VRhAwBMlEW9iVBgshBlq88vkBh2XIHc8yUcNCg2vLOS4AoK1q6Lbjcaa9gmVqzJuDQNZtVdc5+Z6x3BA0/81usZY+NxcXzgBBCF0ThhrQUZM3vN6DI7gwunM2DiwBK+iZIBDEZMUjAJYmIAEKhgpWrJqn7bYjvVzLQ3jzrXfBnw0A4DESBWAwChJCoOFBIAC51zn/kiYXa/+eUOq42cdj51auBcAw8eJ5IHCcL4HlIMVHgQBBCFOTirt//ca+mXzFtdLFmr9Xgtxk9Np3bqvXR+iBl8DHaSlp/9L57ZbdLAjjChyIdl70eIdLNATHI4LnqGZ9uMViK4gzkwmmRSFyMNGWXzH3wkc8f/kPVzu241M2HO0n27jwHVWhP8pXnyTKkTsG9Y3+BQVvr0Prtqgqb8eu0RHSfDYEHhHOvvLIu0Zr5wDCc88UgxIC8jWsX/vq+pc+MDeaeCofDuNjetWrp7pSk9UOS+UPbOsrzN3704ZfPv+AvLhUgQ+Tk3Tt30bZ/1Tzvo48++ujjan6kAD57tvfQf4AAHjfmmeVLlwSDgc0bN/S23Ooe4B8lgK/m+XHPvv7Ky++89eb770z44L13p06Z/OnMGWtWZeIfE8DjxjyzYtmyI4cP52RnH9y/f8umTcuWLpn5yfSXnn9u5fJldbW169etfeWlF6dN/WjZ0iWbN244sH9fTnb2kcOHVy5f9iMsLlr41d+9c16zetW4Mc+89PxzvbL8ewXwP/OH8MNcoP97CeB/XhCs/8zCIwKZA8HZ4MEHHziVxngoVZNT70rSnqYNRSwVnfk5ujv5sBiDkk7oP7PIsqxEI7vuAGQZoijKgAQiASKRZOCysqxNejZmAwLOtVWsW3307mHHbaybtrbZKC+tqrOpPDZdM3vTYFc/NUGnPminvXbaYzP4LfFltG6JzXpm325R5JV4Y+Aj3zz0mxVmdT5jarBZPFS835LQajVWmkxLDFrhVDYkUSKAKOZsWLpTrz/uMHxj6jd3xGD5XCsIiYlXlt+FmAQh2NEY48OQiRKovHLmzHU2U0Uys00b/+GwlDO15crWdf6Kk0IEsiADImSES4qOTM8YvMZmPG5V7TJrC5bMD/MRAZAgRGsKltssVTbaw5q8dn3Aomm02E9rjcG05OpHH0PbGUQBHohKN/bHINg///Ovzaajqv6n7hsh5ByDIEZlxCBeJkQERAmCorS57rLVK5/T6jZoVcV2c6m6X24SG9m2RRajYYBI4ICIKEpAWAInS+i+tPPDia/Gxx+NU+cPHnZp+XKIUQ6QuyUogd0AOQpljTTSTSIAouHJloGHdXFljMnDUl6rzm/T9wrggJ2qscQ3DGI7p05EuIsDQkoA6SgPgIMMCLUHd09Jsa+zGvIZ6sjiL6TQJRGQugWprQ2hCwIf4WXgUvu28Y8d0safsLAgXVFABjbP/axIk+C26/ysusph3fXAr9HdpQSHO/XIgxtS2UUptH/tCkhiDIh2h3C2PRS+LEgiCEFL4/qRw7YnJZa8/zY6AugKozOEKC+EozKAzvNbn35iV4r9XzXP++ijjz76uJofJ4DPnu3oPfTfUQAv/nphMBjYcJWj7zeLFymplXpbPp3xSTAY2Ld3T2/L66++EgwGystKf9wwx48d09raWlFe9vFHUz7+aMq0qR9N/3jqpzNnzJvz+cIvFyz8csE3i75esWzpmtWrNm/ccDIvD/+wAP5qwfwtmzatzszcsG7d7l07T+XnlxQX5eXkLF+69MP33/tm0dcnjh8rKS4qOJW/e9fO9evWrlq5YsumTV8tmP/jLK5Ytszr8Zy5efl28eLv1719ArhPAP/blQgQhYhzrc3vv9vIJtbT2mbWUGaJd6Xpag3a4y//Gd0tMkTEwClRn/9DiyzLkiT1BCQDZFnuEcNRDhIBIVByO8m9opfECB+SOYlEcLGF7NjQ+vjDPoYuZel61tpMm5tMar8lwcuqXRaN9+b5fn9q6s3xDWa9i6E8dqOfUbkY3W4blfvKCzh3Ds0tcPk61q1boEvIZw1eY3y7UeWxJvhZnd9qLKeoDawNeTk4cw7nY2hsPvbhGxWUNWg1Fpq1a/vHzRuYFt6yHZcvIxJBVzcCvuqFC8fSFsRCYfDdALjo0efGH6bNleq4gJVe9l8/X0CxNYuXkPpa8GF0XcalCxDCuHiW5J7M+t1v5mhU+9X6MqOhwazfM6B/bNs2NJ7B2Q40uS5vXH7AZm0wGgMWg481NNrNxwcPxufTyh76Fc5WSQiFIYWJAImHINyQ9c+MW2zQ1NC6SvWdB1KcBdM/jvhdiF6UQCCK4EV0dtfv2DbvwV9N1gz4RqPK1sZVU3GXUqxurXa/I+Xwhx92emoR6+T4EIiIGIf2c/mrMt9OdXx4x882U8aT1kR++WKQc13K8q8ARPiYsl03ykmxcE8qIyK5i/PeMjPZxoRK1uRjTV6rzsfqPDadh9b5GUPAYghatR5ad8TJ1kyfAVcjQjLOdSPWjdOtqK8tfOuNZSb9Pn18vU3vMfTbYtQ1zvtMaPYC4VjkDMTzaG/rOlG49r5fr1JrqtUGd9pItPmkCxdw5sz+F56vNuncrNZFxdUm2quefR7egHT2Ijq6TyYxRYzxmG7AtkT7mZWZON0GwsmRCxLfifPt577bvCbZuXfAHTl6bcOrL5CKAi7SCSkkdLZDCF3MObr2t7/YqOtXT//TnJr66KOPPvr4PnYN/TECuKPj7wvgXUNvrGGut3i7BPDNLF5v9NWXXly9KvOtN/7y15aXX1q9KvOtv7ze2/LC+HGrMldOfO/dv1HOi76e9cn0HzfMcWOeyT950uvxNAaDba2tZ892XPrecvHChUULv/pHLuw1PPfs2KmTJ+3Ytq24qKikuKikuGjP7l3Tp079u+uxP9rij+Z7vsqfhj4B3FduUi4CICS2a/exjMFus7GONbTaWC/FVtvUdamDkX9M4rtlifTEAf6P1b/A1aJXyQxFlKRTRALpTfJ0xQUayjZmiGJnZcnBCa9tSk8uTmI8Fn0jbWqkDX5K7aPiA4zGz+p8rKE5iflX/Qv024x+hvKwlMduDNo0XnPcCUP8WovucXv8o9b415Osk82qdZb48kS915LQYlEFHUaPQ19Da8rtllXG+GlpzMOU6o8W03O0Zs4gKl81IECZcmnTruTUWaztdZ3x0SFp4+4d9dyowS86LePV/TOfGwuuOwJEAAiRRUnJxy0GV6LJazeeSmHW6OJeNenHpTrffPh3cya8NWfCW2888rtxaYmvWU3fUnest6tLHFQ1q6+wa3eaE95j9Y9ZqCd1d77uVM8faNxrUbloU4A1u636BpOmiDEXs4aAjc6hjMt0xrn9de/Gx89J0HyUEHdDvlAb9up1Pquqydjfa7McoKjFFss3o4d/8/ijyx959MvRd0/UaacMuPNbzYBdqv5lZmO1w+xiVE1Mgs+qqXU49piZTNa+NH3giqceW/T733511z3v63QfJcQt0yccM2mrDJqg2ZJDGTc6rZ/r1NN+3n9Wv4RJd/T7UBP/Tv+4OXrT5Lg7J/Uf8PEAzbvx8XMM2m39BhRYNHU2s58xea06j03ntutcjM7PmPxWc9Ci8dKqHKf+c1b3vN38+v2jPxn35KTXn3vtN/e9wBhnUbqdNmuOUeN3MD6zLps2LWTNf0kfOOPFZ2dPeOntx349flDSa4x9kVV9PJWpt1uyTdT76Y4/MfoXTQMWJBuqDBqP3RhMMRUx+mUW/Tuptsds1NhE+z6Dvtxhq3Gw+83GuVZ6wtCMac+NnfnWKxMf/N3biSmf6s07rFSRlapOTFxjsb7PsBMe+M2n48d/MvapDx/4xbsmw1obXZTqqGJunAOpjz766KOPfzK5qfYbKpAF877Yv29vL6+9/NLVR7ds2tR7aOGXC27YQ27qjZ19rrf48gvPvzfh7fffmfD+u+/85dVXxo8d89yzY/8u18dPupnF7xnmP86tD/Pfx+K7b7+1YtnSyR983y7cf88x/mT0CeC+cpMiC5dRVeIZOarerm2m+3mZ/j5T3Gm75XCGo335V0DosszHAAFiFATCv/p0f+LSK4CvrnC8qOxu5QiUkNdc5yV0NiHn6NlX/uKypwZMpiZG72VVHrs6YFV5aZWbVfsS9X671m1RuSmNlzH+q/4FumiDn6HcFmMNrWl06JsolddmPmpOOGRU74qP39k//pSJqqUMPqsmYNEEGbNfl9Bmo5rNuiatqlavPqSN365O2KPWHVcbc/TaGsaUPTKlavmMg6vn78xctGfZN1vmznjTzs61WD9l6ZfTk3y1RZIS65zjxZqKFTp9mUnX5DT5DQMaKHWVRVds0OzRxK1NGLAmTrU2Xr1WFbdD3T9HM6BIF1/nsPitRh+jDdi01TrVCZ3xYIJlp1qzy6g5Yla7HJYgZQhYdH6rsZmx1jq0BdR/1TpVVeYBeZTqKKU5ZtUVxvc7Zo67IcdpU6FO5aE1TUlGr0Xt1esrTaYjZt1exrjbpN1j0GxX9TtiVpc5zJWUtpE2eGyMm9J4WXWtXeVjTY1Gk8tkyjXG76TUu83qndqEA2b9QYOqiNE30NomWledqq1nEurNmiJDwnGzJovW7KP677T0O2LR5FrV+3U/O07F55l1hyn1UWM/jzG+kta7GWOAMfgYrZvVumxaN6sP0KZq1uhndU3m+Da7od5izDdTh9T6A3Ha9RrVPovpqCGhxBTvdxpdVJyHUflsmgv6/k2M+ZRan3Wn5nA/9T5t/H5t/zyDqsKs8pkSTpu1AY3uuI3db7EcUcVVmDV+B+Myq5soVYtJ56WtWTrdYb0pV0vVUdoWVtdsuKOZVZ3U3XmQ0m41addo4rfo+mfpNWUmnY/Wt9GaM4b4Wt2AbGPCCbV+d4J6szpun1FdZEhotmibtHectSb8q+Z5H3300Ucf1zD/gV/cdgEz/4Ff/FtZ/B8yzP8JFn8a+gRwX7lJEbn20umT6+iUWtrkd9Auhmqw0bVWq++51xFwcRAACJAlEBD5P1sAy1fK37RKBJKshOsGBJCQ0O725Gzf+tb4zLuHnkhN9DB0o8HQTFvctLXB7gg4dG67pt6ubnDoXDat4q/rsfzLXEPrWF2TzdLIUg2MwW8z+ozqZgdVYzOUJqlKnPpSu6kuyVrDaqsZVa3NUGeng1aji9H5WN1phzFo11XYVGUOrcth9DuYBpOuxmz8zmRAu1eMXZIFXuYEXOg4u2VT5St/qX7/Q9TUQRQ4iUAC/n/27jy+jfLeF7/v797X79zzW+7pARJvkrxoc1bHMSELWdgpWzmli3vantKetpSem57THk4bSoAQIHFInDgJAWIgLIXUrAlxUiBsARNiiOPYlrXv3vdNlm3Znpnn/jFaZqSRLMuyNZI/79f3xUsejzSP5NHk+fA8MzM59PzWe1+WZ9eqpY15V7WoZbYCqT0n/aJKen6Z/Ivlqi+Vik/zc8+qcqqX5TesUOiXKeoVEqta1pS3yFyQ1SRffFElubxMpVmi0BYVXFRJtAUSgzLbpJYa87JteTlGVZY256pmldShlrbl5+qX5lpys81Kif+GukGlU2YYlsj0S/J1S3KMKolDLbUVSHVLpLrcRRrpFUZVlmGJTFsg0agyGuSLLMtkrbkKe16ORSU1KdMteYta8zOb1dna/KuM+YtMyvSmvHStKrtBkdGozDQuy9ar0o15V3blZXXJJHZZtik325Eva1bIzEqJRiE1KDNNSzPty2WG3CyjKl+nltnyFuuVUqtS6lBkWxVZRlWWTi0xKmVWuUy3JMemktmUmSZlelPeosZl0k/zv3VevfgTufSCIke/VKXLlxlzpDal3KiQ6xUK3UrZV8rMb5RyXcHyb/LyPlNIapbJ6tVZWvViozpdXyRtWpJVvyznskraskJhVWRYCuQGhdSsyLTmL7YXSDWKTMOyHL0iS1ug0hXk69QSwzJp4xKJvlD9dU7WJZn0qyWSxoI8bYHia6VEu0KhycvUL5VdXplbp5BW52Z/WSA/r5I2qmR6RZZlab52SX6i9nMUCoVChdanRUveWV/8zoZ41PriT4uWiHCLC+RtLoQtzkEhAEMYLkK6unpIW0evXT/S1uy06IaM+r66rz0dbd5LXk2QKUKNE5q9l1NqYy+F5X88MTFBjfYzgz2ks4toTeSdqrHfb3Nee71BJrdkZrUo88yKTJ3iKvOSTLMi3ZKb6ciXafMXW9USm0pmVcsMymy9IsuqlpjkCbsKdJM626qQtKryzep8ozLXkiO1KiRaVbZDnu6US9uVClPmVV1LchzydEe+xCqT2QryNGppQ0G2IT9dl3OFsSDTqpa0yLO1BVlGleR8XtbL6dlfHj7A3juWIYRMeciEm0yNEWqMGh9hb3w1NTZp3X9wX3bWV1KJPifTppRa1bmXl0nMBZLm/AyzKsOizGjNz2yTZ1kLsgzKdEveIqtcZpRLzEqJUZVllGe0L5U71Dm2/Gy7JKtNkWPLzbLnZTuVMkdBrkWVY8yTOpW5LbIcozrPopBpVBKbIscql5mVMosiTBVcZS6QGZV5unyZVS0xKhY15V2pL5DalFKrUmpWZhny0w356SZ1trlAZl6S48iR2FUyY16mXZ7VuVxuLpA0yBdZVuTb1Fm6nKscS2QmRbZVLTMoM01LJE2qxeYlOdqcxUa5xLRc2aTK0edKvO0pkFtU2Qb5VRZlhi0vx6ZU6tS5emW2RSW1KiR2eZZVkWFQ+wNwrkWZ1aqQmCQZrar8Xrm8NVfiUGS3KrIcS7KNikV6Vbp5qdSgzLQqsjqUsvbcDEPBlbYiqV2d6ZBe1VaQY16Ro1eltykyLapsuzTDqpB05GR1Zy7qVsjM2VdaVFJdbqZZnWsqkBmUmRZVtlGx2KzMMskz2vKyW/KybLKrmpWZDnm6IfsfHPKMVrXEWpDuzF9sz19sLcgyK9LbFdnO3EWG/H80qhfZl0qM8iyLMsMo/5ZjeYZeld4gT8xOjkKhUCgUChVSCMAQBkPIKKHHyARhaDJITRAyNTZCaJeHkKlJ9g7GhGEoQmiGYVL6FGAv/7WgJycnh4eHHZ+8/9WLR1+679dP33zjm5s2fFZUUCdf7FBdZVopNeant6ikNqW0SZnVtESizc9oVsgsKmmzKscmzbLlSuzqPJ08U6/IsKoyE/Xl1y+XGnMzWvJzLMp8g1JuU8otClmTOtO0RKLLzzYrcq1Lc7XKK/TqK6xLJVZ1bkuO1KTK0RZI9Ios21K5Ri1tUuVY8nN0BelmZVbdMtXbmfL7ly5r/PQzQtHjZIK9njPDEA9FpghNkcnJidFXnnv+gRzpi/k5Dep8ozyrVZ5rzZVpl+fZ8zNtijyDSmZUZTXnZ9jz03XKDG2BzKrKN6mzDcpMszLLrpJYc7Jt+VK9XNKkzjYuzdErMmxqiV0lMcuzdfJMU0Fuk1JiU0otBXlalVS7JMegzjKos8zKLJ1aYpXLBMu8ZJFFltGWp3Qq5M3qbGf+Vc35GTZVvk6eZy5QGJW5FoXMqZQ150mcuVJHvky7LEOrTmdvVafNzzCoZCa1XJ+fp1PnWpYqmnKzbYq8ZkWuI19izctyqKUNSzLNS6V2lUyfk25QZpuX5BnyMy3ybKNcYlNnmRRXWhSLW+UyqzxPp5Bpl0qtSqldnmXPz7QqMgzqDH8A1quvsqqyjcuUjQVKQ16uuUBRvyynoUBqzl9sVWSZ8iXGfJlJlWcqyNUq0vVLMo2KxU3yqyzqTJsyW6eWXVqSq1XnteTmNSpkToVco841qiQOeYZWndlQIL20UmnOybAV5DXlZzUpJeYlOVa1TJcvNanyDUslWpXUuFSuV+SaFbkmVZ5Wndu4NE+nlulz0q1qmX6pTJOX2a5U2KQSqzpXU5BpVue3KBTNebK2pVKTfJFJnmNXLk30P3UoFAqFQqFQbC3kAHzyDeu2/z3xH78m//Er8p/3U7/7tec/7yO/+zn97/ej6H+/n/mdcCW8YfNdD/x28ne/HP3XHw18/86OGzfa16w0LVPo5RKLQrgS/ZWe77IszTXKs6xKqUYhffOK/7cs84q/3f/zyS8/IQNDxOUio27iGiQOq+Fg2dHCZU8v/tYX2f9wMWeRXpFlU0rtcolFnm1QZhoLssN9njOtOX+/M9zuXLczXp9bsnz+KBQKhUKhULOrBRyA+/fuOn392m9WLb24XP71SlXtyiUXVhdcXiG/uKJAsM4XLqy6EKYS3rB5rq+WKy4sV3yzLP/y0rymgjyjOs+iyrEpchAA2LIuk5sU2UZ5ln5p7pdLco7lZT4iWfQ7Wfq/rF72m+vX/fama3+0SvULteRBReZ+6T++VZD1jTy9XpFlVElsSqlVITHlZxmUmQZ1VrIEMARgBGAUCoVCoVDJXAs4ANN7Sz9cs0Kjym9SyjTKHJ1KfqkgRy+X6AryBMukWmiVH6YS3rB5Ld1SuW6pXF+QZ1TnmZUyq0Jil0vseWFHLBP9lZ7vMipldnWOUy41S9P1OdmNSmV1nuq9TNmr//iPr1+5+G1J7ptXZVRdmV4nzbVJpJ1SaVOBTLckx6SWWhQSizzbLM9GAJ6L9iAAo1AoFAqFQgnVAg7A5IkdZ5fLzep8hzrHopDZFHlNSknz3HdYUclVJoXUrGSvoiSxKCQ2ZbZNme1QIAB7SytNtyhkzoJcm0pmUki1qhyNKv+ySnlumfR0zpXv52d8opRUKyW1ammDKlOrztQtyTGqc4wqzoemyjYXJE0AQwBGAEahUCgUCpXMtZAD8K4dH62QW1Q5VkWWITfDnCfRKDJbVNkWZYZgmVULrJRZwpXwhs1vWZVSX7c+y6TINCky9YoMvSIDAYCtliUKi0JmzMu0qKTWpbmmAvZ4kWORZ9sUOU51vlOR71TktyjzHPmSlnypQSUzKmUmRbaJ/Z8IKqlFlW1S4xzgOLcHARiFQqFQKBRKqBZ0AH70k9VqU0GuTS0xqaU2Va62QGJTZoYNQoqFVXZ5lmAlvGHzXGzoNSkyDcpMgzJTr8xmCwGALatCYpFnm/OzbPnZdrnElp/tyJc45VJtXhZ7WGnKz9IrpUZ1jlaerZVns8Pp/BfJMikykyWAIQAjAKNQKBQKhUrmWsABeOCBrWcLlXql1KrKNhfILApZkzrblLfIopIKlr4AtRDLosyyKCTcPcGszjWrcxEA2DLKM0yKbPZoYlDJdEukjUsklwuyjEqZUS3VqSXaAolGldGgyNCpJdZlcvbuu/6nmxTZ7MyCZAlgCMAIwCgUCoVCoZK5FnAA7vjtrz8rKjCpcmzKbLNSZsiV6AtynEoJ20FHhbtvasIbNt+fg0LiL0u+NFAIAEqJWSkxFmSblVm2/OzmPFlLfk5znswul9lVsvZ8mTM325afaVVkWOTpTlVWu0pmly625EstvgBsVEnMSolFlW1VJ00AQwBGAEahUCgUCpXMtYAD8CcP/rHs+s3P3bDppS3rX732mtc2X/PihqKXr1/78qYNKBQKhYpjHdscXL7l645tXofHeIzHeIzH8/B4/jeKt5maW9y87uXN62bwCiJb31cbItSLWza8uGXDC5vXs/X8pnUVm9dXbF5fsfnais3Xch8f3bTu6KZ1RzdtOLppA/fxc5vXsfXsprXPblofVM+E1JGN645sXHdk44YjGzeEPj68acPhTRsObVzL1sFrrzm0cX1QHdy0/uCm9eUb1wnW/o3r9m9cl8ZUnWnc+XjTIw8bH3rQ8vCDjkceMm/fZnlku3n7H2dWD/+XcGF9rI/1sT7Wf/i/zA//lymkrA9tsz60jX0WHuMxHuMxHs/D4/nfKN5mam5x+x+t2/84g1cQ2fq+2hahTA8Hl8FbfzY8/OdoHusf2capPweVLmxt1z2yPfRx06Pbmx7d3vTonzm1Pag0OyJVw47tDTu2p5mtlvc//NuZv713+syJM387efrMidNVJ86cPvV+1WkUCoVCxbHOhNaZKhQKhUKhUCjUvFVau6O14VJdfX3dpca62oZLNbUXL9XVX65vqqurnVld/ka4sD7Wx/pYH+vP9BVQKBQKhUKhkrwuXbqY8DaEVhqhyXD/wPDw4NDo8PCYq394yDUy6h6dcLmGZlYjA8KF9bE+1sf6WD9MjQAAAADAPErbvX3fddet0yy/ybTi2ktFaw2FG41F63WrrtauWo9CTVv6VVdrV2y+vHqLvmhtU9Hmo9v/+PzBQycqjn544t2Ln58z1Nc5zea+rs6RYZdnbJymaQIAAAAAAJAgaeVPHvn2t68zFd9hK9p0uXi9fuW1upXrGpevSniyQiVFhQvAZ0+euPj5OWPD5WaLpb+7CwEYAAAAAAASLu3xB5/YuHF1/ZIthmVr2RFg0+qNhtXrEp6sUElRoQH4hUOHTz5f8dF7J2u/+NzUWN9itQ70dLtdIxPjHoZhEr3DAwAAAADAwpV24Mn9t9y63lB0s7VoQ93qdboVG7TL1zcuX53wZIVKivIHYN2qa5qKNlc8/KcXDz/93gvPf1J1qu7LarOmodVmG+ztGR1xIwADAAAAAEBipe3Z8eT1N6zWFl5nWbXucvFa46otpqLN+iKMAKOiKkPRGu2KzXVFm/0B+NjTR6qOvfjp6arL57+0NDX6A/CkZwIBGAAAAAAAEiit9NGd192wQrNik3HFmtpVV+tWbNSt2KBZfk3CkxUqKcpQtEa3cktQAD790jF/AG6z2zECDAAAAAAAYpBW9sSTN99aZFh9nYhJYVkAACAASURBVLVoLTsCbFy1RVeY+GSFSooKCsDPP7LtpSPPnHn5pc/OnA4NwLgIFgAAAAAAJFDanscevf7GFU2FG0wrr75UtEa/cpOhcHPTirUJT1aopCh/ANYWrhEMwOwUaLdrBFeBBgAAAACAxErbs3PP9Teu0RReZypcd6lora5wk6FwY1MhpkCjoirTqjWNq7ZoC7dcXrPWtnLL0zu3vXroSBVnCjT3IlgIwAAAAAAAkEAIwKhZFQIwAAAAAAAkCwRg1KwKARgAAAAAUh7DEIoOFC7tmrwQgFGzKgRgAAAAAEhVDEMGxpmLHUylnjlcSz9VQ+/4gv7TJ3T513S1kx6ZQA5OPgjAqFkVAjAAAAAApKSBcVLdyrxlZF5tYo5eZsq+ZnZW09s+of/9A/qXp+gfvEXd8wb1aj09NokYnEwQgFGzKgRgAAAAAEgxDEP0fcz7NqbKwrxhYI41ModrmdKvmEfO0Q98RP/b3+h/fY/+yTv0DyrpW1+h7nqNcgwgAycNBGDUrAoBGAAAAABSCcOQxl7mAztz2sq8aWBe0TCHa5knv2T+/Cn9+w/p+07TP32H+uEb9A/foL97nL7rVfqmY/S1z1HWPmTg5IAAjJpVIQADAAAAQCrR9TFVFuY9M/OGnnlZwzx7iTlWz5wyMV+1MI1d5HInc9bC7Kmm736duv0V+raX6ZtfpDcfpa8+RPWNIgMngbQ9O5+6/sY1msIbTIUbfAF4c1PhuoQnK1RSFAIwAAAAAKSMYQ+p1DNvGZjXtcyxRubIJebA18zAuMCaXzUzd71K3/gCfUMFtfk56uqD9C/fpGhEYNGLKgCfv/e+jz+tfvvd0yhuffxp9fl77wuXDP/v//l3ZQf2NzZpunt7BgYGBgcH2f8ODw93dXWNjIx0d3ePDLv6e/tGhl0DfYMjA6M97X3jLs+Ya8Qz6BoeHnQO9jiHe7v7h4b7XKNdwwPd/R2uob4J18TgwHhnj7tjZGyE6Rpy9QwNTA0PTg52Dw53dLraeif6uga7xvsHGNdYZ2ens7tjaGKsY7BveMTV39/f398/NjbW1dV1+fLlV155BQEYfDRVacUVJVW9wr/trS4prkgrrijVBD8lrczIW8f/4+yxL7i1upOzrLPquLedc9zgmrKKtGJfxf6meiu3si9yvNIU789nmi3P7+YAAABSAcOQD+3MKxrmWCNz9DJz+CLz1FdM6Xmmy00udZCKWnrHp/T2j+m/NjCeKUIIeaORWX+E2vIsde0Rav1hatlT1KUWJGCxiyoAt7T2dPcNJbqpotPdN2RxdIRLho8+tsNqt415ximGZhiGEMLw7xdGURRhCKGZqYlJwhBCE0ITMkXIFDU1OkpRk+OEjBJCEd9ymowR4iYThJokkzSZJOOuiQlCxgk1QTzjZKybuHvIWA9xT5ApMjZJpghDyAQhU4RQhNA0PTk5OTk5yW56cHDw0qVLCMDgEzFPdlYdTys+XrKVH6jYPFl8vJJ9UvwTF5sefa9PCPHm0uOVvXPaYHa7VTWEsxo/h0eL28h5SaSdVce9mR8BGAAAYMZcE+RQLf1MHXOolimrYXafZ3Z8zmz/lH70M/pX79E/eZsueYO6+zV6cwX1/EWGENI+TG44Sq9/mlp3mFp7kF61j/rhKxRGgUUu2gCc6HaKVIQAXPnmGy73CMUEvgEURRFCxsfHp6amKIqiKIrQDGEIG4An3JOEJgxFCEMIQxNCTxAyTpiJSYZMEjJBCEWmCJkiNGGmyMQE+wMhtJtM6kjn4abTP67ae/Nzf7j/6OOGThuZImSM9jDMCDM56Zkgk5OEIYQfwvv6+hCAwSdSnuyt3FqRVmasKePnQG+e9KWsMImrs+q4YAwLtzx4Hd4orrHUn0XnrMHsaryh45hFHqaOt5CPCwAAAGakrpPZ/RXzVA2z6zyz8wtm+2f0Hz+i/+N9+r5T9L+eoH/6Fv3Dv9LffY2+8QX6P6poQsjgGLn1eXrNQeqacurq/fTqfXTuTqp9CAFY1BCAZyVCAD54+FBHV+ckNeX/BgjEP4YwFE0Y4hmbYEeApyYmCUNR1CRDaIqQ8Snf4DBFaA8zRTGMdzh4klBThEwOk/Gvx6y/OvFU9kPfSX/8+7KHvrf/szeHyQSZImSUmiDEQwhhaELRhGYIIRRF0TTNRvHBwUEEYPCJENV6q0vYWKWp4o3HskGxqrqEHSyNEIDZ2Ck0mTl0eeimA6/JbeScNbimjDP8G65JQVOjvY2pLvX+ivP6/vfI35z/7ZeUVQWWhxsxZpdvPe7faODT83+AQQ0LenfRNxsAAGCBYhjyqoZ+9Av60c/phz6l//Qx/YcP6f99hr7vFPWLE/RP3qR/8Ff6n/5C3/Eyve4Itf8LhhBi6iHXHKSvPkBdvZ9avY9a9RSd+xhV24wALGoIwLMSOQAPDg8xhDCEsBOP/WianpiYIIRMTUyOuUfZidCEJp6RccIQ9geG0IQhhKLJJCGT7LAwIQyhKc8EM04RD2FGR4n7xEDt+md/84+P3HHljrvWPf1vnzAtPYSeIISM0mScTBEyRiianqIpXgPYADwwMIAADD7h8yQ7nbiy1xuiAuv4RkpryipKqnojzrk1lvrTF29Kc7jlfrzZyIGWzGGD+fOfhT4lgQFkdnno0HTkQFvVS/wnG0cRgAP/p4A7Rs15Cm8EOPTp0TcbAABgIWIYsr+GfuBj+oGP6N9/QG/9G/2bKvqXJ+mfvUP/8xvU94/Td/+Fvv1lev0z1I+O010uQgh56jNm2R5v+i18ilpRSskeoc6ZEYBFDQF4ViIE4MNHnh5yDTOETExNsnGXEDI1NcU7E5iNtTRDTU55HxOaIVOTZNIzOUoomkwyhCb0FJliAyxFqKlxFxkZIu5+MvxX2/uF+//5iidvu2rn7XdWbv+GdDuJ203I+BRDTxI2QY9PTbLnENP0VFDjEYCBI2z+6a3c6o9e3MecGNZbXVJcVRPVSafGUuF1wi3nnPQrtPU5aHCkAMxpDP/HKIIudznvdaJYX/jNhgzqhgvAM242AADAQsQwZPeX9G/P0L89Q99XRf/rSered+kfv0X/sJK+53X6O69St7xIXfsM/fsqutNFCCEfGpnVZdTqfYH0u2wXJXmY+hwBWNxmE4A7K0vS0koqp7s0TE1pFCvFtHLM4raVyCPAPX293lTrQ9OBC2LRNE1NTk16Jp58/IldTzw52D/A0FNHjz6748lHH979aOlTT7588Ok3njtm0xhHRzwUIRRNyNg4IZNDZMxMhl8Y+Vx1+If/z8Obc5688w8f7beQnmEyNkEm2atejU0wkxP+M4qn6Ikxmpr0T35mgyjOAQaOcHmSn4t4USowDtlbuZWdWhz3EWBOw4SGc+eiweGnQAdn41gDsNBFtmYUgLlX8+KM7oYJwDNvNgAAwELEMOTRc/QvTtK/OEn/7F32klf0947Td79G3fkKdfOL1N2v0O8bvF37l75hVpdRhXup1Xupwj3Uit3Usl3U0ieorIeoz0wIwKKWtmfnnutvXKMpvM5UuM4XgDc2FV4zfQDurCwpKSmZPkku0AB85Nlnevp6aeId8KUoijsR2puEGUIYIpNIMzMWd7S3EjK15fqN6ZLFV0qvkuZmKhdlqK/IzLsq+4WKl9grXk2Nj00RTwcZfWO09lv7bv+fh2/9hz03/7J6TwNxDpDBKeImZHKcnpogZIpN3lOEuD3EM0aYKUJo4ou+7NZ7e3sRgMEnTJ7knWvqK+78Xu5EXME7Bs3qHGBCAhe+Ejqhdy4aHOEiWCIZAeZF9CimQGMEGAAAIAoMQ3aco3/0Fv3Pb9Elb9Df+yv9T69Td71K3/4yfcuL1IZnqD9U0YSQzmHyyzfpJaXUqr1UkT/9PkkteYIqeJzKfJA6b0UAFrXYA3BnZUlJZSf7X98ybrBkH3dWlqT5lNYQ77BxWlpamLFjoWgq+BTuC/uXC6wZRZNmIeIU6EN9A70MoWlCMQxFCM0wFE1PEUJPTU0QQtP0FGEoQuiszPTsrIzWFichUxs2rr0q+8q9R/adr/n83Mmq3/3o3vxFkvxcef/YqIfQDJnqofqMZLC4/Gf/Y++N//3wjbd99tA50txEOrrJYDfpGyeTbsKME0IzhEwS4iHEwxCavZC0d/CZTaEMw2AKNHAI58mQGxFx7wnEC4q+G94KBeBwZ+pGecYpm/dKhS7pPBcNjnQbpIgn00YfgMOeA8xZx5vkwwbgwFB20GozPQcYARgAAMDnjSb6rtfp7/2V+qfXqbv+Qt3+Mv3tY/RNL1DXH6WvOUT97iRNCPncyiiepFbvo1btpVbuoZb70q96J6V6jFr0R8ragwAsajEHYF/y5SXg0LQZutAXOjkPOUIDsOBTOisDQ8/cDYWuOW2TIn46QrgrRBOAGe8dfgNFUWwcpdgfJdmZkuzM/r6uEffgd/7pjszcjNOfnqFoD5mkR53t6qy8rIzsTy98OUzGR4mni7h+d2pvxsO3fOvpu3Lf+Nm9DQeuf/GXa3Z853v7f/3VkLaDjLjYi2Ax3mtFkylCyBRFphjiDZ/+k5BxFWjg8I+Icuckm0JvgctJmPyRUl5gm6O2CdzUd64a7M2loduNdDnlqAMw5/WDZmILLw9O+5yp42XVnPOcfctDLjo9s2YDAAAsUI5B5qaXqLv+Qt/+Cn3rS9TNL9I3Pk9f9xy96RmquJy67216xEM+MDBLS6lVTwXSb4Ev/eY/QhXtojyTCMCiFmsArin1Zc3OyhJ/kJ0ubfJCr2ACDommgk8JXlhS2RnuxWcVgElIBg76beQA3NvfwwZgNuvS9BT7gA3AND3F0FM0NckG4JZmh2fCvWnLhsXZi97/9H1CpsgUbai5mL9Iki/Lcfa2D5PJHjL2mums9IEbskvv+rtHN8ue+UFO6Z2Ltm2W7Pi26rG7rt35Ux3pHyKTU4Rh75xEKMIwzDiZHCOTFKHZ/Ok/DRgjwAAigOQJAAAgFjRDfvY2fdMx+uZj9I3P09cfpbc8S288Qm04TF9zkFpXTt1whNpwkCrcQ60spZbvopY+QRU8Tqkfo5Q7KOWjVPofqeMX0d0VuxgDcE0pPxcGBl6nC8CB4MlNztwXDgnAoU/hLeQEYIEXn20AJpwMHPqriBfBKu/q6ZykJiapiclJz+Skx+MZm5qamJgYn5gYZx9MToyPj7kl2ZnZWRkd7a2E0MVrVsvk0n/6wd3f+/7d37n5FnV2juRbV93znbvdtKeF9OtJ753Pbc3YfkPG3ju/tfv2b22/8Zq9PyqzvF1BfZXx8C2KR+7eU/NGHxmdmPJMTlITk5SbnnQxky7iGWE87MWop6amPB7P1NTUxMRET08PAjBAAoRObxY85RgAAADm3aU2+poj1A3PU1uOUpueoTc8Ta87RF1TTheXURsOUjc9S2057D3pl5t+FY9SuQ9RKx+nPFMY/hW72AJwYPyX/2MKjgB7Pyah9EumC8BtHa3usRH32Ijb7RodHXG5hvz/dbtdbrdr1O1yDQ+yI8BNjZqhoYFbb7tlccaixelX5OVK0q+8oiBfcd9P7m1vdg5PjTjJwOtdX6T/8TpJ+Z1/v/uGfyi/Z+2x350f1ZlIy2fEnLP92+qnfvTzd3a30/0jY4PDY64+j7uVdndMuYfHXKNu15h7dGRkZHR01OVyjY2Nud3u9vZ2BGCAhPCduxvuQlwAAACQGAzD/OE0dfUheuMz1PqnqbWHqGvKqav3UwW7qAfeo8cnSVMHWfYkVfA4VbCTUvnSr/xh6h9+T110oq+bBNJ2b9933XXrNMtvMq249lLRWkPhRmPRet2qqyMF4KD8GxhuDQzqcm6RxA2mNaX+61PN5BzgkKcEne4b2FDImtM2aVYiB2Bni6NvoLdvoHdgoG9goK+3t3tgoK+np2twsL+vr6e/v3egv7e3p0sqyZJJsy0mc293z9VXXy2RZL36ykt6XVN3d7fT7nB39w90dQ17hg10x43P/CZr311XHvr2/9ixsfjY1jOMRe+yGt2WV3vO5Tx2R/qjt/369FOOsbaBgY6ewe52V691rN850j/Q3+vu6R3uH+jr6xsYGOjp6RkYGOjv73c4HLMPwPpVV2tXbL68eou+aG1T0eaj2//4/MFDJyqOfnji3YufnzPU1znN5r6uzpFhl2dsHAEYAAAAAERufIr53qtU0X5q3UFqzQHq6v3U6n2U4nFq2ymaENLcT5Y8Qakeo1SPUcpHKcUjVP7D1BX/Sb18gfZfagfELK38ySPf/vZ1puI7bEWbLhev16+8VrdyXePyVeEDMPcCVCGLfHOjSyor/VHWd9nlKK8CHTK1WvAp/hVLSwOZOeKaYZs0CxEC8IGD+81WU0tbc0tbc0dHW2dne2trc3t7q9Np7+rqaGlxtrW1dLS3trU2Z2dlSCVZFy/U9PX0rlmzJj8v543XX/vVz+999uhzXV1dA+1dTXV19/zzd587d/z6Y//2P3Zu+vuDNxa98rMPe+pM/c22Afs3w/r7zh/OOfTDK/503SNfHLX2mHpbLO1tjuYOp72zpbmjpae5pc/Z0tXW3tra2t7e3tzc3N7e3tbWptfr5y4Anz154uLn54wNl5stlv7uLgRgAAAAAEgWY5NMyV8o9W5q9T66aC+1cg+1bBd17QH6h8fo7xyl1Tsp5Q5KsYNSPELJ/kx96/fUKxdohN9kkfb4g09s3Li6fskWw7K17AiwafVGw+p1EadAi8r83DpYWIQAXHZgn86gNVtNZqvJ4bA5nXar1Wy3W00mQ3Ozw2w22mwWh91qt1ky0hdlZ2Wcr/6yraX1uo2bMhctfvO112684bo77v6OxWbtsNqe2P7nnCWyk+bP8nbc8b+euuX/P3Tzzta/6voNRuPlb9rr3x9rzHjqu3//xC3K3d/7q+MTQ4umzaJ32oxWu8nssFjtllazpdVsabbZrVar3W43m812u91ms9XX189FAH7h0OGTz1d89N7J2i8+NzXWt1itAz3dbtfIxLgH/1cMAAAAAJICRTOvXqSu3kcvL6WW76aW7aLUO6mcR6jchwPTnnMfom49ROk6MMaTTNIOPLn/llvXG4puthZtqFu9Trdig3b5+sblq0UegGtKha48Pe8iBOD9+/c1Nta3tDgdDpvZbGxtbXY67Q6HrbnZYbNZbDZLS4vTbrcaDLqCAlVGxuILX39lMurvvPGm7CuuPP7qXw4cOJAuydDpmrod9ttuuu67/3L3F32Xlzxyx6Inbso+/J03yTf6/gZd8zdnhr++qfIPf1d6+1UHv7/x8K+/HjObW3RtVpPNYTa2mLWtVn2r1eawO2x2h93qcNhaWpw2m4VtiUbTEMcArFt1TVPR5oqH//Ti4affe+H5T6pO1X1ZbdY0cM8BRgAGAAAAgCTyjZP5dSW1YhcleZjKfojKfJDK2Eal/4la/F/Uuj1Tu96nekfQv00yaXt2PHn9Dau1hddZVq27XLzWuGqLqWizvkjsI8CcqdJxOZk3RhECcHn5/vr6OjbrWq1mp9NuMhlsNovdbvVHUJPJ0NHR9u67b3/88VmTRd/stFaf/aj67Ec2i/XipVqlWrGndFfdl9WyzCsPvLivbsx4w4GfF+z97oqKn/yFPv9R2yeXxxrv+et/5pR//+923pL+xN0v2D/+sq3e6jA2W41Wu0nfbNK0WppaLFa7zW61Wa1mdrvsQLTNZmlouDz7AGwoWqNdsbmuaLM/AB97+kjVsRdDL4I16ZlAAAYAAACApDM2yXQOM7Zebzn6mIFRhqLRs01KaaWP7rzuhhWaFZuMK9bUrrpat2KjbsUGzfLgq0B39w0luqmi0903FOk+wIcPajQNbOxsbna0tDhNJgM76muxmNjzgR0Om91ubWtrcThsVpux2Wlttdl629ttNpvJYr71tm9ff93mh/7z96sLl1621n3edvG+yh05f7xpyb57/kJq35iqueX5+zMfvkWx5/vKx7/321P7agYN+jZDs93UbjE77FaL02pstlqc1mabtcVqbeaMPzuddrvdGq8ArFu5JSgAn+ZcBbrNbscIMAAAAAAAiEFa2RNP3nxrkWH1ddaitewIsHHVFl0hL+SYHtje2j2ICi3TA9sjjABrtRq73coO/7a2NrMTodvbW61WM3sOsM1mMRr1HR1ter3WbNK1OW1mvc5sMrS0tFjtthdeeCErI1Mulf70Jz80tBrq+/QvNVZt2FmiePDWNc/+/MrHbl28+868Xd/N23b7r17fWd3TYOm1W8y6Nqu53WJutlkddqvdbnXYrW0Wa5vF2tLssNutDoeNbc8cBeDnH9n20pFnzrz80mdnTocGYFwECwAAAAAAEihtz2OPXn/jiqbCDaaVV18qWqNfuclQuLlpxdrZR6MFXnv37mlqamxudlitZovF5HTazWYjmz8dDpvFYrJazexsZIfD1tba3NHicFpNVqu5pa25ubXFbDY7bPbCZcuzszIuXqpxdDs1ncbznY0P/LV0zbbvqh+7J/3Qj/7XnrtzHvrOv7+992KPztFtNxmbupsdbVZzm8XaYg0U+6PTt1G2MXEPwNrCNYIBmJ0C7XaN4CrQAAAAAACQWGl7du65/sY1msLrTIXrLhWt1RVuMhRubCq8ZvbRaIHXgQNl9fV1ra3Nra3NVquZvRoWO/+ZvRlSa2tzc7Ojra1Fq9U47NZ2p81pNZnsZkuzTWs0GI3GjpbWp8sP/uEPf9CadHXaOluPs75Nd6nfuPuD54u2//D/e/BWye4f7ql/96LLbGo1drbYWy2mDpu91WFvddjb7PYOm73DZm+z25uddqfT7p/83NzsYBtQX183+7dpWrWmcdUWbeGWy2vW2lZueXrntlcPHaniTIHmXgQLARgAAAAAABIIAXiuau/ePWfPfqDRNLS2NlssJvbyV1arubnZ0drarNdr2fFYp9PudNpbmh02XVObw2pptpnbHc621paWFofJ5jTbv7l4qXd40Gy36cx6o8PY5u4+3655r+Wb/dozH0xaLg7aGpw6i1lv0+qcDpuj2Wm0W002q8NibjGZW0xmm9VsdBj1TqPdabNYTOyAs9Np12gazp79YPZvEwEYAAAAAACSBQLwXNVDDz34/PNHP/jgbwaDrrGxvrGxvqmpUaNpqKur1Wo1Gk2D2Wxsamr8+usLZrOx4VKtQ2/Q1F2s1dbXGTW19Zfrai/ZdWZdfZPWaLrY0NCgaayvr7ebTTXfnP9Se/ELZ+PHzvpPLJe+avi6SdNg1+mtTXqNtqlW23jJ0FSnb9JqmgyNjXpNo0bbeMlQX2usb9RrGhous224fPnS2bMfVFQ8N/u3iQAMAAAAAADJAgF4ruq//7f/67+lpT1Vuqds777y/Qci16H9ZUf2lR3aX7bn0IHSwwf2lR8o33/gyL6Dh8sO7is/uPfgwf0HDh4qO/jM3gOHyw7sPXig9HDZ3oNlBw6UHS4re2bvgSP7DhwqO7iv/GDpoYO7Dx/cc+jA/vID5fsPHDhQtu9g2e6n9+5+eu++g2X79+8/cOBAeXl5WVnZrl27Hnvssdm/TQRgAAAAAABIFgjAqFkVAjAAAAAAACQLBGDUrAoBODU8BgAAAABxlej+HQhDAEbNqhCAAQAAAAAgWSAAo2ZVCMAAAAAAAJAs0vbsfOr6G9doCm8wFW7wBeDNTYXrEp6sUElRCMAAAAAAAJAsEIBRsyoEYAAAAAAASBYIwKhZFQIwAAAAAAAkCwRg1KwKARgAAAAAAJIFAjBqVoUADAAAAAAAyQIBGDWrQgAGAAAAAIBkgQCMmlUhAAMAAAAAQLJAAEbNqhCAAQAAAAAgWaTt2bnn+hvXaAqvMxWu8wXgjU2F1yQ8WaGSohCAAQAAAAAgWSAAo2ZVCMAAAAAAAJAsEIBRsyoEYAAAAAAASBYIwKhZFQIwAAAAAAAkCwRg1KwKARgAAAAAAJIFAjBqVoUADAAAAAAAyQIBGBV7eTye1tbWzs7O/v7+QY6hoSH2v37Dw8Mul6unpyfROzwAAAAAACxcCMCo2AsBGAAAAAAAkggCMCr2QgAGAAAAAIAkggCMir0QgAEAAAAAIIkgAKNiLwRgAAAAAABIIgjAqNgLARgAAAAAAJIIAjAq9goXgEdGRkZHR0dGRhCAAQAAAABAPBCAUbGXYAB2uVyjo6MrVqzgZmAEYAAAAAAASDgEYFTsFRqA2fQrk8nWrFnzk5/8xJ+BEYABAAAAACDhEIBRsVdQAGbTb15e3m233fbnP/+5rKxs9+7dbAZGAAYAAAAAgIRDAEbFXkEBeHR09Ac/+MG2bduOHTt24sSJDz744Ny5c++///7o6CgCMAAAAAAAJNy0AfiMJ+gZ9jMzT0pnPIQQV11HtMvjWOVuFyHEOZDorJiSJTgCHAojwEmit7qkuCJta3UnZ1ln1fG04oqSql6iqfI+iPDc4opSDWehpiqtuCKtzMhbx/8jX01ZRVqxr8KsE817qNzKvsjxSlOkzcVfxHcHAAAAAOIQXQD2h969dRSJIQMjAKdm4TZIKYZNj8crOSG3psy3JGIA7qw6nlZ8vGQrPwGyAdj/gmEjIrvdqhrCWY2fw6PFbeS8JNLOquPezI8ADAAAAJAEZhiAV60fsBNCXO69M0pKCMCpWQjAqYYd7+WM4hpL/Vk0UgDurdxakVZmrCnjB1dvAPbFwnARUVMVPHQcs8jD1PEW8nEBAAAAgMjNOABrTzkJIZ5T67WrfAPCXv5UzGZOdhkbbtmg6/Kv7H26LwC77UHL+S/Cja/CW+S+vnOAu5q9DgEYARiiFpRRuXkyQrbsrS5hc6CmijeAzCbbquoSdnQ3TACuKeMM/4ZrUtDUaG9jqku9v+K8Pltbqzv5m2PDalpxRUlZVWB5uBFjdvnW4/6N+p+e5v8/AkENC3p30TcbAAAAAOZPjAGYqi3n/yowlttR6yKEeE4FHvhOJGbzKnfU89FL0gAAIABJREFUl7ucTbycdbyplTuEK7xF/uvwf+VNwgjAc1IIwKmHNxuZndjsDbThA3Bgtd7qEu46vqHdmrKKkqreMAGYP/85CPcs4pCAKjA0HTnQVvUS/8nGUQTgwGg2d4ya8xTeCHDo06NvNgAAAADMk9kEYHZJ8FAtm3v55wlzw2pIoPVPgfaPLQdtYrotCr6Ob31MgZ7DQgBOQYGTftloyg+BQoGNu5rAU0o1bAisqpl5AOY0hv9jFEGXu5z3OlGsL/xmQwZ1wwXgGTcbAAAAAObJbKZAey8QHRgN5o3ZegXWjC4AU7XlnKHjoEAbbou81+E/HQF4DgsBOBX5Q5rQcK5AAOYHOV72Cwyc9lZuZedCz2gKdHA2jjUAC11ka0YBmHs1L87obpgAPPNmAwAAAMA8mcVFsLgnAwtezuqUk3ifG6cR4LBbxAhwYgoBOCX5LnwldEJvaADmnRzrK+6EZO7MYeFbHIW/CJZIRoB5ET2KKdAYAQYAAAAQq1ncBimQb33TnolzwJuQieeUd+XAaG24AOzNtKHLQ84BDrPFkPjN+ZF9CgIwAjBEj817pUKXdA4JwCF3TuLexIiXbH136J3RbZAinkwbfQAOew4wZx1vkg8bgAND2UGrzfQcYARgAAAAgMSJLgBzBY8Gs5zuWhf/claEEMERWoER4OivAh1miyHjz7gKNAIwxE5wtNa/MFDHK02h9+zlRGL+0C4vYYbw5tLQ7Ua6nHLUAZjz+kEzsYWXB6d9Y2mgDdWc85x9y0MuOj2zZgMAAADAPJk2AKNQYQsBGJIQkicAAADAwoUAjIq9EIAhOYRObxY85RgAAAAAUh0CMCr2QgCGZOE7dzfchbgAAAAAYEFAAEbFXgjAAAAAAACQRBCAUbGXx+Opra195513Kvief/559r9+b7311uXLlxGAAQAAAAAggRCAUbGXx+N555132traxnxGR0dHR0f7+/t7e/t7enq7u3s6OjqdzuaGBs27776LACxaRgAAAACIn1tvvTXR/TsQFjkAs/ciYm81tF7rvwuR/4ZD7N2GXHUdvJsbxavm4jVR8SyPx/Pcc8/5o6/LNTI0PDw4ONTa2u50ttjsTrPZ1qjRfnm+pqlJ98yzzyAAixZ7mAYAAACA2UMAFrNpRoDZxOu7Pe8ZDyEeuzMQSk85CWHvDIwAvBCLDcDsqO/IyMjQ0PDAwGBfX7/N5jSZrHqDqalJ//U3l7744quGBg0CsJjhMA0AAAAQL+hZidl0U6BPOQkhVG25dhU73utyn6qjfGPCHbUuEojHcS8EYLGXPwC73e7hYRebfru7e01mq05nbGzU1tU11tTUfv75+fr6RgRgMcNhGgAAACBe0LMSs+kCMDvJ2X5Gu4oNw86BVWc8vkg8YCe+CdKcsMo+JcA3g5q33D+t+oyHEOJyUSTk6fY6TgBmX599qm8CNirRhQCcMnCYBgAAAIgX9KzEbNqLYJW7Xd7MOWD3JmHfg8CvhEdruaPHbNBlg7Q39LJPPOMhJCQP13Ws8idh5wBnqHmOx5xRMysE4JSBwzQAAABAvKBnJWbTXwV6wE4IcQ6sKne7vGm2o9ZFXHUdvEwbGoAFJzBzBnK9v+KG4aDMHHgFNvf6toUSSyEApwwcpgEAAADiBT0rMZs+AHfUughxufee8fiHXtm50HvrqMBgbHDcZSOrL8qu9430skvYxwIBmD/AWy48BRojwKIpBOCUgcM0AAAAQLygZyVmUdwHmA26tYFrX3mvhlXr5ExdDgrA/HHdVd6hXe7VpHlToKcbAdbyXwdDwSIpBOCUgcM0AAAAQLygZyVmUQRg3+AtJ9D6x2P96ZQXVjkXx/IVJ7h65zMLToHm/sg+hTgHuHdj2ltH8QaWUYksBOCUEfkwfaC8PJqazwYDAAAAiBYCsJhFE4C9+ZM77hqyJMJVoDnX0PJyur3TqtcLjBXjKtDJUwjAKWPaAOwW4vF4JiYmxsbG3G43AjAAAAAACwFYzKIKwCiUYCEAp4xoAvCJ02e59c2lhmOVn2/b/bbV0TY6OooADAAAAMBCABYzBGBU7IUAnDKiDMC19Tq2LjXo+weGS/7t2E0/Pnz2XMPY2NicBODOypK0ksrOqJcDAAAAiAACsJghAKNiLwTglDGjAFzXqHe2dJz8sP7mHx/+9bbjnZ1dwVOgOytL0oKV1sy8WQjAAAAAkIQQgMUMARgVeyEAp4woA7DOZHO0tOuMVteI+2d/ePXWnx755Eu9xWoVCsDxCKgIwAAAAJCEEIDFDAEYFXshAKeMaALwV9/UfVNve+3E1/0DAx99obvtZ8/+6k/HPR6PTqePNgCzyytLQ4eF+WPGvucGr+9bnf/6NQKvBwAAAJAwCMBihgCMir0QgFNGNAHY7mz+9x1v3frTI/Xalt88WHnHz5/74JxubGzMarPPJABzUmpNqWBk7aws8S7nr19T6ovGnNfnvgYGhgEAAEAMEIDFLLoAzLuzEf8Gv8JVHnIHI/8dg2dZvpsSkzi+JirGQgBOGdEE4Lr6Rntz97f/5Znb7n32jp8/94sHXvdMTLrd7uaWlmjPAQ5KqJFysj8AC60f+sCrphSDwAAAAJBoCMBiFkUAPuUkhFC15eyPHbUuQojnVORoNEcBmPtS/BsI762jOLcpFq5o1kHNpBCAU0Y0AfjC1xd7+ob2VXx8+73P3fmLo++dbWRvAtzR0TGzKdDCATgoNEcfgINgCBgAAAASDAFYzKYNwPycGZxCw1V8R339dcZDCAkNsewAdeRwG806qBkWAnDKiCYAX6y9ZDZbHC3dZRUfHTz2qWtkrK+/v7e3r7u7Z9YBODC72bc8XADmL/cvAQAAABANBGAxmy4A84d/2eIMAnvjsdvufTnfyHC4EeBw66/nzW3m5W1usesE5Wr29VnOgVWCE7aD1uGm+tCmRm4DCgE4BUUTgFmjo6MTExMej4f9u/vNKgDzl/PPAeYPEbNpN8w5wIR0VpYgDwMAAECCIQCL2TQBWHjCcyAVs4mUDZmRUyUnAAusH+5xSJ1yehvOXYE3ussdJea8VOg6IU31v9nopnmjEIBTx7QBOJoKPCGGc4A5l3IuKS0t4V4ES/ia0YJXgcZ1oAEAACDxEIDFLB4BeJrQG+7EXc5ygdOMI11qa8A3gOwNtALTm8MMC0cRgDFNGgF4AcJhGgAAACBe0LMSs/hMgZ5lAPYmT77orrPlcu8VCre8AepoAzA/NmMEGAF4AcFhGgAAACBe0LMSs1leBGtORoCjrEAO54bbU04SyK4zmwIdeHF2ojWGgqcrBOCUgcM0AAAAQLygZyVm0d4GyZ8G+ZOi4xSAp02kAi0JeTonALOPfQPLIetwn+u9YpZzwDez2p+oZxrIF2AhAKcMHKYBAAAA4gU9KzGLIgCvEryucnwD8HreVaDD3z+JP1k60BLfWcEu917OGcLE6eacTsxdJ3AxLXsdrgKNAAw4TAMAAADEC3pWYhZdAEahhAoBOGXgMA0AAAAQL+hZiRkCMCr2QgBOGThMAwAAAMQLelZihgCMir0QgFMGDtMAAAAA8YKelZghAKNiLwTglIHDNAAAAEC8oGclZgjAqNgLAThl4DANAAAAEC/oWYkZAjAq9kIAThk4TM8jTVVacUVJVa/wb3urS4or0oorSjXBT0krM/LW8f8IicL+IbZWd3p/NpYWV3D/uJ1Vx70/xvAnm4u/MvY9gHkTfHwghHtMmKsvo/coFFS814F5gp6VmCEAo2IvBOCUgcP0PIrY7+msOp5WfLxkK79bw/Z7io9Xsk9CCBELtq9ZVcP+pKlKK64qLQv8aWrKfF3PZAjA2PcA4qq3civnu0MI8R4Tjlf2zv2Xsbe6JELAhvmAnpWYIQCjYi8E4JSBw/Q8itTv6a3cWpFWZqwp448bePs9vr4OQohoBLqzbJ91a3VN1XHf347t/vri8UzNdwDGvgcQZ+x4L2f01VjqHxOe6y8jAnDioWclZgjAqNgLAThl4DA9jyL0e3qrS9jekqaKN26gqUorriitqi5h0xRCiGhwO7g17Nhv4G/H6exy/2TsDrD1eBp/SRp/+nTwXznCOtyFoUu4sO8BzCehb7H3CzjXX0ahAMwer7zFidb+5SVlVfiCxw96VmKGAIyKvRCAUwYO0/MofL+HnfZW2RvSd2H7PRpSUxbrCaUwRwJ/KWOpNwn7HnD/iCEBOND7DNcnDs3Mwev4R5gjPODDvgcwr3jfxMC3jMz9lzE0APueHrx1zmP2rA18weMEPSsxmyYA/xhAyLlz5xCAUwkO0/MobL+nt3JrBW/2LD8j+TJVVQ1CiIgYS9m/RW91ibdr21u5NXCRG293M1ya5U+i5v3dOU8Jsw7bt+ZOsAxdwod9D2B+cb68At+sOfwyhpsCzZkkInB4wRc8ntCzErNpAvA5gDAQgFMJDtPzKFy/h9/z4HVKAlGqt3IrOwUOfRSR8PVQNVX+cR52LnRn1fHAGGzYAOyNrPwKmt843TqRl3Bh3wOYZ/4vndBw7hx+GcOMAHMvwcU5vAgdqWC20LMSM0yBRsVeCMApA4fpeRSm38M7OyvoNM6QqWuYpSYebNCtDFz7yns1rEruBWyiHQHmCDsCLCBwuenwS0I3zX8L2PcA5oLvWgBCJ/TO4ZcxJADXlAVdsp477RkjwHMBPSsxQwBGxV4IwCkDh+l5JNzvCblhBvcektx+j388EH0UkfD1RAWuTSV4x86gHSDceb/hnhJYHrgJk++kwdAlAk3Fvgcwn9jkWSp0Sec5/DIKB+DAAHKa0OEF5wDHFXpWYoYAjIq9EIBTBg7T84hzOV9fHa80cXo5XpyeEK/f4xsiQB9FLNjYGXKzE+6SCAGY8HcJwcwceZ0ZXgUa+x7AvBIcrZ3rL6PAOcDe41JacUVaWTX37GJv7i3GOQ7xhZ6VmCEAo2IvBOCUgcM0AADAwoYp0PGEnpWYIQCjYi8E4JSBwzQAAMCCwxtJ5g8yw+ygZyVmCMCo2AsBOGXgMA0AALAA8a8zj+HfuEHPSsymCcDn773v40+r3373NCq56uNPq8/fex8CMEQJh2kAAACAeEHPSsymCcAtrT3dfUOJbiTMWHffkMXRgQAMUcJhGgAAACBe0LMSs+kDcKJbCDFCAIbo4TANAAAAEC/oWYkZAnDKQgCG6OEwDQAAABAv6FmJGQJwykIAhujhMA0AAAAQL+hZiRkCcMpCAIbo4TANAAAAEC/oWYmZqAJw57ltlYbxedxgSkMAhujhMA0AAAAQL+hZidmMAnDnuW0c5zrj3RgE4HhCAIbopd5h+lZIKKNR+F6SiW4XgLBweyzMUqL/sACxiMsBIfV6Vqkk+gA8bqjkZt7Oc/HPqgjA8YQADNFLvcO0ERINfxdILvN8jFogEv1XBYhRXHb+FOtZpZKoA3BQ/uUJjAz71uCNFXMWVho6DZWBZZzVznV6VzB4lwlF4ZAVOkNXFmxM6Mtyw3ZqBm8EYIgeDtMAAAAA8YKelZjNbARYKCeOGyp9iwVDcmBh5zleVB03VPpD6rjhnC/OBtYNzducFcYNlbzHgUchjQl6ln8hAjACMHjhMA0AAAAQL+hZidmMzgFmQyd/JJUXerk/cAeB2ZX5OZOTVX2mDaXhVvA9Fm6M4LMQgBGAIQCHaQAAAIB4Qc9KzGK8CnRg9JZ/YaxtnKUhk435OVNgjHfWAThsYxCAEYAhEhymAQAAAOIFPSsxi/k2SNzMGTJXmbcwTAAWmC8dlwAsOHEaARgBGCLBYRoAAAAgXtCzErOZXASLGy0DmZE3lZk9l5e3LDAYHJQzBc8Bnl0AFmxM+DU5ZxMjACMAL2g4TAMAAADEC3pWYjbDi2AJ3wWYM/OYe2qwd8VzwiPAQU/0XwV6VgFYsDFh1gxcQdqAEWAE4AUOh2kAAACAeEHPSsxingINYocADNHDYRoAAAAgXtCzEjME4JSFAAzRw2EaAAAAIF7QsxIzBOCUhQAM0cNhGgAAACBe0LMSMwTglIUADNHDYRoAAAAgXtCzErPpA3B331CiGwkz1t03hAAM0cNhGgAAACBe0LMSs2kCsOmB7a3dg6hkLNMD2xGAIUo4TAMAAADEC3pWYjZNAEahIhQCcMrAYRoAAAAgXtCzEjMEYFTshQCcMhbGYVpTlVZcwaut1Z28NYylxRVpZca52YSxNLC8qib2bUTeSm/lVt/CuXojXjVlFWnFFaWa2DcivLmgZgv+SlOVVlxRUtUr2NSQJs36zzpPrY3fHjIfrY3TnjZPrfWK504bpQjvKMzK3rezkHRWHZ/2gBOVcB9gb3VJfHfUucY2mP8hsJ9SSVXvTHd7UYji3xSvGP5YIv37LoyeVbJCAEbFXgjAKWNhHKaD+kbsv8f+f4PZf0HjkRuFNsGmBTbVGEtj7t5N90YC/ftZ9qQjf1Yk8HHFobPF7bsEbTfcr0Ie+5vB9hEDrYrLn3U+WhvXPWTOWxu/PW1eWst7kflMCBHekaD4fZidVcdFGoSECPyxYpMyAdh7QDheyXkrNWW+JTPa7UVi2n9T/GYdgEWz8y+MnlWyQgBGxV4IwCljYRymg/tGnMgxo1Ga2DbBEejHzN1WZtnhm24TbP6JY59V+HXC/Sp8/4+XHuP1Z52f1nLMdg+Zz9bGMVrMcWvjudNGKcI7Cr/+7AOweFNQGAjAoUI+k+Aj24wOKYkX3T+OsyemnX9h9KySFQIwKvZCAE4ZC+MwHTkAlxnj0EmK6t/4Wf/DH81WZtrzntEmeqtLiqsq49pnFf7Yw/0qUv+PzTlx/bPOT2sD4tc1nIfWznJPm7fWxnenjVI0zRYYJa72TYb3NT7ccv8miiuCXzDus9PnUtjQEv6N82ZN+/NeuPWDDgKhH5oICbV52okPRPiQIgLT/Q/okq3HvXts0BsX3J/DPYW78hNV3NdJxMeyMHpWyQoBGBV7IQCnjIVxmBacgsXtIMY9AAt2fyP08uO1ldlnkoibqCmrKKnqjeP/aPcPzYV2RoV/NX3/jzN8Gu/Bn7ltLYnHHjJvrY1j+p3j1sZ9p43S9M0OCcDeOMc9C5S7PGIQYh+LaRAsKqHnAPNOcI087BmyXOADjGYKvejw/kdYZ9XxwFdvpocUMYjwb0rQdOjQbwT7ONw3hf+rOT+vZAYWRs8qWSEAo2IvBOCUsTAO09wJsUHjBqw4BeBIm/Be6GjuLoLF31DM/95H2ISmiu1dxbuTHbgElPBVrLi/SmgAntvWxmUPmb/WkjnoWc5Ba+dqp41SxGaHP0+YN5dBaH3+n6O3cqv3D5GkAXiaKe6hX+TQscFwH2AUH5oIcZrKb2fSBuDw/6YIn/Af9F6Ez4Im4QIw53Fi/k/HwuhZJSsEYFTshQCcMhbGYXrafwLjPwU6eAOh1zWZg614zaobFHYTvZVbBfoZcSN07VOBX81oBuDcnf4X/9bGaQ+Zp9ZyF8a7zfFs7RzvtFEK1+xpAnBIdz+wPudC3IGqqlkIAdibpgIfzjQfYBQfmhj5305vdUnI8GmST4EO/6vgP1bQtSdmEID9y3nj5/NnYfSskhUCMCr2QgBOGQvjMJ3oABy3W7DMIADH2g0KtwnukEvYYbrZiHD6a8g5Y1FeA2YOr38T59bO8U165uCzDTQ77h3u+LV2znfaKIVpdtxGgANSPgDzdrnwU5qjGAEWOd8+7JvC4DXzL2nixRKAZzsC7H3K1qrSxIzzL4yeVbJCAEbFXgjAKWNhHKYTG4CDzlmajcjDs97uwuxufhtFxo5XJ5uX+vh/grC/Ct//C3vzm7ieUjsnrY3jHjLnrY3fnjYfrQ2Y52QYttkh/XX+wGZwZosqMIcsT/UAzN0Vp/sAo/nQRInN8KVl/CPDDHd7UYgpAEc+BzjCUwKfgG/qdSLO9F4YPatkhQCMir0QgFPGwjhMJzIAh867i+NtkLgCZxvG81bDQuLX0+J/OLxmh/lV6GVvIgzuxbmPO0etjeseMuetJXHb0+aptV7zHg/CvqPAPZmqor8KtFBm477rwE7u++uIcCRQSOhFsKYZKufufmXVgfNjw32AUX1oouRvashlDqPf7UUhtgDs/zHoQ4j0lKCdn/0xIWP+C6NnlawQgFGxFwJwysBhGgAAAFLMXFxWMNpNo2clYgjAqNgLAThl4DANAAAAqYU7iXq+oWclZgjAqNgLAThl4DANAAAAqcN3okGiromNnpWYIQCjYi8E4JSBwzQAAABAvKBnJWYIwKjYCwE4ZeAwDQAAABAv6FmJGQIwKvZCAE4Z3MP0EAAAAADEJLRnBWITOQCXu12EEJd7rzfwDNgJIYS46jrYCLS3juL+6F2fEPsZTkw64yGEEOcAbx3/j6gkLgTglIEADAAAADB7oT0rEJtpRoDZxOs5xQaeMx5CPHZnIL6echLCibt76yhCKJeLn2/ZAEyo2nLtqvUIwKlUCMApAwEYAAAgvjQazcnkodFoEv2BpYjQnhWIzXRToE85iT+77q2jiMt9qo7yjQl31LpIIB6zPzoHTjm5g8b+AOwLvQjAqVMIwCkDARgAIDZ6g+njT6vffvd0UtTHn1brDaZEf2YLxcmTJxPdhBmY59bOw/8dSFSkD+1ZgdhMF4DZSc7sGO8pduz3jMcXiQfshJN1y90uds3ACtpV670B2F7ndrFRGQE4dQoBOGUgAAMAxKaltae7byixx/DodfcNWRwdif7MFgoE4Miba21tnbtdvbW1NVGfP9sABGAxm/YiWOVul/cs3wG7Nwn7HgR+pV3lm/9cWx683BuAz2hPOYmrrgMBOIUKAThlIAADAMSmpTXJ/mlDAJ43CMCRNzfXuzoCMIQz/VWgB+yEEOfAqnK3yzuu21HrIq66Dn+yXbXeu5A3Ndo/MuxfrdztIp5TCMCpUwjAKWPhBOAD5eXRlPi3khqbSLqWRCO5WjuUbA0WYWsRgOefCHcDQQjAkTc317s6AjCEM30A9qXZMx7/6b7sXOi9dVTgBGB+rOWeOczJyR21LnYuNAJwahQCcMpYUAHYLcTj8UxMTIyNjbnd7rgE4LneSmpsYpYt4RJDZ5eVXK0dSrYGi7C1CMDzT4S7gSAE4Mibm+tdHQEYwoniPsBs0K0NXPvKezWsWs7FrthThYN4Z0FzB4qDLoiFSu5CAE4ZMwnA9k/uKa5Iu/8T7lVUTG++llZccc+bjqELJ7wPIjy3uGLHBc7CCyfSiivSdtXz1vH9yL4yb4VZYbtNJ06f5dY3lxqOVX6+bffbVkfb6OhovALwnG4lNTYxm5acOH325JmPzpz99OPPvhBJZ5eVXK0dSrYGi7C1CMDzT4S7gSAE4Mibm+tdHQEYwokiAPtTa+j9fn05lr0cNOfCV9wbCIfOlCYIwKlRCMApY0YjwI5j91ekFb92zB5Y9PEu35KIAdj05mtpxa/dcz8/zbIB2P+C3ABs/+QeNi3bP7knQq6eAX+3qbZex9alBn3/wHDJvx276ceHz55rGBsbi2MAnrutpMYmYm5Jbb2uocmoM1otNscXX34lks4uK7laO5RsDRZha0MCcE1pWkllZ+iBtrOyJI3/m5rSNO6ScE+M/KsZS6UALJ7dQBAvgFnePfAY68UL4Z+SQAkOwJ2ny72fz8v18dnTEYAhrGgCsPduwIH7/QYv4cZdb3EiMS8A+8aKEYBToRCAU8bMpkCzo7KcUdz6Hf4x4UgB2HHs/oq0XfUf7+IPIHsDMC/0so/ZwHzM7nsuf9g5JkHdprpGvbOl4+SH9Tf/+PCvtx3v7OyKS7dpHraSGpuIuSUandlosdsczS2tbRdqvhZJZ5eVXK0dSrYGi7C10QbgzsqSkpIS3q9qStNKSkr8S4SfWFOalpaWloYAzCHC3UAQJ4BZ3j3gC74XXnzswLuWhDUqrIQG4M7T5b7gW//yY+Wn47KzIwBDOFEFYBRKsBCAU8YMzwHmz1Lmhd4IAdg/nHvhBG8A+cKJtOKKHW9+ck/xiY/5L/7xroo0diH/8Sz4u006k83R0q4zWl0j7p/94dVbf3rkky/1Fqs1vgF47raSGpuYaUvqGg0NWpPWYLHYHM0tre0dHV1dXZfq6kTS2WUlV2uHkq3BImxtlAG4s7KkpLKT/S9vzZrKktKaCE+c7lczlkoBWDy7gaBAALO8e8CfejlZWFQSGYA7T5f7Uy8nC88SAjCEgwCMir0QgFPGTC+Cxc6C9sZRzjhtpAAcWC1oPjMbgC8Mfbyr4p43HZwAzNtKYJb1rLDdpq++qfum3vbaia/7BwY++kJ328+e/dWfjns8Hp1OH8cAPKdbSY1NzKglVR98ojNazVaHs7m1q6urr6+vv7+/v79fO48tiUZytXYo2RoswtZGF4B9yZeXgL1r1pSyi+ITgNOEcFdImQAsqt1AED8A+0IvNwyLSaIDsC/0csNwRCeFBK0wn+/Ij906ArCYIQCjYi8E4JQx46tAc+Iof3Jy2ADMXU3gKb4TfU98PB8B2O5s/vcdb9360yP12pbfPFh5x8+f++CcbmxszGqzxzEAz+lWUmMTM2rJhx+fszma29rbe3p6BgcHXT7z2ZJoJFdrh5KtwSJsbVQBuKY0zTvM21lZ4nvoX9P727iNAEdIvySFArCodgNBgQB24UXOqb8inQOdyABc/zLn1N8ZzIGOkH4JAjCEhwCMir0QgFPGzG+D5A+6QsO5AgGYP2ual2b9AXjIcex+di70XE+BrqtvtDd3f/tfnrnt3mfv+Plzv3jgdc/EpNvtbm5piWMAntOtpMYmZtSST85Vt7a1d3d39/f3u1wut9vNHnzmsyXRSK7WDiVbg0XY2mgCsO88Xp/gOc/suHA8p0CHS78khQKwqHYDQRgBjry5wE4Z0wgwK1z6JQjAEB4CMCr2QgBOGTHcB9h34SuhE3pDA3Dgbkac4p427L2kFv+CWGHHmWPHdpsufH2xp29oX8XHt9/73J2VCpjkAAAgAElEQVS/OPre2Ub2xrYdHR1xDMBzupXU2MSMWlJ9/gLb0x0aGnK73WM+89mSaCRXa4eSrcEibG0UATgw/sv/kbNmTWlaaWl8zwEWTL8khQKwqHYDQTgHOPLmAjvl7M4BDndHJQRgCAcBGBV7IQCnjBgCsHdIdofQJZ1DAnDInZO4NxPmBmDvmnN9G6SLtZfMZoujpbus4qODxz51jYz19ff39vZ1d/fEMQDP6VZSYxMzbYlWq7NYrM7m5o7Ozp7e3t6+vnluSTSSq7VDydZgEbZ2+gAclH8Ds6C5a3ZWlkS41DMugsUjwt1AEK4CHXlz3C8FrgIN82naAHzGQ7h3AA4q3w2BOXdI8t032H+jI3Yd3PcoBQsBOGXEEoCDb18UtDBQrx2r48RdL04k5gVg31gx/xLTwVuJHdttYo2Ojk5MTHg8HnYf9otXAJ7TraTGJmJoSThi6Oyykqu1Q8nWYBG2VigAcz30eElweO2sLPFe/SqNf03oSLdBitu9kFImAItqNxDED2AXXsR9gPmb4++Y9S/jPsAwX2YXgPfWUYRQLhc/37IBmL0J8HoE4BQuBOCUEVMA/j/svd1vG8md98v/ZiDDnhEgDAY+53YXcTZ7NTcEgmxenrPxDhaDDRYLbPbkxn4CzBLQGmZOkM2s4DH8LGYNYjawHcoCEo/sOKMk4sxouLIVyZYtiaJEm7TeGYbW0ImAPhfVL1XdVc3qZjW7qvn94IcZqVnd9evqZqs+rupuI7lcLMqE/rVkowrjMpHBrGzbpiWsYbYBAdadbAiwbqcBl7QELB5pC7B6IMBAxEAC3FzoWFb9sFy3rE538iyzimU50gsBzmxAgDPD6AgwAACoBQIMRECAw6tL+lSHAAMRgwhwsdshk59net54r7NKrdrtWL3yWQhwhgMCnBkgwAAAEA8IMBABAQ6vLulTHQIMRAwgwGT+80LRVlyvDBHgmeVy3epUmxDg7AYEODNAgAEAIB7bjd2d/Xa613B5dvbbEOChAQEOr67RaCR3qjcaDQgwEBFfgJsLHXfmM/2zJ8DjxW7H6pUhwJkNCHBmgAADAEA89vYOGztHBsXe3mHabTYqQIBDWFpaupUwS0tLw9wjl2DPCuhGbAFmtbZct7xZ0K4An20udMhcaAhwJgMCnBkgwAAAAIBahuB4CklLF7NHsGcFdCOuAE9WT4Ibs4t5Ahx4IBYiUwEBzgwQYAAAAACAwQn2rIBuxBTg5kLHYh58RQaEySxoWoDtkhDgTAYEODNAgAEAAAAABifYswK6ISfALCcLv6Z01w5KiRkBdsaKIcAZDAhwZsBlGgAAAABAFehZ6UxfAUYghAEBzgy4TAMAAAAAqAI9K52BACPiBwQ4M+AyDQAAAKhls749e2/uZzdu6x+z9+Y269tpN1imQM9KZyDAiPgBAc4MuEwDAEA8DJIceM6QMegd0eQF0cOsMekvTuqnOnpWOgMBRsQPCHBmwGUaAADiYZDkWGl4ziiz3TCp2zPkEyPpL07qpzp6VjoDAUbEDwhwZsBlGgAA4mGW5FhD95xRxqxzY/gCnHQVEGAgAgKMiB8Q4MwwOpfpy8WiTOhfSzaqMC4TGczK1jItYQ2zNUtyrLStQAkangZczDo3IMBqGZ2elYlAgBHxAwKcGUbnMn25WOz2Q4kAJ11LilX0er1Xr14dHx8raatBMlF71FRhVraWaQlrmK1ZkmOlbQVK0OfqFI5Z5wYEWC2j07MykUEE+K0rY2PnXrPj4uvD8q7Xx/nVvT4um8wbE+dPvZm6PWYgIMCZIcplem8uPzGVe3euRS1rTV/PTUzlp/espWn7h5B1J6YKS9TCpencxFTu0ipTxv3VsixrteBfEhvSbbp5+44vbs18PHPn3uyvPlHSbRpCLWlV8dkXD66Wfv39f/3Z+uazly9fDlOAkz5qqjArW8u0hDXM1izJsdK2AiXoc3UKx6xzAwKsFgiwzsQW4LeujI2dG5uYGz+7PH62fGrs3GtnrrwxFO/iCvAbE+dfGzt/+i1Hy8fLwi28efG1sXMQYBUBAc4MkS7Te6V3p3IT10uU5FYuOUtCBbg1fT03cT3/LmuzRIDdDfoE2HFm1QK8sLjixoPfr66srq9tbH7ym9+pFeDkakmlii8ePDo4/EP+76/+xdd/fOf+g+Pj4yELcKJHTRVmZWuZlrCG2Qb68ZVCLl9qBQu2Svkc+0mlkKOXcFesFHIu3M1GJksCnPrVKRzq3FB/HJWTsgC3Snm7fQoVRVVAgIGIuAL8+rjQeN+YOG+PxDoFiJ2eGifLz59+S1iS2OnYmfPOwrnTZ9xxXXvFPgIcngw1aj02Mff6uLvZ8ilHm8nCYLYICHB2iXaZJuO91CjuasEdEw4T4L3Su1O5S6uVS+wAsi3AjuLSAux+lJQAVx8+Wlp5urpW29jc2m48m698moQAJ1FLKlXUt5u3frn4l1//8Xe/f73VejE00xjOUVOFWdlapiWsYbayAtwq5fP5PPNRpZDL5/PuEt6KrVLe0YFWKa9EnbInwClencLxzo0EjqNyUhXgVinviK/oX5CiAwEGImIKsKeLPOH0KyWx0LGJOXp4lluSCLC75Tcmzjtu7BPUwCRnsiLrqyFVkBFgsQCTwW2i38Ob3W1aQIAzQ8TLtG+QlpbeEAHem8sTbV6aZgaQl6ZzE1OF6bn8xHTFCgjwpVXepOjYuN2m6sPHD5afLD9eW9vY3NpuPG82X7x48UW1qlaAk6tlmFWsPNnY3H6+srre+WP3m//4n1/5xk/u/ubR2vr68AU40aOmCrOytUxLWMNsJQW4VcrnSy3yX6ZkxVWjfh3/SkHJ4FiWBDj1q1M4/Fm+io6jctIUYPpfBSgXHhAIMBAxuADb5klEce70GW841zVVnojyS3LnJ3s395658ob4HmBvsNf25/5VhIwAE5EWDSwjIMDZIuplmsyCniZ/oMjEZltoxQLsFduby9NliAAvWZVLU/npPY7uqhfg6V/cXVldf7q+Wd9qvHjxYn9//+Dg4ODgYHnlkUIBTrSWoVXxu8+qny1ufHjz04PDw48/WfnqN3/6t/98vdfrrShqK/lMkj5qqjArW8u0hDXMVk6AHfNlDNguWSmQRX0EWHLkMMeDLpAZAdbh6hQOV4AxAkwICHDkIXLNT3UIsM4oGgF29JKesezNWxYKcKCkT4Btpx0v07cZiwTYk17O9Gl+FWIBdraPG4YhwCNB5Mu0d9MvkWF3SrNQgOlinFUKS0R0pyvDEOBfzt7f2Nx69vz57u7u0dFRx2F9o6ZQgBOtZWhV1Opb/3Dhv7/yjZ8sLm//3b+Uvvbt939xf+X4+FhVW8lnkvRRU4VZ2VqmJaxhtlICXCk43Xu6p++UtD8NFeBWKS89bhiiBFbaVqAEfa5O4XAEOMpxHDJpCjAzKh5hDrTOpzoEWGcGuQeYslBGgAP3BvcdAfaCEU66TL8p0Jzc+leBEeDBAgKcGaJfpl3R5Q3ncgSYlVjKnykBtvZK75K50EkL8N37c41nz3d2dg4ODjqdTrfbJafx1va2QgFOtJahVVFdfFjb2jn3N//+1W/99Gvffv87//RfvVd/UthW8pkkfdRUYVa2lmkJa5itjADTT0CinvLjliTjwiH9/koh4qOTREpgpW0FStDn6hQO79zQc/TXsgwcASZoe6pDgHVGyVOg7SdL+WY7e/4pvjHYX5IjwNS8ZfEIMH2zLrdefhVeAereY/89wMN6urWBAQHODDEu086Dr3g39AYFmDw3yxf0bcP2I7V8D8QiqBfgud/Ok65zu93udrvHDs1mU6EAJ1rL0KqY//Tz3f32v03N/tW33v/r7/zHz+88JK/ZVNVW8pkkfdRUYVa2lmkJa5ithAB747/sr1TJSiFXKAgEOKY1cZXAStsKlKDP1Skc9tzQ2n6t9AU4/j3Aep7qEGCdUfYeYG+ecPB9vPyHUXHf3OubcuxVcfGU472CEeDyKd9UZ1EVbkl3ZvXYudfGL+Ip0BDgESbOZbpyaSo3MV3gPdI5IMCBNyfRLxOmBdgumbQAf77wxfLyytraen1rq9lq7e7t7e3v7+3t7+zsKhTgRGsZZhVPn65tbu9cmvr4R1fvdf54vH9woLCtImWS6FFThVnZWqYlrGG2/QXY579eB58uSV4Cw38NklpryowA63B1Csf3GiSd7dfCU6BVAwHWmUEEOKNBT4FGhAYEODPEukxzR2vpFxfZcb30hNJdG0qJGQF2xoqTFeBwVAlworUMuYqXL1++evWq1+uR77vCtoqaSXJHTRVmZWuZlrCG2XKnuVL84IeBCZ3OcBfb0+cqkn/ytAI1yIwAE9K9OoXjnRsJHEflpPweYK+N8B5gkDgQ4EBAgKUDApwZRucyfblYlAn9a8lGFcZlIoNZ2VqmJaxhtvxX3WhMNgRYt9OAi1nnRtoCrB4IMBABAUbEDwhwZsBlGgAA4mGW5FhpW8FIYda5AQFWC3pWOtNHgP8nl0Mg3IAAZxVcpgEAIB5mSY6VthWMFGadGxBgtaBnpTMQYESEgABnFVymAQAgHtuN3Z39dtpZyLKz34YADw0IcAhJf3FSP9XRs9IZCDAiQkCAswou0wAAEI9u98vGzpFB0e1+mXabjQoG/ePI8HVxCF+cdE919Kx0BgKMiBAQ4KyCyzQAAACgFrP+cQT/MqIW9Kx0Jp4Af69zZFnW431vybUvLcs6ut8gPzy+xlnre/f/bJfhL2ncP7Kso8730tc8hCggwFkFl2kAAAAAAFWgZ6UzMUeAG/ePLMv68pqz5Hv3/2xZf77/vf8RC3Dj/pF1dPRnWnGJADtLIMD6BwQ4q+AyDQAAAACgCvSsdCbuFGjPeHP/w7irSIC/1zmy/nz/WueI+pRs5OiILIEA6x8Q4KxCX6bbAAAAAAAgFsGeFdCN2PcAf69z5M1e3n/s/iwQ4O/d/7NlfXmNWK4zd9q26PtfWo/3IcAmBAQ4q0CAAQAAAAAGJ9izAroR/yFYlMpe+9IbDeYLsFfYMeH/yXnDyI37R+S/EGDNAwKcVSDAAAAAgFoePX4ye2/uZzdu6x+z9+YePX6SdoNlhGDPCujGAE+BdlX22mNKXLkCTA8XUwXcedTfu//no/v7EGDtAwKcVSDAAAAQD4MkB54zZIx7DdIwGyfpL06KpzppUgiwzgzyGqTvkRt6G/ePqGc78wTYftgVjTcaTIaO9x9bfz6CAOseEOCsAgEGAIB4GCQ5VhqeM8psN0zq9gz5xEj6i5PiqU4SgADrzEDvAW7cP7KOHn955D0NiyvAvkdGe7/ST9K69tiyLAiw5gEBzioQYAAAiIdZkmMN3XNGGbPOjeELcMb2yIXUDgHWmYEE2Pceo//J5WwBpvjz/Zv+lwaTtR5fYx8lTd4tDAHWOiDAWWV0BPhysSgT+teSjSqMy0QGs7Jtm5awhtmaJTlWJgRYw9OAi1nnBgRYFaR2CLDODCbAiBELCHBWGSkB7vZDiQAnXUuKVfR6vVevXh0fHytpq0EyUXvUVGFWtm3TEtYwW7Mkx8qKAHMP/fCvTuGYdW5AgFVBaocA6wwEGBEhIMBZJYoA1+6+PTGVe+cu/WiJJx99mJuYevujzfb8TfuHkHUnpi7MUwvnb+YmpnLvLTJl7F8XL0xM5ey4ORvvLxED6TbdvH3HF7dmPp65c2/2V58o6TYNoZa0qvjsiwdXS7/+/r/+bH3z2cuXL4cpwEkfNVWYlW3btIQ1zNYsybEyJMA6XJ3CMevcgACrgtQOAdYZCDAiQkCAs0qkEeDNq+9M5SY+vFrzFs2+5ywJFeAnH32Ym/jw7Xco3W07Auxu0BNgUhHx3sULAeuOhdttWlhccePB71dXVtfXNjY/+c3v1ApwcrWkUsUXDx4dHP4h//dX/+LrP75z/8Hx8fGQBTjRo6YKs7Jtm5awhtkG+vGVQi5fagUvtK1SPsd+Uink6CXcFVulfM6Bu9nIZEmAU786hUOdG+qPo3JSFmCvhQoVM/fIhdQOAdaZPgKMQIQEBDgzRJsCTcZ7qVFcyk7DBHjz6jtTufcWZ99jVdYWYMeKmRFgD8+xB8LXbao+fLS08nR1rbaxubXdeDZf+TQJAU6illSqqG83b/1y8S+//uPvfv96q/ViaKYxnKOmCrOybZuWsIbZygpwq5TP5/PMR5VCLp/Pu0t4K7ZKeUcHWqW8EnXKngCneHUKxzs3EjiOyklVgFulvCO+on9B0n6PXEjtEGCdgQAj4gcEODNEvAfY56i09IYIcO3u20Sb528yKjt/MzcxdeGju2+TwV6+ANOjwYPgdpuqDx8/WH6y/HhtbWNza7vxvNl88eLFF9WqWgFOrpZhVrHyZGNz+/nK6nrnj91v/uN/fuUbP7n7m0dr6+vDF+BEj5oqzMq2bVrCGmYrKcCtUj5fapH/MiUrrhr16/hTjjAIWRLg1K9O4fBn+So6jspJU4DpfxVQ1z4QYCACAoyIHxDgzBD1IViMjpKJzbbQigXYK1a7+zZdhgjwfHv2vam3P9rkC7DvPuH4kG7T9C/urqyuP13frG81Xrx4sb+/f3BwcHBwsLzySKEAJ1rL0Kr43WfVzxY3Prz56cHh4cefrHz1mz/923++3uv1VhS1lXwmSR81VZiVbdu0hDXMVk6AHfNlDNguWSmQRX0EWHJgLMeDLpAZAdbh6hQOV4DVDXAqJm0BjjxEru2pTmqHAOsMBBgRPyDAmSHyU6CpCcmbV9+hpjQLBZguxlnlwjwR45uzHAEmj8JS+BCsX87e39jcevb8+e7u7tHRUcdhfaOmUIATrWVoVdTqW/9w4b+/8o2fLC5v/92/lL727fd/cX/l+PhYVVvJZ5L0UVOFWdm2TUtYw2ylBLhScLr3dE/fKWl/KjQj5+5IWW8KUQIrQwKsw9UpHN+5EfU4Dpk0BbhSoG79jfBPBHqe6qR2CLDOxBXgNybOvzZ2jorzp99aHj+7/Pr4udfGLr7e353Kp8bOvTZephd66755kbtxXwKn3uwvaW6eTuHyKbLNM1feYMuMTcxxMrRDZo9GMCDAmSH6a5Bc0eUN53IEmNVa5oZeV4Dbm1ffIXOhaQHmPHNrAEi36e79ucaz5zs7OwcHB51Op9vtktN4a3tboQAnWsvQqqguPqxt7Zz7m3//6rd++rVvv/+df/qv3qs/KWwr+UySPmqqMCvbtmkJa5itjABXCmw/3T/nmYwL9+v3M5LQB5ESWBkSYB2uTuHwp0BHOY7DxLgRYIKGpzqpHQKsMwMJsOulc6fPMEopEf0FmFFW38aZAv3zHDvj+O1bV8bGzo8x2c6dPnNu7Mx5poq3rox5Shxj70YkIMCZIcZ7gJ0HX/Fu6A0KMHluli/o24btR2r5HohlqzL72qSBIN2mud/Ok65zu93udrvHDs1mU6EAJ1rL0KqY//Tz3f32v03N/tW33v/r7/zHz+88JK/ZVNVW8pkkfdRUYVa2bdMS1jBbCQH2xn/ZX6mSlUKuUJC4BziaGHCXZ0aAdbg6hSO+B1jHQeC0BTj+PcC6neqkdgiwzqgRYM9d3R9IgVPj59kh3LnTZ869NnbutfGL0gLsr4vYKRmbJY7qDUcHNNVed+KiXdebF18bv8II7VtXxsbOn37zyhhVo/Q49ogHBDgzxBBgoqY3L/Ae6RwQ4MAoLv0yYVqA7ZKOABMfVvD2IxfSbfp84Yvl5ZW1tfX61laz1drd29vb39/b29/Z2VUowInWMswqnj5d29zeuTT18Y+u3uv88Xj/4EBhW0XKJNGjpgqzsm2blrCG2fYXYJ//eh18uiSZHsuZO+2uiqdAu+hzdQrHOzcSOI7KwVOgVUFqhwDrjBoB9oZzWQE+NzYxZ/vqeJlZi0xyjifAvgLez5yhWnvdN6+MnbnyxtnlNybOj02U6WJvTJx/bezi62RdOx8M+UKAR404AhwcrWUWevHh1SqluzaUEjMC7IwVe+8BZjel5jVI4agS4ERrGXIVL1++fPXqVa/XI993hW0VNZPkjpoqzMq2bVrCGmbLE2CaH/ww4DuOArE9/UqBI8D062MNfzSuQvS5OoXDvAZJ9XFUTsrvAfa+OHgPMEicxO4BpqzV1WNaLFVNgZ4L2Cyjys6S8ilngPrUm/Qqnvc6JszPDQEBzjSxBNhILheLMqF/LdmowrhMZDAr27ZpCWuYLX+aq8ZkQ4B1Ow24mHVupC3Axu+RC6kdAqwzKqdAnz/9lrwA0yOufAF+LeQZVKJR38C9wU4ac6fP0P91VqHv9Q0dSUZAgDPN6AgwAACoxSzJsTIhwKZg1rkBAVYFqR0CrDOKBNi1xwRGgHkReQSYjP2ScWBvlcA4tn8id9qGqXlAgDMDBBgAAOJhluRYEOAhYta5AQFWBakdAqwzQx0BjnkPcKgA2xLb5x7gt5bfmDg/Nn5x7MyVN7xi5IlcruhSvwafAg0fhgBnGQgwAADEY7uxu7PfTvcaLs/OfhsCPDQgwOGNk+gXJ8VTnSQAAdYZZfcA2zoaLsDxngLNC+clvZ5Xhz4F+i3aaR0Bpp7ORe+UXS/1rGnYLwQ460CAAQAgHnt7h42dI4Nib+8w7TYbFQz6x5Hh6+IQvjhpneqkSSHAOhNXgBEICHCGgAADAAAAajHrH0fwLyOqCPasgG5AgBHxAwKcGSDAAAAAAACDE+xZAd2AACPiBwQ4M0CAAQAAAAAGJ9izAroBAUbEDwhwZsBlGgAAAABAFehZ6QwEGBE/IMCZAZdpAAAAAABVoGelMxBgRPyAAGcGXKYBAAAAtWzWt2fvzf3sxm39Y/be3GZ9O+0GyxToWekMBBgRPyDAmQGXaQAAiIdBkgPPGTLGvQZpmDUm/cVJ/VRHz0pnYguw+FW95G26YxNzgiXOa3gDW6OCvEBYNt6YOO/LxH0zsLPceW/wmStv0C8cRgwUEODMgMs0AADEwyDJsdLwnFFmu2FSt2fIJ0bSX5zUT3X0rHRGvQDPnT5zbuzMeVpxbR21lwgFmJFVX4GImbwxcf61sfNjZxzrfuvK2Nj5sWC9iIECApwZcJkGAIB4mCU51tA9Z5Qx69wYvgAnXQUEGIhQLsBvXRkbO3/6zStj1Keujp56c1lCgO3yZBDYHcv1Vnnz4mtj58bOnH9t7Nxrp//fMWfcODDmfP70xMXXxsv2KuNX3Hq9EWB6U2euvOH7tW/to67TEODMMDqX6cvFokzoX0s2qjAuExnMytYyLWENszVLcqy0rUAJGp4GXMw6NyDAahmdnpWJqBbgNybOvzZ28XViuUQ+/ToaRYC95dRaZL60s/GQEeDTb14Zczx2bKIsEmDfpnhbFtc+0gEBzgyjc5m+XCx2+6FEgJOuJcUqer3eq1evjo+PlbTVIJmoPWqqMCtby7SENczWLMmx0rYCJehzdQrHrHMDAqyW0elZmYhiAfa81zFhWmjnTp8h/5WcAs2U5FlxPwF+q3xq7OLrZ5dfHz936s05kQALNiVX+0gHBDgzRLlM783lJ6Zy7861qGWt6eu5ian89J61NG3/ELLuxFRhiVq4NJ2bmMpdWmXK2L/uld6dyk1MMQUGgnSbbt6+44tbMx/P3Lk3+6tPlHSbhlBLWlV89sWDq6Vff/9ff7a++ezly5fDFOCkj5oqzMrWMi1hDbM1S3KstK1ACfpcncIx69yAAKsFAqwzagX4rStj7lRkqoBrj76RWN/WqCDmzKqyu8EIAuwqNyPeMQRYWPtIBwQ4M0S6TBMpvV6iJLdyyVkSKsCt6eu5iev5d1mbJQLsbpAS4Molx5bDvToCbrdpYXHFjQe/X11ZXV/b2PzkN79TK8DJ1ZJKFV88eHRw+If831/9i6//+M79B8fHx0MW4ESPmirMytYyLWENsw304yuFXL7UChZslfI59pNKIUcvEa3olhV/GoUsCXDqV6dwOI6n7jgqJ2UBbpXyOUKhoqgKCDAQoVSAvTtm3fBGg8k9veVT3IdRhYwnDzQCTMZ+yTgwRoAhwEBEtMs0Ge+lRnFXC+6YcJip7pXencpdWq1cYgeQbQF2rJgZAXZX5S2Mg6/bVH34aGnl6epabWNza7vxbL7yaRICnEQtqVRR327e+uXiX379x9/9/vVW68XQTGM4R00VZmVrmZawhtnKCnCrlM/n88xHlUIun8+7S8QCbLsBBNhGn6tTOALHgwBblr9xWqW8I76h/xAUCQgwEKFSgOdOn6FfL+T9Sj/U6vVx9plSYQJsGzX3LlxJAX5j4vzY+MUxdkK1nADL1T7SAQHODBEv0z4dpaU3RID35vLecC41gLw0nZuYKkzP5SemK8GN02WW/JuMjtttqj58/GD5yfLjtbWNza3txvNm88WLF19Uq2oFOLlahlnFypONze3nK6vrnT92v/mP//mVb/zk7m8era2vD1+AEz1qqjArW8u0hDXMVlKAW6V8vtQi/2VKVkr5Ph1/slyZFmRJgFO/OoXDnhuKj6Ny0hTgVsn7tyHKhQcEAgxEDCbAzJt737wyxj4dyhVIWoDJNGlJAR4XP4eZKuy849df9fnTb9GzsiMLsFztoxwQ4MwQ9TJNZkFPkz9QZGKzLbRiAfaK7c3l6TKO3FYuTeWn9zgCrMx+LafbNP2Luyur60/XN+tbjRcvXuzv7x8cHBwcHCyvPFIowInWMrQqfvdZ9bPFjQ9vfnpwePjxJytf/eZP//afr/d6vRVFbSWfSdJHTRVmZWuZlrCG2coJsGO+jAHbJSsFski0IrEBWXHK8aALZEaAdbg6hUOdG5GP4/BJW4Ad6aVlOBTNT3UIsM7EFmAEAgKcHSJfpr2bfokMu1OahQJMF+OsUlgiYjxd4c92pmZZDwTpNv1y9v7G5taz5893d3ePjo46DusbNYUCnGgtQ6uiVt/6hwv//ZVv/GRxefvv/qX0tW+//4v7K8fHx6raSj6TpI+aKszK1jItYYuFxHgAACAASURBVA2zlRLgSsHp3tM9faek/SlnxUohF2NiaIgSWGlbgRL0uTqF454b8Y7jkElTgKkGysypDgHWGQgwIn5AgDND9Mu0K7q84VyOALNaS/kzPcC7V3qXzIXm3O7LrBIf0m26e3+u8ez5zs7OwcFBp9PpdrvkNN7a3lYowInWMrQqqosPa1s75/7m37/6rZ9+7dvvf+ef/qv36k8K20o+k6SPmirMytYyLWENs5UR4EqB7af7XYiMCwdX9J4L5F+1HyIlsNK2AiXoc3UKxzk34h/HYWLcCDBB21MdAqwzEGBE/IAAZ4YYl2lnSJZ3Q29QgMlzs3xB3zZsz3D2PRCLonLJm3Q9AKTbNPfbedJ1brfb3W732KHZbCoU4ERrGVoV859+vrvf/rep2b/61vt//Z3/+Pmdh+Q1m6raSj6TpI+aKszK1jItYQ2zlRBgb/yX/ZUqWSnkCoXQga/II4dcJbDStgIl6HN1Cof3ph+MANsovAdYz1MdAqwzEGBE/IAAZ4Y4l2lipAXeI50DAhx4cxL9MmHmFl/nxb+XVtm1VgsqnwL9+cIXy8sra2vr9a2tZqu1u7e3t7+/t7e/s7OrUIATrWWYVTx9ura5vXNp6uMfXb3X+ePx/sGBwraKlEmiR00VZmVrmZawhtn2F2Cf//JvByWDhCoFWERmBFiHq1M4EOAQ8BRokCIQYET8gABnhliXae5orbvQi+ulJ5Tu2lByyz7jyh4rtre5WnC3o+AGYMvpNoWjSoATrWXIVbx8+fLVq1e9Xo983xW2VdRMkjtqqjArW8u0hDXMlifAND/4YWBCpzPcxfb0+7whFgLsoc/VKRwIcAjiLw7eAwwSBwKMiB8Q4MwwOpfpy8WiTOhfSzaqMC4TGczK1jItYQ2z5UmO1mRDgHU7DbiYdW6kLcDqgQADERBgRPyAAGcGXKYBACAeZkmOlbYVjBRmnRsQYLWgZ6Uz8QT4LeaVv/bLctk35Y5NzHmv240W5VPsS31JvD5+zv9KXu57eumSotrZ/F8fP+e9ppi8LjhO2iMYEODMgMs0AADEwyzJsdK2gpHCrHMDAqwW9Kx0JuYIcPkU5Zyvj58bG7845jgkkdJTb8bWKp4Av3nR2Sb1KbtwbGLOqZ1kMnf6DCPG9KZeY6rgbhPRNyDAmQGXaQAAiMd2Y3dnv512FrLs7LchwEMDAhxC0l+c1E919Kx0Ju4UaGp0d+70mXOn3iyfcrzR/cgrQ8aEz3gDxbyRWzL0eu618YtBAeZqLT3C/Po4x3U5Q9Cu/bJVONsXODMCApxxcJkGAIB4dLtfNnaODIpu98u022xUMOgfR4avi0P44qR7qqNnpTNxBdgz0reujDm6OzYxxxdUop3MlGlis97Qq7eQLUyLq28E2C/A/nnLPJt98+LYxJxvCrRXeIyeC42AAI8OuEwDAAAAajHrH0fwLyNqQc9KZ2I/BOutK2PESN+86A3qjpfp2cg+AXbmFTNe6pShF/LvAQ5MXWZu1g0KMLkTmD+ZmSPAgTuZEf0DApwZcJkGAAAAAFAFelY6E/8p0LboOt7rmLArxuECPEaHb+7x3OkzsaZAUwJMbJZ4OCeCAvzWlbGxc2MTV06FrIWAAGcWXKYBAAAAAFSBnpXODPAapNfHz702fuX0Gddsy6fGzp+euMiRUvEIsBPhI8D8wV7hPcDOY6iFyQcEmLtNRL+AAGcG+jLdBgAAAAAAsQj2rIBuDCDAzoOsmBcIjZ05H5je7H+0Mnc4N/weYP6znXlPgbbllhVsv9b6BJgWZt7saAQEOOtAgAEAAAAABifYswK6MYAA265IiSW57dYdehUJ8Dj/Vb1hT4EWrMJ5mjRVzCscKsDlU7y9wJuQIMCjBAQYAAAAUMvS0tItc1haWkq7wTJCsGcFdGMQAUaMekCAMwMEGAAA4vHo8ZPZe3M/u3HbiJi9N/fo8ZO022xUuHXrVtopRGDI2Q7hXwfSUvpgzwroBgQYET8gwJkBAgwAAPEw6F2vlvO617TbbFSAAIdX12g0kjvVG41GWu1PEoAA6wwEGBE/IMCZAQIMAADx2G4Y9qcNAjw0IMDh1SV9qkOAgQgIMCJ+QIAzw+gI8OViUSb0ryUbVRiXiQxmZds2LWENs4UADx8NTwMuEODw6pI+1SHAQAQEGBE/IMCZYaQEuNsPJQKcdC3ZqMK4TGQwK9u2aQlrmC0EePhoeBpwgQCHV5f0qQ4BBiIgwIj4AQHODFEEuHb37Ymp3Dt36aeoPPnow9zE1Nsfbbbnb9o/hKw7MXVhnlo4fzM3MZV7b5Ep4/7abrfb7dn3AmvFhHSbbt6+44tbMx/P3Lk3+6tPlHSbhlBLNqowLhMZzMq2bVrCGmYLAR4+Gp4GXCDA4dUlfapDgIGIvgI807Msqzbj/FrsdizLqh+mrF4kjU530l5yWLMsy7I61SYpMFk9oX/lxEyvTwGnDINXo+p9Sb1J4wQEODNEGgHevPrOVG7iw6s1b9Hse86SUAF+8tGHuYkP336H9VsiwO4GgwLM1eaYuN2mhcUVNx78fnVldX1tY/OT3/xOrQAnV0s2qjAuExnMyrZtWsIaZhsQ4Eohly+1ghfaVimfYz+pFHL0EtGK4R9FJksCrM9pwIURsLUbly8SPlDwxywBUhbg1u2i3T7XFtWc6RBgICQZAZ6snnirDBy8rRHj7ZW9JHu1updYuW4xaQdDWoC9MsSHIzpw/6aAAIP0iTYFmoz3Ujq6eMEdEw4T4M2r70zl3lucfY8dQLYF2JHegACT4d9kBLj68NHSytPVtdrG5tZ249l85dMkBDiJWrJRhXGZyGBWtm3TEtYwW1kBbpXy+Xye+ahSyOXzeXcJf8VKIZfL5XIQYAoNTwMulICt3bjsiO/8Bxcv31hLLSkhqQpw63bREd/FaxeLt5Wc7BBgICIBASajr6oEWLS1ct2yrJOFolOm0y1XTxw7bS50LE+PuRFDgGU2G6MpIMAgfSLeA+xzVFp6QwS4dvdtIrHzN5kB5PmbuYmpCx/dfXvi5mxw47W7b0/cvOpX7ti43abqw8cPlp8sP15b29jc2m48bzZfvHjxRbWqVoCTqyUbVRiXiQxmZds2LWENs5UU4FYpny+1yH+ZkpVSvlAJWbHfR5HJkgDrcxpw8QRs7cZl13opF9aKNAW4dbvoWi/lwgMCAQYiBhRg8iuBLPQtoX61TZJYZb3nLKd8su/WBG5ZJmO/Mz1HiQ9rFjVUS81k9g3ndqrdWjANSQHm5kZW6ZxYlmUd/MlXgOTspOKkBwEG6RP1IVhkFvTN2Xa77UxstoVWLMBesdrdt+kyRIDn27PvTb390aZPgMnCwJhzbEi3afoXd1dW15+ub9a3Gi9evNjf3z84ODg4OFheeaRQgBOtJRtVGJeJDGZl2zYtYQ2zlRNgx3wZA7ZLVgpkkRoBzvGgC2RGgLU6DbiwAuxILy3DOpG2ADvSS8twKLd4+AoMc49cSO0QYJ2RE2A/xNbIR7SpUppXm6GNkVJHe4O98ln2Vt7+W2Oj2O3YdnpYsws4P3gfsRIb+Nmu2n9HsUCA6QwF2fqmSTPJ0/+UQG8ZAgzSJ/JToL2bfokMu1OahQJMF+OscmHeHuydpQXYGStWLcC/nL2/sbn17Pnz3d3do6OjjsP6Rk2hACdaSzaqMC4TGczKtm1awhpmKyXAlULOHuZtlfLOj25J+1NlI8Ah9mtlSIC1Og24eAI2/wF166+mc6DTFODFa9StvxHmQIfYrwUBBmIGGAGmJyHTvwYEmNVX1irLdYvIsMTWfHFYs9xBZrJic6FjdapNOmd2s82FDuPbwTSCAszgmK0oW99mOcmLRrmNF+Bu92W3+/KPf/zjH/7QabV2nj1rbm8/29zc/v3vH0GA9Sf6a5Bc0eUN53IEODCu6xs0vjDfJmJ84SO3pH3PcJtz13FsSLfp7v25xrPnOzs7BwcHnU6n2+2S03hre1uhACdaSzaqMC4TGczKtm1awhpmKyPAzn28Dv45z2RcWOUUaJH9WhkSYK1OAy4YAQ6vzjspY40AE0T2a0GAgZj4Auy/IZavrLTvUSPArHmeLBTltsaEY7MzPXdFMhd6snriLLENnCUkDY4A8+4TFmYbJsC2TnvFsiXAx8df/t//1//1//yv//Uv3/8+if/vRz/6+a1ba2s1CLD+xHgPsPPgK94NvUEBJgbrC/q2YVtu6QdiOQ9/pmNgBybdprnfzpM+U7vd7na7xw7NZlOhACdaSzaqMC4TGczKtm1awhpmKyHA3vgv+ytVslLIFQpq7wHm2q+VIQHW6jTggnuAw6vzTsrB7gEWvVEJAgxEJDsC7IX3WGZlI8Dko96C9+wr+2lYC3XhUK1IbkNGgLkPyooxAsxUkcEp0MfHX57/7nf/8//8n7LDvXv3Pv/8cwiwEcQQYDKKe/MC75HOAQEOvDmJfpkwLcB2Sf97gFWPAH++8MXy8sra2np9a6vZau3u7e3t7+/t7e/s7CoU4ERryUYVxmUig1nZtk1LWMNs+wuwz3+9WdB0yVYpH/KoZzwEi0HD04ALngIdXh39pcBToMEwGeQhWKH3wbo35RLrm6yeMIOf9D3AslvjS6xFO6o74Ox7KlVQNUVpyAlweLa+24YpAWZmhmdrBBhToI0mjgD7X1/kW+jFh1erlO7aUErMCLAzVpysAIejSoATrSUbVRiXiQxmZds2LWENs+UJMM0Pfpj3y2urlLeffpVjnwkd9hokZe9CyowAa3UacGEFbP4DvAeYrY49MRev4T3AYFgofwr0Wdd7LavTnRQ9Bdp9/DL96Km+W/MLmP0RpcfBJeytvH4xjvQUaDZCngLtrUIn7/xsWVa9692NnBEBxhRoo4klwEZyuViUCf1ryUYVxmUig1nZtk1LWMNsAwKsO9kQYN1OAy5pCVg80hZg9UCAgYi+Aqw8ZF7AizAjMAU6M4yOAAMAgFogwEAEBDi8uqRPdQgwEAEBRsQPTIHODBBgAACIBwQYiIAAh1eX9KkOAQYiIMCI+IEp0JkBAgwAAPHYbuzu7LfTvYbLs7PfhgAPDQhweHWNRiO5U73RaECAgYjhCzAiO+ET4B/+7//981u3fuVQqVQePnwIATYCCDAAAMRjb++wsXNkUOztHabdZqMCBDiEpaWlWwmztLQ0zD1yCfasgG5AgBHxA1OgMwMEGAAAAFDLEBxPIWnpYvYI9qyAbkCAEfGDFuA//KFzeHi0v3+ws7P35On6ysrqw4fL1erDSmUBAqw/EGAAAAAAgMEJ9qyAbsi9BomB8zqi6GHwu38QbkCAMwMEGAAAAABgcII9K6AbUd8DPNgjrCarJ/amIMBZCAhwZsBlGgAAAABAFehZ6UxUAT57WLNiDgJPVk/YTSFMDwhwZsBlGgAAAABAFehZ6cyAAkwGcgnucC49SuyO9PpK0iPAdvluzf64V3YUizizZVmdeg8jxvoFBDgz4DINAAAAqGVjYyPtJ1tFYGNjI+0GyxToWenMIFOgye3BREo5Qtv0LWdGgAPlbakObJ/8XK5bXl0IXQICnBlwmQYAgHhs1rdn78397MZtI2L23txmfTvtNhsVbpn2GqRhNs4Q/nUgXaVHz0pnoj8Ey70BuFy3LOtkobjs/zWWAAfLM9vHPcM6BgQ4M+AyDQAA8dhu7O7st9POQpad/fbaZjPtLEYFCHB44zQajeS232g0hrxHPtCz0pkII8DNhY5leaPB5FdvurJqAWa3DwHWMSDAmQGXaQAAiMd2w7A/bRDgoQEBDm+cDFQRAnpWOhNpCrR9H689KosR4JEPCHBmGJ3L9OViUSb0ryUbVRiXiQxmZWuZlrCG2UKAh4+GpwEXCHB442SgihBGp2dlIhHvAbafSkXfuxu8BzggvXR5eQHGPcDaBwQ4M4zOZfpysdjthxIBTrqWbFRhXCYymJWtZVrCGmYLAR4+Gp4GXCDA4Y2TgSpCGJ2elYnEewq0f0zYsizGTm1ftaxalR65tde1Ot1JGQEWbgehSUCAM0OUy/TeXH5iKvfuXIta1pq+npuYyk/vWUvT9g8h605MFZaohUvTuYmp3KVVpozza+XSVG7CCbbSWJBu083bd3xxa+bjmTv3Zn/1iZJu0xBqyUYVxmUig1nZWqYlrGG2EODho+FpwAUCHN44GagiBAiwzvQVYE0CU6B1DAhwZoh0md4rvTuVm7heoiS3cslZEirArenruYnr+Xcp3bUcAXY3yAjwXuldJd7r4nabFhZX3Hjw+9WV1fW1jc1PfvM7tQKcXC3ZqMK4TGQwK1vLtIQ1zDYgwJVCLl/iXLVapXyO/aRSyNFLRCuGfxSZLAmwPqcBF0aA125cvkj4YD49yw0hZQFu3S7a7XNtMaEqhgsEWGc0FmDh9GmELgEBzgzRLtNkvJcaxV0tuMOzYQK8V3p3KndptXKJdVpbgB3ppQWYHQ1Wga/bVH34aGnl6epabWNza7vxbL7yaRICnEQt2ajCuExkMCtby7SENcxWVoBbpXw+n2c+qhRy+XzeXcJfsVLI5XK5HASYQsPTgAslwGs3LjviO//Bxcs31lLzXCGpCnDrdtER38VrF4u3lZzsEGAgQmMBdp87bYPhX+0CApwZIl6mfV5KS2+IAO/N5Yk2L00zA8hL07mJqcL0XH5iuuLbuOvGE1M58umguN2m6sPHD5afLD9eW9vY3NpuPG82X7x48UW1qlaAk6slG1UYl4kMZmVrmZawhtlKCnCrlM+XWuS/TMlKKV+ohKzY76PIZEmA9TkNuHgCvHbjsmu9lAtrRZoC3LpddK2XcmGVVQwdCLDOaC3ACM0DApwZol6mySxo20jJxGZbaMUC7BXbm8vTZYgAL1mVS1P56T1agL2Z1fQg80CQbtP0L+6urK4/Xd+sbzVevHixv79/cHBwcHCwvPJIoQAnWks2qjAuExnMytYyLWENs5UTYMd8GQO2S1YKZJEaAc7xoAtkRoC1Og24sALsSC8twzqRtgA70kvLcL8tBBFWMXQgwDoDAUbEDwhwZoh8mabUlL1NVyjAdDHOKoUlIsbTFcG0Z6rGQSDdpl/O3t/Y3Hr2/Pnu7u7R0VHHYX2jplCAE60lG1UYl4kMZmVrmZawhtlKCXClkLOHeVulvPOjW9L+VNkIcIj9WhkSYK1OAy6eAM9/QN36q+kc6DQFePEadetvhDnQIfbrr2LoQIB1BgKMiB8Q4MwQ/TLtii5vOJcjwJxnOzODxoUli4hxYXoIAnz3/lzj2fOdnZ2Dg4NOp9PtdslpvLW9rVCAE60lG1UYl4kMZmVrmZawhtnKCLBzH6+Df84zGRdWOQVaZL9WhgRYq9OAC0aAwxvH+yXWCLC7Ha79+qsYOhBgnZF7DZJ3/23waczOm5CCr0rygUdYZS4gwJkhxmXamZPMu6E3KMDkuVm+oG8bth+p5XsgFoVSAZ777TzpM7Xb7W63e+zQbDYVCnCitWSjCuMykcGsbC3TEtYwWwkB9sZ/2V+pkpVCrlBQew8w136tDAmwVqcBF9wDHN443i+D3QMsyhwCDERICrB1slBcHj/LEeDJ6ollnXQ6vIdUFbsd9wW/iAwGBDgzxLlMVy5N5SamC7xHOgcEOPDmJPplwrQA2yUF9wAreBw06TZ9vvDF8vLK2tp6fWur2Wrt7u3t7e/v7e3v7OwqFOBEa8lGFcZlIoNZ2VqmJaxhtv0F2Oe/3ixoumSrlA951DMegsWg4WnABU+BDm8c6jc8BRoMFVkBdvzWL8DNhY5l1Q/LdcvqdCd9ggQBznhAgDNDrMs0d7SWeW7zlP2C3yeU7tpQSswIsDNWTL8HmGxHzduASbcpHFUCnGgt2ajCuExkMCtby7SENcyWJ8A0P/hh3i+vrVLefvpVjn0mdNhrkJS9CykzAqzVacCFeQ9we/4DvAeYbRx2weI1vAcYDAs5Aa5Vux2rVz4bEOBit0PmNs/0vFFiNyDAGQ8IcGYYncv05WJRJvSvJRtVGJeJDGZla5mWsIbZBgRYd7IhwLqdBlxYAdadtAXYyCpCGJ2elYlICvDMcrludapNnwCT+c8LRYHrQoAzHhDgzIDLNAAAxAMCDERAgMMbJwNVhICelc5IC/B4sduxemVGgJsLHXfmM/2zExDgjAcEODPgMg0AAPGAAAMREODwxslAFSGgZ6Uz8gJ8trnQIXOh+fcDl+uWfxY0BDjjAQHODLhMAwBAPLYbuzv77bSzkGVnvw0BHhoQ4PDGaTQayW2/0WhAgIGICALsfyDWZPUkuD1GdyHAGQ8IcGbAZRoAAOLR7X7Z2DkyKLrdL9Nus1EBAhzCxsbGrYTZ2NgY5h75QM9KZyIJMJnnbBEBJj9TQ75kQJieBQ0BznhAgDMDLtMAAACAWobgeApJVxezB3pWOhNNgJ1R3/ohR3cFSgwBzm5AgDMDLtMAAAAAAKpAz0pn+gowAiEMCHBmwGUaAAAAAEAV6FnpDAQYET8gwJmBvkynfRcSAAAAAICpBHtWQDcgwIj4AQHODBBgAAAAAIDBCfasgG5AgBHxAwKcGSDAAAAAgFqWlpbSfrJVBJaWltJusIwQ7FkB3YAAI+IHBDgzQIABACAejx4/mb0397Mbt42I2Xtzjx4/SbvNRoVbpr0GaZjVDeFfB9JS+mDPCugGBBgRPyDAmQECDAAA8dhu7O7st9O9hsuzs99e22ym3WajAgQ4vLpGo5Hcqd5oNNJqf5IABFhnIr4GyX77Uf0wpjINuPqAQWqnd0fhZpXvVLptJRUQ4MwAAQYAgHhsNwz70wYBHhoQ4PDqkj7VIcBAxCgJ8GT1xLJOOh3VCSjdqcnqid3aEGAwPEZHgC8XizKhfy3ZqMK4TGQwK9u2aQlrmC0EePhoeBpwgQCHV5f0qQ4BBiJGSICbCx3Lqh+W65bV6U4q3LK6nZqsnljKB6gTDAhwZhgpAe72Q4kAJ11LNqowLhMZzMq2bVrCGmYLAR4+Gp4GXCDA4dUlfapDgIGIwQSYCJuNa5UzPcuyOp0TyynpFqtVndWZ7TQXOpZlnSwUqdWrTfntkyV2qWozRFNrM6SwU1dgL9w95S7kV+QTYG4ZcZt4u+bM0LY4TRT4lN5stVuzP+iVIcAgDlEEuHb37Ymp3Dt36aeoPPnow9zE1Nsfbbbnb9o/hKw7MXVhnlo4fzM3MZV7b5Ep4/t1Yio38eHVWpw/RCyk23Tz9h1f3Jr5eObOvdlffaKk2zSEWrJRhXGZyGBWtm3TEtYwWwjw8NHwNOACAQ6vLulTHQIMRMgJsB9KO205pKzVXsXnq7TQ1g8d6SXCdkj8jZQp1y1bUKNvn/mZDTL/eaFom6RPTUkt3Kp9CzkV0aYqKsPLObhrzAhwYLP2z8HlZLPifYcAg35EGgHevPqOX0dn33OWhArwk48+zE18+PY7lN+2HQF2N0gLcO3u2/bWFi8ErDsWbrdpYXHFjQe/X11ZXV/b2PzkN79TK8DJ1ZKNKozLRAazsm2blrCG2QYEuFLI5Uut4IW2Vcrn2E8qhRy9RLRi+EeRyZIA63MacGEEbO3G5YuED+bFq6RIygLcul202+faopozHQIMhAw+BTo4MsmamCeQ7Oqekc70LKtXq1NiTE9RjrT94Opng8uZMuW6FRw4FS/kVUTtlLAM104DuyYSYHazAidPYXo5BDgzRJsCTcZ7qVFcyk7DBHjz6jtTufcWZ99jVdYWYEZ6yc9EmFUM/Lr4uk3Vh4+WVp6urtU2Nre2G8/mK58mIcBJ1JKNKozLRAazsm2blrCG2coKcKuUz+fzzEeVQi6fz7tL+CtWCrlcLpeDAFNoeBpwoQRs7cZlR3znP7h4+cZaakkJSVWAW7eLjvguXrtYvK3kZIcAAxGDCLA9OOyZGE9Q6ZFednVnJHayemLVD8dnelanO0kPz0bYvo/ATGBWDimfZNOjbZm/kFeRt3FxGZ8AC3ZNIMD+fCDAQDUR7wH2zVKmpTdEgGt33ybaPH+T0dr5m7mJqQsf3X174uYsu/HZ96ZyZKEy3G5T9eHjB8tPlh+vrW1sbm03njebL168+KJaVSvAydWSjSqMy0QGs7Jtm5awhtlKCnCrlM+XWuS/TMlKKV+ohKzY76PIZEmA9TkNuHgCtnbjsmu9lAtrRZoC3LpddK2XcuEBgQADEQMIMDNMKp6HLBoBdp5K1V3oWJ1qc7zY7VgnC1XvBt042xcEc8OtAzXjOsYIMN+uhWU4OXN2DSPAICWiPgSLzIK21ZQZpxULsFfMm9jsrXJhvj373tTbH21SArx59Z2p3Ds3L7xD7gFWYsKk2zT9i7srq+tP1zfrW40XL17s7+8fHBwcHBwsrzxSKMCJ1pKNKozLRAazsm2blrCG2coJsGO+jAHbJSsFskiNAOd40AUyI8BanQZcWAF2pJeWYZ1IW4Ad6aVlOJRbPHwFhrlHLqR2CLDODCrA5CNn5JM3RZn+lawSfIYWsxFmcnK07QskkH3IllssMDmZK5b9bVN0D7Boeb9di3oPMAQYDEzkp0B7N/3amupMaRYKMF2Ms8qFeSLGN2d9AmzPtVZ7D/AvZ+9vbG49e/58d3f36Oio47C+UVMowInWko0qjMtEBrOybZuWsIbZSglwpZCzh3lbpbzzo1vS/lTZCHCI/VoZEmCtTgMunoDNf0Dd+qvpHOg0BXjxGnXrb4Q50CH2a0GAgZiB7gE+rLnbqXdD7nflPAWa3pozFkq0kFpRdvvMk7qCBkjrLk+J4z0F2r8XvKdABx7X3G/X3OXObHC5p0BDgMGARH8Nkiu6vOFcjgCzs6Ypf6YEuL159R0yF5ozBVrRdGjSbbp7f67x7PnOzs7BwUGn0+l2u+Q03treVijAidaSjSqMy0QGs7Jtm5awhtnKCLBzH6+Df84zGRdWOQVaZL9WhgRYq9OAC0aAw6vzTspYI8AEkf1aEGAgpq8AOQcTGwAAIABJREFUIxDCgABnhhjvAXaGZHk39AYFmDw3yxf0bcP2I7XYB2I9+ejDZAR47rfzpM/Ubre73e6xQ7PZVCjAidaSjSqMy0QGs7Jtm5awhtlKCLA3/sv+SpWsFHKFgtp7gLn2a2VIgLU6DbjgHuDw6ryTcrB7gEVvVIIAAxEQYET8gABnhhgCbBvpBd4jnQMCHHhzEv0yYVqAnWnP9BOhE5gC/fnCF8vLK2tr6/WtrWartbu3t7e/v7e3v7Ozq1CAE60lG1UYl4kMZmXbNi1hDbPtL8A+//VmQdMlW6V8yKOe8RAsBg1PAy54CnR4dfSXAk+BBsMEAoyIHxDgzBBHgP2vL/It9OLDq1VKd20oJWYE2BkrZh8xnVNjv22n2xSOKgFOtJZsVGFcJjKYlW3btIQ1zJYnwDQ/+GHeL6+tUt5++lWOfSZ02GuQlL0LKTMCrNVpwIUVsPkP8B5gtjr2xFy8hvcAg2EBAUbEDwhwZoglwEZyuViUCf1ryUYVxmUig1nZtk1LWMNsAwKsO9kQYN1OAy5pCVg80hZg9UCAgQgIMCJ+QIAzw+gIMAAAqAUCDERAgMOrS/pUhwADERBgRPyAAGcGCDAAAMQDAgxEQIDDq0v6VIcAAxFyr0Fi6ZXPDvelO6KX7iJSDghwZoAAAwBAPLYbuzv77XSv4fLs7LchwEMDAhxeXaPRSO5UbzQaEGAgQk6AmZfukoAAIyDA2QECDAAA8djbO2zsHBkUe3uHabfZqAABDmFpaelWwiwtLQ1zj1yCPSugG7EFeJgBAdY0IMCZAQIMAAAAqGUIjqeQtHQxewR7VkA3lIwAkzKdE4tdQrDXZcS1udCxLOtkoeivYrJ64uXW6U4G64IAaxQQ4MwAAQYAAAAAGJxgzwrohjoB9nyVXsX7mUhvr3x2efzsYc2y3DLlumXL8EzPsqzaTGAjEGBNAwKcGSDAAAAAAACDE+xZAd2I/hAsjpSykuwJ7dll23s73Ul7dNcV3V6tTlb3Ctg1ki0TgtILAdYoIMCZAZdpAAAAAABVoGelMwqnQNtlyEivD+/B0Z1qc7J6YtUPx2d6Vqc76Sx0t0OPBkOA9Q4IcGbAZRoAAAAAQBXoWemMegH2jQDT0VzoWFa9u9CxOtXmeLHbsU4Wqj23cLluOXOkMQXaiIAAZwZcpgEAAAC1bGxspP1kqwhsbGyk3WCZAj0rnUlAgIXuSj3jqjaz7I0VO/Ofy/XARxgB1jogwJkBl2kAAIjHZn179t7cz27cNiJm781t1rfTbrNR4ZZpr0EaZuMM4V8H0lV69Kx0JgkBPsveOUzLqn1/rz3MS4yXWtF+OJZl2QPFthtDgDUNCHBmwGUaAADisd3Y3dlvp52FLDv77bXNZtpZjAoQ4PDGaTQayW2/0WgMeY98oGelM30FGIEQBgQ4M+AyDQAA8dhuGPanDQI8NCDA4Y2TgSpCQM9KZyDAiPgBAc4Mo3OZvlwsyoT+tWSjCuMykcGsbC3TEtYwWwjw8NHwNOACAQ5vnAxUEcLo9KxMBAKMiB8Q4MwwOpfpy8Vitx9KBDjpWrJRhXGZyGBWtpZpCWuYLQR4+Gh4GnCBAIc3TgaqCGF0elYmAgFGxA8IcGaIcpnem8tPTOXenWtRy1rT13MTU/npPWtp2v4hZN2JqcIStXBpOjcxlbu0ypS5tGpZe6V3p3ITdExXYuwcA+k23bx9xxe3Zj6euXNv9lefKOk2DaGWbFRhXCYymJWtZVrCGmYLAR4+Gp4GXCDA4Y2TgSpCgADrDAQYET8gwJkh0mWaeOn1EiW5lUvOklABbk1fz01cz79L6a7lCLC7QU+A6Tp5C+PgdpsWFlfcePD71ZXV9bWNzU9+8zu1ApxcLdmowrhMZDArW8u0hDXMNiDAlUIuX2oFC7ZK+Rz7SaWQo5eIVgz/KDJZEmB9TgMujACv3bh8kfDBfHqWG0LKAty6XbTb59piQlUMFwiwzkCAEfEDApwZol2myXgvNYq7WnDHhMMEeK/07lTu0mrlEjuAbAuw47cc1yXKPfjwrxXoNlUfPlpaebq6VtvY3NpuPJuvfJqEACdRSzaqMC4TGczK1jItYQ2zlRXgVimfz+eZjyqFXD6fd5fwV6wUcrlcLgcBptDwNOBCCfDajcuO+M5/cPHyjbXUPFdIqgLcul10xHfx2sXibSUnOwQYiJB7DVJtxvlV+VuI3BcmudsMLkFoGhDgzBDxMu1zVFp6QwR4by5PtHlpmhlAXprOTUwVpufyRHGDAhw+rToabrep+vDxg+Uny4/X1jY2t7Ybz5vNFy9efFGtqhXg5GrJRhXGZSKDWdlapiWsYbaSAtwq5fOlFvkvU7JSyhcqISv2+ygyWRJgfU4DLp4Ar9247Fov5cJakaYAt24XXeulXFhlFUMHAqwz+ggweeXv2eXJ6onVOcnqy34nqydeYxofEODMEPUyzQzJkonNttCKZdUrtjeXp8sQAV6yKpem8tN7QQH25lcrgHSbpn9xd2V1/en6Zn2r8eLFi/39/YODg4ODg+WVRwoFONFaslGFcZnIYFa2lmkJa5itnAA75ssYsF2yUiCL1AhwjgddIDMCrNVpwIUVYEd6aRnWibQF2JFeWob7bSGIsIqhAwHWGT0EuFPvdaxe+ezy+Nnlcp38mkEBnqyeMI1pfECAM0PkyzQlpXuld6kpzUIBpotxViksETGervgFmJpfrQDSbfrl7P2Nza1nz5/v7u4eHR11HNY3agoFONFaslGFcZnIYFa2lmkJa5itlABXCjl7mLdVyjs/uiXtT5WNAIfYr5UhAdbqNODiCfD8B9Stv5rOgU5TgBevUbf+RpgDHWK//iqGDgRYZwYRYPKzZVmW1ak26fLchZ3OiWUFtJZ8VO3WrJOF4vL42eZCx6pVGc0m3uhs1B4oplYk2P4sLE8t9ws2L2dbVqvuPvbKXjGvrrD99eVGNVdW3B4CnBmiX6Zd0eUN53IEmNVaZlDXFWBrr/QumQstmF+tANJtunt/rvHs+c7OzsHBQafT6Xa75DTe2t5WKMCJ1pKNKozLRAazsrVMS1jDbGUE2LmP18E/55mMC6ucAi2yXytDAqzVacAFI8DhjeP9EmsE2N0O1379VQwdCLDOxBfg5kLHsqxe2fvBFb/mOO9n2kUDAny40CG1HNask4UZSoDpBETbDCwXlSc/l+uWxW4/WMa25fqh9zOpq+jPrc/+BraJEWCgHzEu087ALO+G3qCvkudm+YK+bdh+pJbvgVicB24NCOk2zf12nvSZ2u12t9s9dmg2mwoFONFaslGFcZnIYFa2lmkJa5ithAB747/sr1TJSiFXKKi9B5hrv1aGBFir04AL7gEObxzvl8HuARZlDgEGIgYVYEbnynXLsgdyl+0CQUHlC3CzXLc61eZ4sduxeuXgROvg8Cm9TYnyTG5UeVHOjKwK6pLaX6o8BBgCrCtxLtOVS1O5iekC75HOAQEOvDmJfpkwLcDuu3+5Y8UKIN2mzxe+WF5eWVtbr29tNVut3b29vf39vb39nZ1dhQKcaC3ZqMK4TGQwK1vLtIQ1zLa/APv815sFTZdslfIhj3rGQ7AYNDwNuOAp0OGNQ/2Gp0CDoaJoCjQ1FOwjMDIsEODJ6olVPxyf6Vn1w+Aoq+2Z5OdwAeaXp4apeRofzFlCgOX2FwIMATaAWJfpwGgts9CL66UnlO7aUErMCLAzVpysAIejSoATrSUbVRiXiQxmZWuZlrCG2fIEmOYHP8z75bVVyttPv8qxz4QOew2SsnchZUaAtToNuDDvAW7Pf4D3ALONwy5YvIb3AINhISfAnrvyHoJFZhTXZnwjohzLDRHg8WK30+kueOPA9CirI66iKccS5eVGgL2IPgIs2F8IMATYAEbnMn25WJQJ/WvJRhXGZSKDWdlapiWsYbYBAdadbAiwbqcBF1aAdSdtATayihBGp2dlIn0F+OxhzbJcpaQUzls+WT2hR1xFo7J9BNjeoFWbCUomqdEZcQ0dAZYpL7wHWCSrMvslvRwCDPQDl2kAAIgHBBiIgACHN04GqggBPSud6S/Aruva+KdDW5YleAq07zHL/QSY+OrJQtE3zkzVXu/2vc9WWN71Xsv/lGluzlICLLO/3Ny4zwMzLyDAmQGXaQAAiAcEGIiAAIc3TgaqCAE9K52REuDMhfK3GY9oQIAzAy7TAAAQj+3G7s5+O+0sZNnZb0OAhwYEOLxxGo1GcttvNBoQYCBiZASYfq1R5qYipxUQ4MyAyzQAAMSj2/2ysXNkUHS7X6bdZqMCBDiEjY2NWwmzsbExzD3ygZ6VzoyMAPsf2ozhXwUBAc4MuEwDAAAAahmC4ykkXV3MHuhZ6cwICTBCeUCAMwMu0wAAAAAAqkDPSmcgwIj4AQHODLhMAwAAAACoAj0rnYEAI+IHBDgz4DINAAAAAKAK9Kx0Rk6A7SdIEehX+IjebzS0xyxz30IUNfBQ6JgBAc4MuEwDAAAAAKgCPSudkRDgct2yX897dtl5lFSvTPmnWgGerJ7IPp+ZriXkVcOCjXs/Q4BjBgQ4M6wCAAAAAAB1QIC1pa8AB8UyunbKBxlqlhXgiG8zojcerSIEPyDAmeErAAAAAABAKWn37wCffgLMDv+SoAaBbQHu1uzNOSPDvjFVaqIybcv0zOrajLMWoX5I/8p3bLJZ7shtsEZ64wd/4lTEKH1gj6hsO/UeRowhwAAAAAAAAADT6CPA7IRnJzwrJp5J7gomGkn/HBwlDvxMxmDdDVIDs27V/ByoTCzLZ8iCGoUjwIFs7b0QbMeuFAIMAQYAAAAAAACYhAoBduWzXHcKU0rJuYW4052kC1MREGCZWcqHzmitX6d9NcoLMDNoHNwL3DMMAQYAAAAAAACYh5op0E1/YU8RbY9lEY7rcrzUWyVUxrzxZ1GNgwgwmy0EGAIMAAAAAAAAMA+lD8GSGAH2ot8IsK9k36Fgz1FFNWIEGAIMAAAAAAAAGGFkX4Pk+ifnNUhB6ZVRysBdtd6c6trMsjOx2R25FSl0BIllnhpN/xwnWwgwBBgAAAAAAABgFhICPM4+rtl+QBQlwJGeAk17o/8p0GeXvRt6O93Jvk+B9s12DiQWqJHaeLCicAGmHrhVq2IEGAIMAAAAAAAAMA45AY4c2Z4knO29ixAQYAAAAAAAAIBBJCnAgmFbI8MerA5OpR7pgAADAAAAAAAADEK9ALvTkvs9t9mwYKdbY/j37DIEGAAAAAAAAGAUCY0AI0YiIMAAAAAAAAAAg4AAI+IHBBgAAAAAAABgEBBgRPyAAAMAAAAAAAAMQk6A3TcAWVbg9lfuC4fchSFLEMYHBBgAAAAAAABgEP0FmDz8iX3Br/vGXdEbdF3ddUpOVk+szgneHpStgAADAAAAAAAADKKvAIe/8kf0KZHheq/jmHO5Tn6FAGcpIMAAAAAAAAAAg+gnwOW6FfZCIzLSG3RaezS4W7NOForLZBi5Vu1CgLMVEGAAAAAAAACAQfQRYHb+My/c24Ptyc8kbAE+XOiQ8eHDmnWyMAMBzlhAgAEAAAAAAAAGMbAAj59dHj97WHO2Z0+Hdu4HLtetTrU5Xux2rF65CAHOWECAAQAAAAAAAAYx4BRoOujnYzkCPFk9seqH4zM9q344DgHOWkCAAQAAAAAAAAYx4EOwmKCGi90nQhe7nU53wRsHhgBnKSDAAAAAAAAAAIMY7DVI5AZgW4/5r0SyZ0fXZpYhwJkLCHCGuVwsykTaaQIAAAAAABCB/gK8PE496cqyfAZL9NjBfT+wJ8CkwMlCEQKcvYAAZ5jLxWKXR6/Xe/Xq1fHxcbfbhQADAAAAAACzkBNgBIIXEOAMQwT45u07dHz2xYOrpV9//19/tr757OXLlxBgAAAAAABgFhBgRPyAAGcYV4AXFldIfPHg0cHhH/J/f/Uvvv7jO/cfHB8fpynArVI+ly+1Uqs/QSR3LXYLqGq6DB8CAAAAAGQXCDAifkCAM4xPgKsPH9W3m7d+ufiXX//xd79/vdV60WcKdKuUz9EUKsnlqtzE0lW7pAU4LfqeEn33yLhdTho0CAAAABAdCDAifkCAM4wrwCtPNja3n6+srnf+2P3mP/7nV77xk7u/ebS2vi4hwF7XvFJI0oEhwEYQckp4bgwBjgIaBAAAAIgOBBgRPyDAGYYI8O8+q362uPHhzU8PDg8//mTlq9/86d/+8/Ver7ey8iiSAPPkhx0GJAVKBXthq5TP5QuFvGtFriLZW/E2yA4sBnVAlAlToz8V3wbFdfiGNd2PRMt5++5fHuaBomLBzQbkyFnAfsAkSpUX5clpWGFLyh0IUQHe+oFUqYXiVUNOEdHuR2sW+qi4hbkLgw3invOi3RG2G3+3+n+5RA0MAAAAjAYQYET8gABnGCLAtfrWP1z476984yeLy9t/9y+lr337/V/cXzk+Pl7fqMUW4ErB3zP3OvNu57xVyufoFQIr09sPF6cwAaZq5Kcl2J5Tkl5JtI/9950sFwkPhaiYYLNMFtymYzZoWZUCZ7+E6ci0JLe8aLuRp0DTh0JYLWcb9OET7b58szBZtUr5wPnpLuSlQuUs2J2Qdgu0mNSXCwAAABht+grwTM+/ivuuo0Ei0iuRRIVFy72XMIm36e6Xu3pwCaJPQIAzDBHg6uLD2tbOub/5969+66df+/b73/mn/+q9+lO3293a3o4iwJTO+rvslUJQaC1xL9836jioAMt6RWCDoTlLLpfZ9xg74m6WypQs9Q+eS1ZEbZBfLE7+9L9w9FuxbwtIru4V4zV73zQkD598MpK7I3+iRsoQAAAAGFXkBLg2w3rj4IqYgABPVk/sPCMJsOPzk9UTq3OS1TcVe42jMiDAGYYI8Pynn+/ut/9tavavvvX+X3/nP35+5yF5CXCz2Yz2ECx2aJclSi8/NQHm7Q/tl/4ti5aL9p1XnrMjUTbbt7l8GxTtq2gKbxwB5p0SfXdcVMCfv+f4UnWH7X60ZqE/YRU/pPmkdyeaAEt8uQAAAIDRJqoAnz2sWSoGgSMJsMRGJqsnXp7SAtyp9zpWr3x2efzscrlOfs2gADONozIgwBmGCPDnC188fbq2ub1zaerjH1291/nj8f7Bwd7e/s7ObrQp0MzyiPNj0xdgdkrsQCPAseYG998R4fRWYlFMEakRYMnJxLFHgEM3KFlAdgRY7vD1TUOmWSKNBicyAixxggEAAACjTawRYNctiVnZuFZsl+nW7A9sw6TL16qOuzIm3FzoWJZ1slBk6wqM9PI3Qqgf2it23Ny8BPwCXO3W7OqaCx1qg4PtHVOeWu4XbGp6ua9J7UzI9r1i1I7w1uXn5mscCDCQgggw4eXLl69ever1euRYu8QRYP+9mi3ePZMRBbjP7Z/Mp94NxWH6EcjRJ1C8uzNbJf48b2q5YN/F5Vmibtbb4Zxgd2RudvVvMJjO0ATYf6CpQxFyEggP30D3AHvNUimwW8+XWoKFffZXtDuCE5i301JfLgAAAGC0GeQeYNqNaTEmq5BigeXkZ9sJ64eO9BK1OyTmRsqU65Ytw7QA8zfCGQHmJMAR4MOFDlnrsGadLMz4K4q6d6Ly1B5xdiR8p+y6BI0gkxtGgEF0LheLMiFcP7TPzTzKONKTfgTS5c39FA4BOrWVpLTNv0FqC/lCIe/zEW85Yya85bx9Dy0v2hO5zVocoWb3lFmRsT7RBgPbGVyA/XN3hf+aETjQ1Johiic8fHK736dZuE3Vv/14DSLYHe4JzG8QiS8XAAAAMNpEHQG2hxOpocjgACOtZJS2eUJ7Njh7+WShSFbs1eqUGAfcL3QjPP/s96Csct0dZO6Vg4Wl905UXpQws5zaWZkdEa0rKg8BBmAIRL2nFAAAAAAADJ3I9wBT9mUPDlM/hykiPdLLqmOx27GsTrU5WT2xJzB3upPOQsmNxBZgr1LffOxoeycqL0qYLPfRK0vtiHBdCDAAw4WeHOx7A03ftwIBAAAAAIDhM4AAl+uWp3aiSbkSg7e20dW7Cx13MPZkodrrP3CqQoDHi91Op7vgjQPTFUXdO055uRFgL6KPAPN2CgIMwDBgpu6KHseLyacAAAAAANowwFOgyR2ttZllb0xSYoyUczcs/VwremvuzcYyGxHdgtv/XcH2jce1maBkRtg7mfLCe4Cjmnys5RBgAAAAAAAAwGgT4yFY3g3AhzV3Wb3b907Uce4DnGnFpd5I5G1BdiNOMp3uZDQBph49XeRtUHbvBOVd7w3uNd227N71N3neuv1zG/z9VRBgAAAAAAAAgKn0FWCEwlDy9mONAgIMAAAAAAAAMAgIcMJBv9YosanIaQUEGAAAAAAAAGAQEODEg31oc3aGf5chwAAAAAAAAACjgAAj4gcEGAAAAAAAAGAQEGBE/IAAAwAAAAAAAAwCAoyIHxBgoC+tUn7E38Dra4FKwX4vcaEyjOr6Lo+6HSXJDHM74esqPxw44cMZWvvgQPhwG8TolgnuhaorXkLEbvbh5z9gjZo0ODANSQG2X1M02AOc6GcgK3kectYeqmxcQIAzS6S/KK1SPudDg79GcrtQKXAMxF4YugWy08zHdjtQyzT6w8zdUaVo1R3UXYBVHA7f9gfb5TS+CO6/ASRz+VDaPlpUZCiqGyTsXKXOqUIl+LdJxSXQOAFWuKImu+Yj1oEw7S84UI+cAE9WTyzrpNMZzDYVCfBk9cT2cAhwygEBziBejyGSAOv3R0IyK06xSqH/P5xXCrlcoVBgPm+V8rl8Pk/1svRpmVYpn7D/6tUd1FyAlRwOtd6V7hchiZMEAqwJyhsk5Fz1fcqWbJXyCv51BQKc+q75iHMgTPsLDhJASoCbCx3Lqh+W65bV6U7G9iUVvkreKpShNwkZHRDgzBJ5BFhUmPoXeLcIKV8qhPyTvO/f8QPbEvzTLf0JU0vIP/77s/d+D9kvu7vFDkXY5QVdsWCdTAvwGoraElOV5PChVzs91MbfI06DixuQfyD85dnttMQVCdOWSTyQj8TRF+Ug3I63g+wB4W2EHdbkJh3cqxhfk8BBiLXLgnZnf0/uiyCsnLuHgk/4Wx64faJcQJQeiMBGfQYXfp7wTht+pfzTkPcVlqo6ZE+ddXzqyF9R9uDyz1Ur+J0N/KUQfSnDL7ZB75W6vPsPtMwJEOcCG3LhlbsCS1y4uHnxTowB21bm7JVJeAgXLmAyMgJc7HaIc870LOtkoegsn+lZltWp95y3/PTK4cvFI8D2y3Ity6Lkll5oi7czE9si6/qM2vcpnUy1W+MmQ7ZdbaZtkoYGBDizqBHgVinP+WNn/8UUd//oP0phfQz6DyRVplJw/6ZStYilMThIQP1lF+qiZ5aBfy3ubw7+FhA0FNVxIH/svfaTGT4M7Qj6dofT4HIN6KXOlvcOClW1zJEV9Ntapbz430qiHH1RDuLtuMnwG0O4EdmBlJhfE97AY7RdDt3eUL4Ion3hfs7bnQijVVHbR/oCovxA8E9FyfMkcNqI9y7w5WLX9Z0B/av27Wnwi8B+m/o2UUgbCc9V32/BLUgYMP9iG02AeVdC6RMgsLHQoxO23J+n0guXJTwx/ERqW4mzVzLhIVy4gMlICDCZ/7xQtKXR08WZnmVZtlISnySaKlouEuCZnuV4b7lu2XVRCx2JbY77RoADGxFtnE6sU2067+btlb0fUpdJEwMCnFkiCzADv9/ct9/Ar7pS4P5Rdf94Sv7xk/yjTsulzJb55Z2/qvFyY//8FipOIzgtIWiRvnlK9mmczUs2oOhA9O8vhhxZifOkf1Yy555gZ/3b4Q4U9NtIhFMu+tekb3VRm52TVfJfBNG+8AsM0Mghv6o9mjEqkmwKyc32STv0hI9aRezl8fZFlCp97nE+khTgfhfbaAI82DeRm9fgrT20U124D9Jty99gjL9NCV+4gMn0F+DmQsed+Uz/zHip4669cshygQB7BYIRGNQVCbBnzl6lnkjbyXjlifdiKjUEGPCJLMChamRTkbilkHya4wp14DP3b6FEPzK0UmYqVr/xB3Yx9Rv9AdnXCD0kXkO5n9h/98n/KgXJQxNBgHkNHtaAogPRtx8mOrL8tOk1+NlHPfphOyvaTqB6yY3E675Lfk1C9lFyl3kM+4sg2hdqaZ/vuxovjXr+K62Is7XQf/KzEZwnnF/5lXK+XBzf4H47+lUtOkZSziZ3cEXnqm+tCALc72KrRoAlv4kSF1jhhSKwPOrVL9qpzv/LNWjbcpshasJDuHABk+krwOw0Y8YzOaIbcE56OV+ABWOw9jCyt8FQAfZvpJ8As2qNEWAIMGBRJsAS/2LNWYv77+LsxEC3WNTauVS8R4iKB/q8pfxuTEAR84VCnNx8Hbh8qeT8S3mlkCuUSnnJIxNBgCP9C4LcgQguFx7Z0HpDFsov75tD2HZy5MZK9tgO9m8uIYdG8mvSt7qozU4Y8hdBtC9OKnKn2eBequ5oxqgofGt9a+lfe79KpbxU6fJ4++KDe6761gpsIWyT4RfbgQQ49N9qeTsW4cyXb+2hnercFSO1rW/f4yU8hAsXMJl+AszciOtg+2SSI8DMQokp0BFHgH0VYSgYAgwYgn85bBOQK8xbh71zLOyPSqD3zfnzT2+6z92bfZKk6ixwngnJMzG2GUR/vO1ndMj8YRY0lLcV+jPOo0D4OyYpwHINLtpNL/VA7yF4uPkVidKuFNhq+PlHPfqiHPptp1LIiY6Ru5FgE8j0I2N+TThZRNxl4TaH9kUIqUL4fZdu5AHbJ8IFRPGBiH4PcFie/Eq5Xy7haRm1asEx6i+68gfX4p+rvm1wzqI+GxRebGMKcMi1vd8F0Le+xAWWv7z/GRj3OxW2d5wVI7Qtv76ICQ/hwgVMpo8Ak5FV6sFX4ff60rfdhkpvsDxxVFdcKS+1pysHbxiWvwc4IMCHNSdD7w7n9H3SuIAAZxD/P4/St8dEFWB2c8F/7hVTKXAmHjmSAAAgAElEQVRSoJfmCwX6zxhTntOV6l8pSTQwWOCjcIX3N97+I8394y37h5nXUPTGub/xFvBrkflHB1+DhzQg90D4mkswgZZ/ZPlp9y/L2abE0Rdtt992mOMp2Ii3OGz0gPsvIL6jL/E18VbLB2brRW12dptD+iIIG8SfNPt9l2vkAdsnygVE+YHgnIpsPcLzhJcnr1LeMtFXOE7VvGPUX4AFKwrgnKvUbhUq4j9nIc0uuthGE2BhnVInQOQLrGg5J8+BLly+U91XfehXPFrb9m8xiYSHcOECJhMuwLTung0ose8By/57gwPLoz0F+rDmLqp3qXuPD73NRngKdNgUaDwFGgIMgJlI3xAMQBYJjueA2Ej8m8tQwcGlkRpwBgDIIvUeYEGwU537L0dkLSDAAKQK/BeMHPTM0dBZlyAiGqgUDq4QCDAASoEAI+IHBBgAAMAwYSY2ouevEA1UCgdXCAQYAKVAgBHxAwIMAAAAAAAAMIhBBBgx6gEBBgAAAAAAABgEBBgRPyDAAAAAAAAAAIOAACPiBwQYMLgvJnDfdk/4wQ9xkxIAAAAAANCByK9Bsl9Z1Kk2nff9UrBvQvK/oMj9VUmIthmSlT7hvITJeeeToQEBziDxn6jhe2YnHuEJAAAAAAC0o88IMPXWX0d7ynWLfQ+w87ArYp7ENm0LdVYcugB7Ypn8E7kmqydRPXayemJZJ52O6jYZdkCAM0hsAfa9sxGvcAQAAAAAAPrRbwo0Ge+lBO+wZjGWS7klseVe+Sw1DEsEL0UBphNOIALtIxPNhY5l1Q/LdS1HpyMEBDhzMC+hyOVLLeLDpYI7szlQgqzoTncmC9lfHzJSjRddAAAAAACAtOh7D7DPM2np7SfAtWq3Q34VCzARSBt2BnWn2q3ZH/TKgfK1aiwBpiZIu5nbElu1pyVbVq/sFfOqductWxYr9vQS3vb9Uex2SIYzPd/oOt0a7i5wF/IrovKxFwaXQIBBKL4RYGKrgqHcVinvfcZZ0fmV+rlSYKS3UsAoMQAAAAAAGB79H4JFaa0zd9d2Nu4UaMoDazPL5brVqTalRmsDas0ZZ6Z+trUw0hRoiU3ZP5Oq6bTpvaOWMyPAYf864LPck4WivR1fA5JN+eaZcxcGKnKPVMgPEGDQhxCP5ReOIsDxbzAGAAAAAABAARJPgfa8i3gUbzTVhv2oNkMcr1cOnwItGEdlxjDrh2wmER6C5Romszq1L0KJFVVN/UqvK9o+myG9nClTrltBRxUvDFZELJce/Q4ugQCDPvQXYHYSdGQBxpAvAAAAAABIDZnXILlOyBux5E+s9cYtmwudPtOV6VHNUAFmhzH7jyr79M/+laVXlhJg/wgqT4CF2+fYvpO2/x8X/OVDFvIqov8pQbQEAgxC6SPA7BRmjAADAAAAAACjkHoPsHMbre+eVSkBDjwQSzS8KZo/HGsE2K7a1j97Fd8orhvJjADzg7nn2YFUF3cEmBPlumWxA7/BJRBgwId9fVGoD6u8B5jZFgAAAAAAAIkgJcC2htV8Ty2WFGB3xJIvwOzwaegUaHo5WbfvPcDMrcKCzcoIsOgeYOFtzHw/D7xWin7Tsn/v/Lf78u8B9io6rFkWNaZ9slAMLoEAg754U5zdp0DTY7bUA57zhUK0EWD/BigZhgADAAAAAIDkkRNg/iiurACLH1hlOxvZcte7IVZskjGfAh0cjg5ss7/EBu9VpneBeQFyoK2CustT4nhPgeZmiKdAAwAAAAAAAACLpAAjEJyAAAMAAAAAAAAMAgKMiB8QYAAAAAAAAIBBQIAR8QMCDAAAAAAAADAICDAifkCAAQAAAAAAAAYBAUbEDwgwAAAAAAAAwCAgwIj4AQEGAAAAAAAAGESE9wA7cN5mJB3Mi4Wcd/9aJwu/FrzTSHkE3+fEfcMTQiogwAAAAAAAAACD6C/ARFN7ZfIr5022/WOyemK/wJYW4JA37sbbuEy4uuvswmT1xOqcDEm/hx7RGidyQIABAAAAAAAABtFXgGd6lmUNIlGT1RP+FmgBVr5xUZBK672Oo/TlOvk1gwIcuXEiBwQYAAAAAAAAYBD9BLhct7zhX4FPEjyVJZLZObEsyzr4U8ctUT/0RnrJD/aa3Ul2BJiYG8H1N3qhPX5Lb4QaVfbnExTgardmnSwUl8n4dq0qrN0b6/ZWJHhtwi9PLfcLNi9JW1ar7h71yl4xqv1DGtyXW7BxIMAgVVqlfC5faiVWPgNUCjlCocL8+oMfptB0I9j+gyDZXMNvVbfG4A9Jb9D0U2iY+fu++5pkNYKk+A0FAAyRPgLMzn/my2ST+zMzx9j1WJkp0NSYc7luWcRU6YFoakVm46J8ODkfLnTIWoc162Rhhl+7cKcCy8MTsO+gDu51YEdIGftnWvJD1xXlhhFgEJ1WKZ9zkfyjXCkwvbZWKR/4vW+nTpBKMt2C0C2TFmA+thuFWhayhfhp+9rR9+vQMa5blm7CyQmwqv2KLcB9/RYCPCihX3ZfGoNlxa3JXpjohdEUBtmFeOtmoNEAMJABBNizU7dk0A+jC3DYmHNgVJPeuDAfnrSX61an2hwvdjtWrxy8A1kwtiy8YzlQnknGv3ecJIUmL7GuqDwEGESmVcq7nSO/yIph+lR2p4j5PZbHpSPAlUIuVygUmM9bpXwun8/7dkq1APsaKna7qcK4bhkEWHI7EGBJhpZ/+JddqQDzVq8U+p8YA18YTQECDMBoEH8KtPsMZ5peeVABFii3PfXXGw0OOJ44H54AT1ZPrPrh+EyPmZgtrih8vDpQnvfkMG85J0kJAZZrcAgwUIb83+WK1y9qlfL5Uon53f7Z110uFegJf+4EQK8zxVbPKcAu9cpyF0rumL0n7DCJXb7C2yvOppnaAzsbKMFNmv31IVNd/1F6Or2+rSFKyd0Itd9Mw1A/c7cQaCRqQdRjxD95/KeLb5uCpg4U9j4SLRecfux+SE2Z8OfPP9t9X5uwGvoenUhToDnHRXBKy2xQtLOhTerfQN/mbZXyuXyhkGcSDKwgusKErRg1f96VTbhD3JOLs4/hlxR/TRKt6j9anEt0kEEvjIEdEf4t4DWR7NVA/I8IgjaO+XeHfxHmn63KLh0AAKUM8BAsdkCSI5mxBJiv3MxCwSxfYT7c3IrdTqe74I0D82oXTTmWKC83AuxF9BFgQYNDgIEy5OfgsmZTqFC9cu8nptcinOzL7Y31LeCNXXMXitMN7jL5IDConS+15HqKnL6asBmZQfaQcR5fUzAduNAdlGkNUUreuszRZDqqosqpm5i9IkElC8kqrMtLbZR/ZoTul+DgSi73/9uCqI8ugs3f24Lc0efR7+hE9dXgcQnXjz4b5O1shOPm25jwhKObIHjYxBeQ0BWj5h/6ZfftgehkE6wnvqT03c0+26N+S/LCyN9ff4sJmkjuaiCsXHBix/y7E3IRDmSg8tIBAFDKIK9BCh0U9T2iKeo9wD6NJLfRMiO94bfsit6r5JU5JI+Mqs0EJVNYkUBK+5QX3gMsklWZho14NzUEGERE2N0Uli5ULMd/mf8H+vEhfX2LWlXYvQ4U8GfSrzMhIwC03jEq6A7jygtweNc2igBHcIUo5bkpsV1C76j6D3HYTvE71zGOkczJI9nUUbcsefpFPTSq9qvv0YkpwFFyjr2ijfBU4u9oSC3/f3t3HxzFfef7fgzSzOj5CaQZSUiA0cM8CQnxIAEOA9jgxOfW2BhpJHAqVefWyZ/nKNlQvq7anKq9fyw5GF8tFW/2rHP27Dq1lJ2NK3uUy1knmxND1knwRsiObbAdYiuygwHLIGA0+Og62ur7x69nprune6anNULq0ftV36JGPT093T89oI9+D23qu0bvM2jmhdZ+ImVtjYW80MxZZW+xbAly4T8YLXzZm9nN5Pegqf8pFvb/Tubzz3wEAjCwFLIH4GTnaoIyVSoWJdascqxYgEqOmtrVno3zqt4q0ImDSJI0FVfM71Uc3Oh89AOwyKvz46Oadzd4I8OzNTqxVKNpVpnWPUlTAdhMg+ueW473bSYAQ/Mn7uzkX4uuvRBVZSbdP4Dr/Pevkf7rtd4O6mdUf0/PPLDM4BcO9WaDwCYS/YICsOZ6cg3AJqNCpibSfYH2lDQHEZ/N4+fTO/lNXVR64+b0ObIYFI2uSzPXWq9ts375Ge2fWf4DcLbPjvm8avR5WZQArP8dnfGMHMY9wFlzrNFn0HIAznZAw89TksmRwzmlRJOtqu7kztYRnYcfjJm+uTTXotdEOWR+01/Ylv/fyfBDOIf/2nL/0QEgr8wFYGpBZdQdbfsiABekay/k0vebcP64w3H8hUT+lUQUPq/721WWX3okvf2znY+pv/Fn3q7z24ojleZV+Tp6/PgCOgE0v0wuZg+wmdYwOiXNCURfeCHRo3T+uOpTnemiEr9qGw6nt5KdTAZFE9dl5shZvz4zX0j2V2XrFMp65MyfnVwCsP555jMA6/0NwlCmr6vsp5rTZ9BsAM54/pZzbN4CsOmf2/I3pO6cXp23X+gPRgvfzmZ2s/A9aP6rwsJnOdf/2syfNoB8IwAvTilva7T4Q5GXqgjAhcew6zdrLBYTENW/rjp0f7tK+/8+7bcwbSTQ3+H8cZ1uCd2NOteimw/V12d0wvLqJUa/smT8nVL9oapRzf1+nNsc4NxbI3VKqu3K6aXajzJdlG5zmTkrdTOmZmhmas9MLa84q7Rf241+nc/85We8f6YRFOkv0pmQqJqRamIyvrnPTta8avh5MWjY3AKw6uvCoEkzvNz4J1DWHGviJ4yJAGzi/LMkGeMjZHmh2R8pplpVeczjOqs6L84PRoNvFu07GjWRmZ8Gxv9FGXxhW/x/J9MPYe23as4/OrL+PwsgTwjAi1XqRZsLsPv3IgG4AJ1XrUyp/G0m+3/M54870oOPiT/bp7+xzi8JejvobtPfqKbTpXH8u3ohQ/71RTexG//Cmjp8VG9MoOIEo8eP59YDnH6FWX7bNNEaRqeU/qbabl0TF5Vsj/T2y+Wsjr9gqs9H1fKZzir1hLrPymi70Rkb7J8hsWq+9rS/LKddr+516TaV0WfHfF41/rzof0mbCsCGn2lTXwSZvq7SLjDD46w/YQwDcC7nn70rT3HErMlT92XpP1Ky/5zMdEzVuy7uD0a9bxadCzdoIsOfBmau17BVLP2/k7Zd89lQb8ztRwcBGLhXCMCU9SIAA8gmvQtpOTE6uwWcteFMRABS/n4kZP+LAwDoIwBT1osADCCLrAN47znl2FDNMm2GYxlzQP4FtPL0zZV2UL7XAFhCAKasFwEYQEbL8VdU1cBJ3eGLGQZyAsjdonxzLcefLgDsIXMAVt71t/9i8rY6yVsciaWeYhNXrSx0vBhrI2vvwKT3jpr1qMSNhZKnUbArNi9GEYABAAAA2EiWHmCReOfGUllxbnIqlQ/FrW4nz1jKjfc8AJ+YmJek+VhM91bG8+Oji3ZWBVsEYAAAAAA2km0I9NiUlAyHJybmpVh8bGI+0ScsFjpOxONc614H4KvjMUmamhmbUvZpJwNw4kwIwDkUARgAAACAjWQLwGKQsxgzPCb6fs/MJSLxzKSUCJPK3ChSaEx7I1whlU41UTPDPsqN6VtMBuDReExcSOr8Uy+ZnIjHRJInABOAAQAAABSmrItgjcZjcqScmZSTcOJB6imdAJzqZVWGUuXj9Mys3SfZw5zhgdkALMY/j4+qTzsZgM9cHJuyOpl55RYBGAAAAICNZF8FemZSkqSpme7ReEzuOL06HpNiE1eT0TFTmlUPopYzbVqnscE+IuUq16xK32IyACveV/U4FYC7R+MxaW6MAEwABgAAAFCYsgfgRFw8M5fscRVjoU9MzKf6YA0DsBxZ1TSDjbPtk3mLmQCsjrWqvJ2K8VfHY2IsNAGYAAwAAACg8Ji4D7AIuuOpta/k1bDGlatJme0B1g+lhvskKrXctPGW9LdWX4KWcsS1fBzNglgUARj30Mq5qeM9vtKV07AAAADZmAjAyVioszaV7u1zNSnUaN6v0UtS21M3YUrM4E3fYiYAix5mxc7K+xsrA3CyL5oATABeoa69EHUkmQxNqtfIjp+39t7Z3/L8cZ2jyxvPH1edgPbErJyURZmvhUQKAACwRMwEYDmIKrtb07ZkCMD9qhWe9TNz5n0kScplFWi1+fFziribHolVATjRV0wAJgCvUOePJ1PitRei5jJjvuKcyePo7Hb+eHKL8ln1ntdeiJrO9AtGAAYAAFiWTAVgitItAnBhMxvTjPdTd8Gq9tHpahbHeeF4th5b7fupPjYOwJnO9NoLUUf0+PFo8nSSpyfvrnml8kNFt7Ny70wd6dorVV3o+VwbIPmhUQOq91eer0P5Qt2rM3M+AAAA9kEApqwXAbig5bkHWHm488dVsVDudhaxMfmOumOddd7Q+KP0EzM6VWXv8PnjDtXj5LkZZ85U+E6ccPYe4NTFKVtDedGZ47rByeg1oGJ/VcvrX0Xa/uauCQAAwBYIwJT1IgAXqEQHZn7nAF97IaobJlU7GPZDGu6ZPKz+U+YDcMZB1KYCsIk3ynyl2ledP677JwCTL0/fbvmFmc8HAADAPgjAlPUiABe2hQ+BTgvHyQCcS67To+rdVB7sHgdg9RUadUubvVKdPyXk8pcCUwFY748FCzwfAAAA+yAAU9aLAFzgjAchqxiGPfVI5zz2AEuqdZ9Vp7iAOcDWArDJt852pRn/NJD95YvXA0yXLwAAKCgEYMp6EYALzvnjqqm5mvmipqbkGm03NwfYdAAW0ff4ce0uxilUOc8306nqP1Yl7dQ0YWWDqd4u4x8PtDOH1fOBUy9TTCpOv/b0k8meb1XvpWgQgwNmOJ8MXw8AAADLmMkArHuPogxP6d+PV1Gj6bcmkm9BFJu4qnM3o+Se4imjeylR97QIwIVHtUSwMi1mCcAGc4AVh4seP67sTtR5o9wCsPy2qj0s3wc4ewBWH/wFVTDWfYPUm6dfhN7AcL2LMD5l3ZMx1cGbemX0+PFsV2d8PgRgAABgT2YCcIZ7/Bo9lTUAK+/Em9g4NiUp782berkIvSIDy9k48UIC8FIWARiwMbOTvAEAAAqHmQB8Zk6SpMkzehHI6KnsAVju71W8dmZSUqVcxctFWp4b61d0OIvQSwBeyiIAAzZGAAYAACuP6QCsHzKNnjIRgLXZNVMHsjYAT07EY+JDAvBSFgEYsDECMAAAWHnMzQEem5J3T8+0+k+ZCcDKWCt3CCcGNusOgVYMtJ48c3FsSopNXCUAL2kRgAEAAADYSA6rQM9MJl6UNuY57SlTAVgx6VeEYc1KV0rqpybPiL7fuTEC8FJWMgDPzs7evn3nxo2b09OfXr/+ybvvXn777XfeeOOt8fHXf/mrf33l7L8QgAEAAAAsuVxvg6S3erPOU+YCcGq30XgsrctX/+WpWcdXx2NiLDQBeKlKBOB4PC7S7yefTF+79snHH197++1Lb7zx5viF18+f//W/vPqrn73ycwIwAAAAgCWX832AVeOWDZ8yGYCTC1+dmVOtCG0qAKctiEXd65qbm3vxxRevXLly586dmZlbN27c+PTTG9PTn37wweTly+//9vLv3nvvt++8897Fi+/867+Onz59mgAMAAAAYAmZCMBilq+cOdVDjg2fMhuAxRHmJqfUvcomA7AcuQnAS1Vzc3Pnz59/8cUX//I7f5m5Tp8+/dOf/pQADAAAAGAJmeoBTuRMQTX+2eCp9Em86lv+pkq3F9dsAJbvpUQAXqKam5v7wx/+cO3atZs3b95SuH37tvg36c6dO7FYjAAMAAAAYAnlPASaopJFAAYAAABgIwRgynoRgAEAAADYCAGYsl4EYAAAAAA2QgCmrBcBGAAAAICNEIAp60UABgAAAGAjBGDKehGAAQAAANhI1gCsvu2Q5j7AyR1kye3pt0FS3TxJXeKYynexUMoTSz/JBR6Q0i8CMAAAAAAbWWAAVn6ovHmv5lUiDxuEyRMT85I0H4stLG3mKQCfmJiXT5sAnL0IwAAAAABsZIEBWPNsv8Gr+mcmJaNO4KvjMUmamhmbythLnLXykVdPTMzrXw6lXwRgAAAAADaSjwCsEzv1eoDlzmFNjcZjYs8zc5I0Pz6qfsnUXEw+0bmxzNuNe4BFrBWSp6TcKAfvxEhs+Yp0+7qTz6quKz6pOZmVUgRgAAAAADay4DnAY1PykVT51vQcYDH+eXxUPnLqIPIR5saSbyqOYLTdKAArzn9sSpLfS3lRinCu6gFOO4jRwZUnph/yC7YIwAAAAABsZOGLYPVflEc4S5KkTpXaV+l0kF4djyWzsfKxNk+OTSVebrTdIACndkivtE5dowCcSs6pN00FaflkVuKcYQIwAAAAABvJTwBWPKXoDlVOptVkSN2jqfbRCbppmVO5XT8AXx2PSToBWO5GTh0wYwDWHoQATAAGAAAAYEPmAnBqZG+mmKcIiuYCsGoiboJyHelF6gFWbTQxBJoeYAIwAAAAAPvLGoDl4c1yXNSskywmABtNms22CrQIzIpUnHmur3LabcbQa3RzpmRwVZy2OAe90zY9B5gATAAGAAAAYAfZA/BF5RRfSXuXoESAFNQzeNXSxiEr4256JNYssKydG5y2PbdVoBVXNBVXzD2eSR02h1WgCcAEYAAAAADLn6kAvBRltKjySlxsedkWARjAivXtb3/7ySefHCkUTz755Le//W1aI4kGUVpgawDAskIApqwXARjAyvRfTpw4derU9evX5wvF9evXT5069V9OnKA1BBpEaSGtAQDLDQGYsl4EYAAr07Fjx6anpz///PNYofj888+np6ePHTtGawg0iNJCWgMAlptlG4ApGxQBGMDKNDIyMj8/v9SpJM/m5+dHRkZojSQaRMlyawDAckMApqwXARjAyjQyMvLHP/7xTmH54x//aDnvFV5r3KFB1Cy3BgAsNwRgynoRgAGsTCLh3C4sC8x7S336+UeDKBGAARQMkwFYeVuj5XCnn+T5qO9IlP30VuLNihavCMAAViaRcG4VlgXmvcU5qX/+z45D/+29xTl2NsuyQRbOYpMSgAEUDDMBWBkaLa1BdWJiXn334AVXMu4m7gN8YmJeis1nD7fmAnD+T7gwiwAMYGUaGRn5/PPPby6Cd777mCPhse++k9j8k2+mPvrJN1VP5c3nn39uOe/lpzWUF+9wfPMnN9UXfq8tQYPotEDeWWxSy60BAMuNmQB8Zk6SJMuB8MTE/EJerl8ih0/NxaS5sf6L3f0Xx6bEh3no3V2UEy7MIgADWJlEwrmRb5eee8zh+OaP5Y9+/E2H47HnLiUeyw9Tj/JtgXlvoW//4286FBd/48aPv/nYc5cW8XKzu9cNot8CeWexSQnAAAqG6QCsDZbqrtSxKUkSWVRslyRJdBQrPlT2Iad2UGbOieTOc2Op3eSIqyq5Izo+Kc2Pj17s7r86Hku8PHFK4piJd5I7ivV6s+OTyjcyd8L6r83wvub2T6Vu3TdddkUABrAyiYTzaZ69/KcOx5++rLvh5T91PPrcxU8vPveoeo98WmDeW9ibX3zuUcejz11M2y5feOKxLNEGqS3qjY8+9/Jzjyq3WXJvGyRDCxhc43PyM4pXKXaWd9VtNL33WbTWAIDlxtwc4LEpeXdFGLs6HpMSQW5mUhJhL7kx9ayqQ1U5glrxWA6BUzOpxyI6Go1Yll87Mx4TR56ZlObHz2jDrc6bpgVg+Y3STibzCRu91vB9Tew/NiVJIs8bvemyKwIwgJVpZGTks88++yC/Xjv1iOPYS6pNLx1zPHLqtcSDl049Ij5aHJ999pnlvLfQ1njt1CMO3WtLtoBiD52GUm586ZjDoX+wHN3TBjFsAc0+imsUD1MbXzv1SGLjB6+dOnbqNf1GSzZpbiy3BgAsNzmsAj2T6L2UA1sqKKZCmsi9qvHDyjyZynjJCB2Ln8iQObME4KtjU8l+5rmx9J3Tu3ON5jMrtps54SwnadCNnL5/qudc++cGvTdddkUABrAyLUoA1gkmLx2TE81Lx0QvXiEH4LRM+8EHqUZR7aD8INEyqdaxGPDS3fMArNsCH2S7RmUTqS9cv9EIwABWulxvgyTCm7p79sTEfCqwKbOftgdYjsdqGXuJswXgExPz0tRM95k5aWpGp3dX0aFqKQAbnnCWXuX099XfX9mLnizjN112RQAGsDKJhPO7/PrV6COOb/xAtekH33A8Mvqr5IMffMMhf7wYFpj3FvTevxp9RP/KEi3wg2841L7xA/Fs8mWatlrQ6Qj3tEEytUDma1Q2kfrrx7DRrLQPARhAwcj5PsCqzDY2JUmxuUm9LkoxanryTIYO1VRZDsDdo/FYLD6e6gfW61nNGFZz6QHWO4F+4x5do5HMufUAL+ciAANYmUTCuZxn//AnDsef/IPuhn/4E8eXRn8ptnxp9Jf5fufLly9fvrzAvLewN//l6Jd0L0x54aq2kZ9MbUzsmXqwUPe2QQxaIPs1Jh7/cvRLmibSbTSr7UMABlAwTATgZJTVSaSJtZoSk1TFMOlkp26qIzRzuLUegBMDsyfPpAdLdS+u6R5g8/OHDQKt3vuaOI7+HOBlfeNiAjCAlWlkZOTu3bvv5durz3zJ4fj6i/JHL37d4fjSM68mHssPlVvz6+7du5bzXh5a48WvOxQX/957L379S8+8mrrwV5/5Uuq6X33m68+8qt6WapdUWy3QvW4Q3RbIfo2qJkq8XrSQXqNZbR/LrQEAy42pHmD1oFxVZ6/In4ruSs0q0Kl9VLNnZeoVmy0FYHFu8+Ojmp1TM5alqXhqGq2ZAGzihLO/VvO+xheVdRXo5Zp+CcAAViyRcN5ZBD8/+cXkgNUvnvx5YvMLX0t99MLX1M/lywLzXh7OQHnxDsfXXnhH58LVTZN6xde+lthT+ZIFWYIG0WmBrNdo0ETixTqNZrF9CMAACkbOQ6A1lauSaUwAACAASURBVOryXeowRt37IgADWJlGRkbi8fjFwhKPxy3nvcJrjYs0iJrl1gCA5WaBAVj3FsHUSikCMICVSSSctwrLAvPeUp9+/tEgSgRgAAVjAQE4cXNgun9XbBGAAaxMIyMjs7OzbxaW2dlZy3mv8FrjTRpEzXJrAMBys9Ah0NRKLgIwgJXp2LFjH3300Y0bN94oFDdu3Pjoo4+OHTtGawg0iNJCWgMAlhsCMGW9CMAAVqYTJ06Mjo5euXJltlBcuXJldHT0xIkTtIZAgygtpDUAYLkhAFPWiwAMYMX61re+dezYsZFCcezYsW9961u0RhINorTA1gCAZSVrAFbej0eSJOWtepbPLWqXz5msrCIAAwAAALARcwE4GXpVN+xd6th5YmJ+mZzJSi0CMAAAAAAbyTEAyzf+jcVPLHX6UkVxammKAAwAAADARnIOwOLuR3Nj/dp+V5FIZYqEnNwem5pL7X9mTpKk2ER8Un6B4l5K4rBCslNXsTE2cVW7j/GZqLqIky9f+uhYGEUABgAAAGAjFgPw/PioOgArd5PD7VXNY/m+wYr95Zyctr+8T+r4V8djkiTNjaUeGA/GVpxJ4lR1Xr7U0bEwigAMAAAAwEbyFYD7FUFUmJpR7awXU+XQq9iu2l+bYFWnYRSAUx3UqdJ5OZWPIgADAAAAsJF8DYGWF4ueHx9V9uKqe1yzB2BtD602bMsy9AAb9PGmvXypo2NhFAEYAAAAgI0sZBEso35X7bDnhfcAp0KXGEc9eSanHmCdly91dCyMIgADAAAAsJE83QZJESzl8cbpQTd9DnB6ADaYAzwzKUmKjt9UP7PRHGB1/NZ7+dKnxwIoAjAAAAAAGzEXgJVS3aeqOcAzk8k9puLjsdRC0HLulaTJiew9wKkP5UMZrAKtfMdY/ASrQBOAAQAAACCLrAE4j5W+aBZl7yIAAwAAALCRRQ7Acmds+q2SqEIoAjAAAAAAG1n0HuDElGCB7t+CKgIwAAAAABu5l0OgqUIrAjAAAAAAGyEAU9aLAAwAAADARgjAlPUiAAMAAACwEQIwZb0IwAAAAABshABMWS8CMAAAAAAbIQBT1osADAAAAMBGCMCU9SIAAwAAALARAjBlvQjAAAAAAGyEAExZLwIwAAAAABshAFPWiwAMAAAAwEYIwJT1IgADAAAAsBECMGW9CMAAAAAAbIQATFkvAjAAAAAAGyEAU9aLAAwAAADARgjAlPUiAAMAAACwEQIwZb0IwAAAAABshABMWS8CMAAAAAAbIQBT1osADAAAAMBGCMCU9SIAAwAAALARAjBlvQjAAAAAAGyEAExZLwIwAAAAABshAFPWiwAMAAAAwEYIwJT1IgADAAAAsBECMGW9CMAAAAAAbIQATFkvAjAAAAAAGyEAU9aLAAwAAADARgjAlPUiAAMAAACwEQIwZb0IwAAAAABshABMWS8CMAAAAAAbIQBT1osADAAAAMBGCMCU9SIAAwAAALARAjBlvQjAAAAAAGyEAExZLwIwAAAAABshAFPWiwAMAAAAwEYIwJT1IgADAAAAsBFzAbitxZHScvreRazep6t13zE4oj2Z9C3UohcBGAAAAICNZA/A51rrHA7HSJv4UCTSuqcDliJToO1hbzCXl2QNwIkzCbQ97Kh7WH9n+1fO7XaPigAMAAAAwEayBuDgiMPhyEv6CrQ9nPOhMgbg6paR6kQyb2sRHxZgALbSbveoCMAAAAAAbCRbAG5rUXT/pleyJ9bhqG47p9xY3fa0V35mpK0/EWWTo5TFPnUPJwcti5in6dfNEoDbnvY6Hm7tvSi6qb1tqp31D6h7bhn2V2zXBmy9a5fDalvyYkfaUrspmtFyuy196CUAAwAAALCpLAFYPf5ZP4We030sZ0jFdlVPpnKffnU/s/JQWQLw6dY68arTXsfDrUHFzkYHNDi3zPuLx/JEaMXx0/eR07Iy0ov36tWem8V2W15FAAYAAABgIwsIwG0tDofcAZvYMz1YKoJfegBOdX6KSu/tzBKAz7W1OKrbznX3Pl3tGGlL3zn9gJnTddr+qmtU7G907YbXaOK1ptpteRUBGAAAAICNWB8CLbKxxkibtQAsDwl+uLU38dhcAA60PSwPqG45nd7LqnNAowCsv7/eAmCp7TrXbiIAL6zdllcRgAEAAADYyAIWwVL3ZOqkU/MBWBWzcxgCfa679+nquqdbU/3Ayl5WvQNm6pXV2d9cD3Cqcu8BzrHdllcRgAEAAADYyEJug5SxN9Vou3EAFk8lOkjN9QB3958WS0Z5g+khU++AmUJplv0N5wCbCfmm2ydLuy2vIgADAAAAsJHsATgVUGXKOKpYzVizPLJeF64cVh11Twe0c4ATTzkcjpanU9NiswdgkVcfbu01eC/NAbOem2Z/xbVrVpnWvXZTAXgh7bb0oZcADAAAAMCmzAVgqrvfOI2v3CIAAwAAALARAnDGUt7WaBkPRV6qIgADAAAAsBECcJZSL9pM96+qCMAAAAAAbIQATFkvAjAAAAAAGyEAU9aLAAwAAADARgjAlPUiAAMAAACwkWwB+MTEvPYlsfiJpc1do/GYJElTM9rtZ+Y0Zzp5Jq/Hp7RFAAYAAABgI+YCcE5J8sTEvMXkabIyBuDkW1s48yzHp7RFAAYAAABgI/kOwNZjp/kyF4C7+2cmpWXQX13IRQAGAAAAYCNWA7A8NFqkUJFIY/ET4oEgnlIMS45NXFUm1VgscQTx4UR8Ut5xbkzzLvLrE1HWbAC+ODalOJrOmcxMKo+TfLn6+MpzSB1c97oUl5/aWMhFAAYAAABgI7nPAU5Eu6vjMUmS5sdHxQM5Z6oCs5xsr+o+TgVa5Ydpu+kcKrcAPD8+angmyoSceqw8vuKY2Y6WbAdVgxR0EYABAAAA2MhChkArOjx1Z96mEmMyMKen3KzhNr1XOfcAnPlMJs9cVPUGK46v6kNOz9Wqo4ncu8jDv5dXEYABAAAA2MjC5gDL/cOKebaK/eVAqDY3Zj4Ay8OMU52ulgJwsktW70z6ZybFW5+ZS2Xa1PF1+3KNj6bM6iuxBzgWi93VMzs7SwAGAAAAsOQWEoA1U3nT9lf3lKa9MFsATp/Bm+MQ6NQiWIZnIk44Fh+bmNedY2yiB1inxqYkw0YrqNIE4Lt373Z3d7e1tbW1tXV2du7evfurX/3qyZMn7969SwAGAAAAsOSsB2BNvFRN1s0ycTeHAKzuTM6lB9hwNrLm5YluW+1aVmmnqj8HOLXzzKQkibR8YmI+c0IulNLtAR4YGPjKV77y1FNPnT59+uzZs/QAAwAAAFgmcl8ES2Q8dSdnKvslHqsm2crU6y2bmAOcOJQkSVPx1MTdjAFYSZXbdc+k/6JiNa/ElhxXgU7P0qqrK+RKnwMsMvCxY8e+//3vX7hwQaRf5gADAAAAWA6yBWCKMi4RgK9fvz4zM5Nc72p2dvbu3bsvvfRSMv0SgAEAAAAsBwRgynqJAPzpp5/eunXrjkI8Hv/ss8/i8XhySywWm52dJQADAAAAWEIEYMp6iQA8MzMjIm4Gs7OzBGAAAAAAS4sATFkvEYBv376dHneToVeJAAwAAABgCRGAKeslAnB61o3H4+JfDQIwAAAAgCVEAKaslwjA6UHXCAEYAAAAwBIiAFPWSwTg6Vws9Rc8AAAAgJXLMQdYdTt3S/0FDwAAAGDlckya9kHChx9++Oqrr54+ffrZZ5999tln/1IhfQuWg2fVTp8+/eqrr36Y0UcmEIABAAAA2IjDTM7R+Pjjj0+fPn3lyhWx1hFs56OPPjp9+vTHGV1Vu379+vT09M2bN8Waz2JCLwEYAAAAgI04rpmWzELT09Pf+c537t69Ozsbn52djcVSdedO7M6dmHILtRxKfF7u3Indvn1nZmZmZubWX//1X2tm536q50bCzZs3Z2ZmRPqdnZ0lAAMAAACwHccnatPT0+LBzMzMnTt3ZmZmPklz8+bNv/qrv4rH787Ozt65c8dCClqGYrHZePxuPH5X98FSn13ezMzcmp6+cePGze9+97s3M5qZmRE9vbFYbGZm5tatW7dv374j/rxBAAYAAABgQ/oBWKTfgYGBO3fuGAXg2dn47dt3ZmZu3bhxswAqFpvdtXPnV//Df9A8+L//7M9isdklP7181fT0jWvXP5menjYTgOPxeHd3t8jABGAAAAAAdqcTgEX63bBhw5NPPpkxAM/O3Lp948bN6elPC6Du3In9n//+3z//d3+nefA//vEf79yJLfnp5auufzL98dVr5gNwW1vbwMCAyMAEYAAAAAC2pg3AIv22tLR88Ytf/Ju/+ZsMATgWm715c2Z6+tPr1z8pgLp9+/b/9eSTY2NjmgevvPLK7du3l/z08lVXr167cuXjTz75xHwA/spXvnLs2LG7d+UR7wRgAAAAADalDcCxWCwUCm3btu2pp5764Q9/mCEAf/LJ9NTUh5cvv//OO+8VQF258rHIvZoHr7zyypUrHy/56eWrLl58543fvPXby5dNBuDOzs6nnnrq+9///ksvvXT37l0CMAAAAAD70u8BPnr06MmTJ19++eUMAfj69U8++OD3777727feulQA9eGHfxC5V/PglVde+fDDPyz56eWrfvObty9ceP3dd39rMgDv3r379OnTFy5coAcYAAAAgN0ZzgH+8z//87Nnz2YIwNeuXb98+f23337n9dffLICanJw69Rd/8bOf/Uzz4Pz585OTU0t+evmq8QtvvPba+DvvvGsyAH/1q189e/Ysc4ABAAAAFIBMq0D/0z/9U4YAfPXqtXffvfzGG2/9+tcTBVDvvz/5P/7xH3/9619rHrz55pvvvz+55KeXr3rttfFf/OL8xYvvmAzAJ0+eZBVoAAAAAIXB+n2AP/rDlddff/OXv/zXX/zifAHUG2+89d57v3vvvd/pPljy08tX/cu//Ors2Vffevsi9wEGAAAAsNIYBuAMRAB+//3Jc+d+8corP/9fPztH2aP+17mf/vTsP//zK2+++ZaZAKxEAAYAAABgd44bpn2acOvWrR/84Ae//vX4b37z9sTEby5ceJ2yV/3qV69973vfu5ULZfolAAMAAACwI0d6R99MNrdv337jjTd++MMf/nfY09///d//5Cc/0UTTO9ko0y8BGAAAAIDtOKaxgmlGv+eKAAwAAADARhzf+rNv7d2/7a3N4d9u7rvQs+PS5gfe3bz77c3bL3b3U1TW+m33tje791zcvOf1bTs+6Nrz7T978vlTz/7ov//Nz/7fH73+i1d/9/abf/jgg1ufTt+djf9//3vu3/7t35b6Cx4AAADAykUAphZUBGAAAAAAdpFzAO75j76Kh5wOv8PR4XC2FZduKqncVFG60V26yeVqL3J2rnYGVrn9xSUBZ7mvtCJQ4u4odneudneuLvEVlfiKSv3FmioLOMsCzvKgqzzoKg8WV4VcVV3FVV3F1ZudVZud1d0uUeWbiyu6nZU9rqot7speuSq2uERV9rqqtrqrtrqrt5XU7HDX7HBXb3dVb3fV7HDW9rlq+1x1/e41O0vW7Cyp6yuv6yuv6y9ds7Nszc6ytbvK1+4qTVb97pKGB0obHij1fKHMGy7zhMsawu76vSUN+8o9+yu8+2saH6z17q8T5dlX691f03SgpvGhau+Dlesfqes87A0e9gQP1wcGUuUbqPcN1AeinkDU4x9KVWDYGxhu8keb/dEWf7QlMNQaGGoNDq8XFTqyQZT4UDwbGGoNDbfkVMGhdZoPA9Fm/2BTcGidqEC0WWyRa2CdbnU+3iSq41Bjx6HG9se87Y952w55CcAAAAAA7CJvAbjkfqervai4Y1Wx/z6Xr8jtLy7rLCn3u3MNwJVBZ2WoSK6u4squ4qrNzqrNzrKuovLNxSIGi9Bb3uMs73HaJQD7BxuSATgw7A0eaQweaQweaQ4MrdPNvcs8AIsMTAAGAAAAYCP5DMDOttVF7fcV+RzOztUuX1Fph7u005lrAC73F5UHVlUEV1cEV1eEipJVGlqdzMAi+pZ1F5d1F9slAMsVbUgG4NDRptDRdcHhFmXu7Tq6UdSyDcDKDEwABgAAAGAjixKAiztWOTtXl7S7SjqKLQRgOf0qAnBlV3EyAFd0O0UAFpUYDp0KwCL6LrcA3PH4mo7H13QMrBUZWBOAld2/yzMA+w43+w43awdCP95IAAYAAABgF4sVgIs7VrnbnBYCcEWgWDMEWoyCTo5/ruxxKScAV/a6K3urfLFwRApHfl9ftdWtF4ArA7FwRPJtNBuAq7ti4Yjkb8tfAG57rLb9UF374VQGDgx7g0eaxRzgxATgTTvj4YjUu3X5zQEWAViTgQnAAAAAAGwkz4tgFXesEkOgLfcAG80BNloEq2prSdXJ1r1SeG+sNyL5Wre6q7Y5q7Y5l1sATvYAdw6mBkKnLYJ1f/9yDcC6Gbjz8SYCMAAAAAC7yFsALm8vKel0unxFzsCqhQRgoznAyfHPlT2u5OLP5T3Oqq0lDRd6I5Kv9Ue+iNTrO5mXALwoi2D5BxsU0dcreoDFIliJdbDkHuBty28RLKMMTAAGAAAAYBd5C8AVHaXJAOzyFVleBKvMt7rMf1+Z/77ywKqywKry4GpRunOAy7qLq7ZW+WJi8HP9Nim890JVKgA/07JXEkOjW1IBeHTDXikcmWoNiFHTUnjH/2zYISUfp/cA1++QwpHZDV0fyvv0/zgtAH/n/v1SOPJR2464vE/47Ppw4ph7ztb7BupDw42h4ZadiR0iUve25Bzg50MHxcaPQ7vi4YjUu12eA9y5N3GQSDy4eRkE4PTJwARgAAAAAHaRcwDe8p/8lQdcjvsdrq5VqzeuqvJVlrS6k7dBEvcBTgbgDD3AIvcmo29FyF0RcleEnMoh0MoeYHn950QATt0B+GRLWAqHL1TKSTjW2rDdVb3dVdtXv10KR2Itjf3uutGWfZIcgNeMbtgnhSOS//5d5Wv/QjzeGjpVVr+7JhQLRyR/+55y757artlwRPK37Sn17mvok8IRaWvXX1Z49jX3S+HIbFvr/rrmA/Xe/XWND9aue7hu3X9te1AKR6SunsPerr/1HZTCEWnHzr/zhKLrdsbDEWnz1qjHP7hhjxSOSJt7hzz+oXX98XBE6t463BQcbg9L4Ug81HNkQ+h7IgmLANy5VwpH4qHu4fXB4c5wIgMbBV2RYwPRZhFrdZNwMu4Gos2+gUbdMgq6mr7f5ELQBGAAAAAAdmH7AFx/oTci9XaedFVtdTdc6I1Ivb5nXNXbXbVnfBEpvHeisq7fXddflewBlgPwlGftrvK1u7w7pHAktn7d7mwBeHZDy/4Kz776rtlwRAq1769remitNgD/obXzsLdr8P69UjgS7+yJqgPw2c0RKXzgUrN8K+Bz3REpfPBSa/DclogUPnhpU+jIhtAReQj09qMbQz/vFdvFEOjNl/oiUl//83kLwKkuX01lDMDpd0IiAAMAAACwC7sH4MrOWDgi+VrEbZB+5ItI4b0XKqu3u7wTvREpvP2Ma7EDcPPBWjMBuOvijogU3nOuQROAuy/1RaRw+Jy4DVIqAPdc6o8kxz8nKnxuKQNwevolAAMAAACwEZsH4KdbwmkpMRJrabhXPcDe/TUiAO+32gMcONej6OlVLIKl7gHOughWrgHYqIwCcHr6bX/M23bISwAGAAAAYBf2DsBrx3sjUjh8oapS9ACLacBSr+8Z9RzgM76IlOcA3PjgGrEIVvPB2ua/2rRfCkc+aul43GMYgA3mAAeG2sT83u7h9cFzvREpuQq0cg7wpv54OCJt2brUAViZfgnAAAAAAOzF1gG4siMWjki9nSfdiQAspgGH916orO0rqR1tlVdRnmrJew+wCMCefdVNB2rMBeAG/2Bzn2IV6K2J+wAHng8mV4HeqboPsGIVaGnL1rz2AOc6BFo57Fmk3/bHvJse8xCAAQAAANiFrQOwq2KLq7LXXdmbCsDV20qq5VWgS2r7Smr7xBxg95qdJXL1V6zpr0jcAbi8fndF/e4yUQ0PlHu+UObdUy5XuKxhT6l3X2nDvlJxH2DPvmrv/hpxDyRlAG46UNN0oHr9I3Xthxq6Bhu7Bj2haKoCUU9ADsDyfYAVtwJu8keb/dGW5AhnMeA5KAfgHO4DfM8CcDL9tj3qIQADAAAAsBELAThYecDl2KgIwOudpRvdJZuKXe1FTt99iQDsLO1wl7S7cgzAbv0A3LW6fHNxeXdReXdRRU9xRU9xxRZn5RZnxRanSL+pALzdVb3dVbXdVdtXUtPvqul31e501+501+0qEbVmZ5moRAAuUwTg0lQADpeJANygDMD7K70PVnn313j31zQ+WNuwt8qzv1Kk32QADkU9oWhDKNoQGJL/FWUQgL3+aLOowNC6wNC64HCLqNCR1tCR1rQAvC443BI80hwabtb8G4g2+ocaA9HGwHBTcKgpfR+xXezjH2r0DXg6Bz3p//oHm3yD6/wD6zoHmn2HmzsON3U+3tRxuKnjUGP7440dhxrbDsl9v22PejYeqicAAwAAALCLnAPwtq/1VB4ocXQ67ut0lHS6KzpKK9tKXOtXl7YVuTpWFXc6iv33OTtXu3zO0o6S0o4St+gE7igu6XSWdDpLfS5NlfndZX53eaCkPFBSHnRVdrkqu4qruuWq7nFW9zire4qquoure4pqthTX9jpre53VW521vc6q3uKKLc6KLc6Kra7Kbc7Kbc6q7a7qHe7KPmfVjuKKHcWVfc6qncVVO4urdzlrdrtqdrtqd7qVfcJrd5Wu3VW6dpdbVP3ukoYvlDR8ocSzp9QbLvPsLVkbdq/dV1K/v7ThwTLPQ5XeA1WehypFNTxY4XmosvFgtfdAheeh8tZ/V9dx2OsbXOsbrPMN1nVG5X9F+aL1vmi9f6ghMOwJDHuCR7yho02ho03+o42iAk80BZ5oCn65OfhES/CJlsDRdYGj6wJHW/1HWvxHWnzD60SJnYNHzP/rDTzRGDraKP71H/UGhj2dww3+oQbxb8dQvS9a3x5d2zm4tj1a74t6O6JNvsEmzb+dA43tg42dA41tA96Ow95Nhz3tj3vuHyAAAwAAALCN/ARgZ+t9pW1Frg6HIgC7EwHYlVMArgg5K0JFlZuLKjcXJWLw6qru1ZWbV1V1r67uWVWzZXWyqnpXV8oBuDgZgCv7nJV9zoodxRU7iiv6iyp3FlfuLK7a5ax+wFmz26kXgN2pAPyAWxGAS9ICcLnIuqLElsaDlakAPNDQObi2M1qjrrrOaJ1vaI1vaI1eAPaKCjzRGHiiMfjlpuCXm4Nfbk4E4HX+I82KACwCszeHeqIh8GVPsvxPNPiO1nceWZusjuE1HcNr2ofq2ofq2qNrO6LejmhTerUPNopqG/C2DXg3HfZsOuzZOEgABgAAAGAbOQfgnv/oq3jI6fA7HB0OZ1tx6aaSyk0VpRvdpZtcyTnAbn9xScBZ7iutCJQYDYHWjIUWA6HLg8VVIVdVV3FVV3H1ZmfVZmd1t0uUmP1b2eOq2uJOzPt1K2YCp+YA1+xw1+yQx0LX7HDW9rnETGCReOv6yuv6yuv6SxUDoUuTVb+7pOGBUnksdLjMEy5rCLvr95aIIdBi5LOYA+zdXydWgW46UNP4ULX3wcr1j9R1HvYGD3uCh+sDA6nyDdT7BurlmcBDqVLOAU5OA7Y8B9ioNPOBxTRg/2CTmBKcnBWcPgdYU5rJwKwCDQAAAMB28haAxSJYxR2riv33uXxFbn9xWWdJud+dawBWzgGu7Cqu7Cqu2uys2uws6ypKLoIlQm95T2o1rOUfgP2DDckAHBj2Bo80Bo80Bo+Iqb86uXeZB2DuAwwAAADAdvIZgJ1tq4va7yvyOZydq8Uq0KWdzlwDcLm/qDywqiK4uiK4WrkKdGlodTIDi+hb1l3Xm7pLUGfrkgXg5v7UaYja3v+32gAsV7QhGYBDR5tCR8WqV6nc23V0o6jQkU3JWyItqwCszMAEYAAAAAA2sigBuLhjlbNzdUm7K8NtkDIEYDn9KgJwZVdxMgCL2yCV91R0xMIRqbOl113ZW79VCkdiLQ3iNkjPtOz9/dosAXi0dd+UJ58B+MPGRA/wxrAUjsQ7NqsDcMfjazoeX9MxsFZkYE0AVnb/Ls8ArHtXpPbHGwnAAAAAAOxisQJwcccqd5vTQgCuCBRrhkCLUdDJ8c+VPeLev/VbpXBkcq2YDCzGP1dtdVedbNkrhSOZA/Dohr1SOLJYAdiz9YqqE1gE4LbHatsP1bUfTmXgwLA3eKRZeR/gZBIODq9fngFYk4EJwAAAAABsJM+LYBV3rBJDoC33ABvNAU5bBKt+qzzyuaRqa0kiAFf5YopB0dtdNf/Pur2pkcm9gb8oqeurDaT28d+/y7tDCkdirc27Stfuqg7FwhHJ3/ZAqecLNV2zid1mW1v2lXv213XNhiOzm1pzC8Dr9yRPIN4WHFjbOVjvizb4n+88mDqxvv6/kzNw4PmgvP3jUCIAiyS8ZasIwOe2RKTw3nP3OgDrZuDOx5sIwAAAAADsIm8BuLy9pKTT6fIVOQOrFhKAjeYAJ8c/V/bIKz9X/KhTDpCx1gZtD/Ca6u2u6u1rt0nhyO/X1va56vrrRdBt1PYA6wfglte3RqRw38tlLW/0RqRw34/NB2DlEOj14nFooN4/uGGPFI7EO7qGPIHhjWEpHPl4Y/BIc2CoLSyFI/Fg9/D64HBnWApH4qGeIxtC3wsdlOQe4O5L/REpHD7XGhhq3fZxOCL17Xx+CQKwbgYmAAMAAACwi7wF4IqO0mQAdvmKLC+CVeZbXea/r8x/X3lgVVlgVXlwtai0OcBiHazi1t8n+lF/X58WgMUQ6Ep/qsvXtzGXABz50GNlEazkBOCzXREpfOBik2+gPjTc2HNpR0TasfN7Yv3nxtDR1p3xVO/0tiMbQj/vjUjhg++0aecAPx86KIUjVzoCeJNl4AAABWRJREFUQx17pXAkHui550OgjSYDE4ABAAAA2EXOAXjLf/JXHnA57ne4ulat3riqyldZ0upO3gZJ3Ac4GYAz9ACL3JuMvhUhd0XIXRFyKodAK3uA5fWfEwFYcQdgd2VvVWcsHJF6fSfd1c+07pV7fUtq++q3S+GIFN47UbVmZ/0OEYD7K9aMbtgnhSNT3rW7yut3iwC8ft3usoYHarti4Yjkb99T7t1TmxoCLfcAV3j2VXv314j023yg3ru/rvHB2nUPt+yUwpGP1m38P9YGL+6ISOHIlY2hqCcU9fRc2hHRZGMpvOecxz+0MSyFI1L44KXW4HB7OBGAey71R6Tw3p+nL4K1qV+Mgn4+eFAKH7y0MT3oihwbiDaLWKubhJNxNxBt9g006pZR0NX0/SYXgiYAAwAAALCLwgjA7voLvREpvO1H6gB8xheRwtvPuOv63XIAjrU2mQ3A5d5wWcOeUu+P/REpHPnQqwnATQ+tTQ/AnYfX7YqLZLsuFPWEzm0WjwNRj3+wwT/YIJa/8p/bHJHC4XPewHCTHIDFsGejHuDh9YFzWyJSX/hKn9H451wDcKrLV1MZA3D6nZAIwAAAAADswrYBWEwAlleBFj3Avtat7upt9dvUATgyVV/X726a6I0ke4D7vTtSAbhODHvetLus4dSGfZIcgNs/DEekcN/Lpd5nW/dJ4X1v1GrmACcDcPPBdSIAb/h3azoPe7v+1ndQCkekzduinlB0414pHIl3bo56/IPN/fFwRNrcmwjAkY83Boabui/1RRJzfUNHOvdK4Ug8tOXoRhGGFatAd4Tl8dX645/vQQBOT78EYAAAAAA2YtsAvMW1drxXMbS413fSXbXVXb2tJDEruNc/WrIhOUNY8gUmeiNSb2C0Yk1/xcYpsXFr6FRF/f/0y/tMbdAfAq23CrQIwN79NYkA3CwH4MHG7VfCioHQ8mjniBSOSJu3iB7gIc/Wj5Mbe/ov9UWk/p3Prw8Or0+sfaVcBVq+DdLWK6JvWWf8s4UAbFRGATg9/bY/5m075CUAAwAAALALGwdg5RDoyl6XWAW6eluJWP6qtq+ktq9E3AE4eRPgNTtL1vRXrOmvSNwBuLx+d0X97jJRDQ+Ue75Q5hXjn5NDoPeVNuwrFYtgKYdANz64RiyC1XywtvlgbfPBmvWP1HU87ukabOwa9Ig5wKICUY92CPSQJzDsDQx7A8NNgaF1mpsAh45sUFZQHYCNboB0bwKwMv0SgAEAAADYCwF4QQHYs6+66UBN88HapgPV1gKwP9os3wFYkYGVMTioGgK9ZZvBas+LPQRaOexZpN/2x7ybHvMQgAEAAADYBQE4DwG46UCNCMDthxosBGB/tCU9A6sC8Dl5sHf4XKvR7Y7uWQBOpt+2Rz0EYAAAAAA2YiEABysPuBwbFQF4vbN0o7tkU7Grvcjpuy8RgJ2lHe6SdleOAditH4C7VpdvLi7vLirvLqroKa7oKa7Y4qzc4qzY4hTpNxWAt7uqt7uqtrtq+0pq+l01/a7ane7ane66XSWi1uwsE5UIwGWKAFyaCsDhMhGAG5QBeH+l98Eq7/4acUPghr1Vnv2VIv0mA3Ao6glFG0LRhsCQ/K8ogwDs9UebRQWG1gWG1gWHW0SFjrSGjrQqh0AHhlrlHY40h4abNf8Goo3+ocZAtDEw3BQcakrfR2wX+/iHGn0Dns5BT/q//sEm3+A6/8C6zoFm3+HmjsNNnY83dRxu6jjU2P54Y8ehxrZDct9v26OejYfqCcAAAAAA7CLnAExRyiIAAwAAALALAjC1oCIAAwAAALALAjC1oCIAAwAAALALAjC1oCIAAwAAALCL/x8fGYhNG2zK+QAAAABJRU5ErkJgggA=;" vertex="1" parent="1">
          <mxGeometry x="40" y="-1120" width="1280" height="800" as="geometry" />
        </mxCell>
      </root>
    </mxGraphModel>
  </diagram>
</mxfile>
